<svg width="174" height="301" viewBox="0 0 174 301" fill="none" xmlns="http://www.w3.org/2000/svg">
<g id="Box / Left Door">
<g id="Faces / Door">
<g id="Faces / Left / Base">
<rect width="100" height="200" transform="matrix(-0.866025 0.5 2.20305e-08 1 174 50.2)" fill="#474F4F"/>
<rect id="Rectangle 1" width="100" height="200" transform="matrix(-0.866025 0.5 2.20305e-08 1 174 50.2)" fill="#737981"/>
</g>
<g id="Subtract" filter="url(#filter0_iiii_384_15772)">
<path d="M94.3256 153.969L94.3256 296.45L167.072 254.45L167.072 111.812L130.83 90.9556L94.3256 153.969Z" fill="#393939"/>
</g>
<g id="Mask Group">
<path id="Union" d="M130.3 263.411L131.097 262.951L131.097 107.62L130.3 107.267L130.3 263.411ZM112.104 265.896L118.054 262.461L118.054 255.03L112.104 258.466L112.104 265.896ZM153.756 241.847L159.707 238.411L159.707 230.981L153.756 234.416L153.756 241.847ZM143.343 247.859L149.294 244.424L149.294 236.993L143.343 240.429L143.343 247.859ZM132.93 253.871L138.88 250.436L138.88 243.005L132.93 246.44L132.93 253.871ZM122.517 259.883L128.468 256.448L128.468 249.017L122.517 252.452L122.517 259.883ZM101.69 271.908L107.641 268.472L107.641 261.041L101.69 264.477L101.69 271.908ZM153.756 227.915L159.707 224.48L159.707 217.049L153.756 220.485L153.756 227.915ZM143.343 233.928L149.294 230.492L149.294 223.061L143.343 226.497L143.343 233.928ZM132.93 239.939L138.88 236.504L138.88 229.074L132.93 232.509L132.93 239.939ZM122.517 245.952L128.468 242.516L128.468 235.085L122.517 238.521L122.517 245.952ZM112.104 251.964L118.054 248.528L118.054 241.098L112.104 244.533L112.104 251.964ZM101.69 257.976L107.641 254.54L107.641 247.11L101.69 250.545L101.69 257.976ZM153.756 212.589L159.707 209.154L159.707 201.723L153.756 205.159L153.756 212.589ZM143.343 218.601L149.294 215.166L149.294 207.735L143.343 211.171L143.343 218.601ZM132.93 224.613L138.88 221.178L138.88 213.747L132.93 217.182L132.93 224.613ZM122.517 230.625L128.468 227.19L128.468 219.759L122.517 223.195L122.517 230.625ZM112.104 236.638L118.054 233.202L118.054 225.771L112.104 229.207L112.104 236.638ZM101.69 242.65L107.641 239.214L107.641 231.784L101.69 235.219L101.69 242.65ZM140.064 181.537L133.674 193.162L133.674 201.474L140.368 205.922L147.063 202.057L153.756 189.879L153.756 181.568L147.366 177.322L147.366 168.444L140.064 172.66L140.064 181.537ZM114.031 196.568L107.641 208.193L107.641 216.504L114.335 220.952L121.029 217.087L127.723 204.91L127.723 196.598L121.334 192.352L121.334 183.473L114.031 187.69L114.031 196.568ZM147.434 193.895L139.996 198.189L139.996 188.954L147.434 184.66L147.434 193.895ZM121.401 208.925L113.962 213.22L113.962 203.984L121.401 199.69L121.401 208.925ZM153.756 158.252L159.707 154.817L159.707 147.386L153.756 150.822L153.756 158.252ZM143.343 164.265L149.294 160.829L149.294 153.398L143.343 156.834L143.343 164.265ZM132.93 170.276L138.88 166.841L138.88 159.411L132.93 162.846L132.93 170.276ZM122.517 176.288L128.468 172.853L128.468 165.422L122.517 168.858L122.517 176.288ZM112.104 182.301L118.054 178.865L118.054 171.434L112.104 174.87L112.104 182.301ZM101.69 188.313L107.641 184.877L107.641 177.447L101.69 180.882L101.69 188.313ZM153.756 144.32L159.707 140.884L159.707 133.453L153.756 136.889L153.756 144.32ZM143.343 150.332L149.294 146.896L149.294 139.466L143.343 142.901L143.343 150.332ZM132.93 156.344L138.88 152.909L138.88 145.478L132.93 148.913L132.93 156.344ZM122.517 162.356L128.468 158.92L128.468 151.49L122.517 154.925L122.517 162.356ZM112.104 168.368L118.054 164.932L118.054 157.502L112.104 160.937L112.104 168.368ZM101.69 174.38L107.641 170.945L107.641 163.514L101.69 166.95L101.69 174.38ZM153.756 130.387L159.707 126.952L159.707 119.521L153.756 122.956L153.756 130.387ZM143.343 136.399L149.294 132.964L149.294 125.533L143.343 128.969L143.343 136.399ZM132.93 142.411L138.88 138.976L138.88 131.545L132.93 134.98L132.93 142.411ZM122.517 148.423L128.468 144.988L128.468 137.557L122.517 140.993L122.517 148.423ZM112.104 154.435L118.054 151L118.054 143.569L112.104 147.005L112.104 154.435ZM101.69 160.448L107.641 157.012L107.641 149.581L101.69 153.017L101.69 160.448ZM153.756 116.454L159.707 113.019L159.707 105.588L153.756 109.024L153.756 116.454ZM143.343 122.467L149.294 119.031L149.294 111.6L143.343 115.036L143.343 122.467ZM132.93 128.478L138.88 125.043L138.88 117.613L132.93 121.048L132.93 128.478ZM122.517 134.491L128.468 131.055L128.468 123.624L122.517 127.06L122.517 134.491ZM112.104 140.503L118.054 137.067L118.054 129.637L112.104 133.072L112.104 140.503ZM101.69 146.515L107.641 143.079L107.641 135.649L101.69 139.084L101.69 146.515ZM153.756 102.522L159.707 99.0863L159.707 91.6556L153.756 95.0912L153.756 102.522ZM143.343 108.534L149.294 105.098L149.294 97.6678L143.343 101.103L143.343 108.534ZM132.93 114.546L138.88 111.111L138.88 103.68L132.93 107.115L132.93 114.546ZM122.517 120.558L128.468 117.122L128.468 109.692L122.517 113.127L122.517 120.558ZM112.104 126.57L118.054 123.135L118.054 115.704L112.104 119.14L112.104 126.57ZM101.69 132.582L107.641 129.147L107.641 121.716L101.69 125.152L101.69 132.582Z" fill="#282828"/>
</g>
<path id="Subtract_2" d="M94.3256 111.941L94.3256 154.164L130.768 90.9647L167.072 112.164L167.072 69.9413L130.823 90.8695L130.824 90.868L94.3256 111.941Z" fill="#737981"/>
</g>
<g id="Faces / Right / Base">
<rect id="right" width="100" height="200" transform="matrix(-0.866025 -0.5 -2.20305e-08 1 87.3975 100.2)" fill="#474F4F"/>
</g>
<g id="Faces / Top / Base">
<rect id="top" width="100" height="100" transform="matrix(-0.866025 0.5 0.866025 0.5 87.3975 0.200012)" fill="#AFAFAF"/>
</g>
</g>
<defs>
<filter id="filter0_iiii_384_15772" x="94.3257" y="90.9556" width="72.7461" height="205.495" filterUnits="userSpaceOnUse" color-interpolation-filters="sRGB">
<feFlood flood-opacity="0" result="BackgroundImageFix"/>
<feBlend mode="normal" in="SourceGraphic" in2="BackgroundImageFix" result="shape"/>
<feColorMatrix in="SourceAlpha" type="matrix" values="0 0 0 0 0 0 0 0 0 0 0 0 0 0 0 0 0 0 127 0" result="hardAlpha"/>
<feOffset dx="-10" dy="-6"/>
<feComposite in2="hardAlpha" operator="arithmetic" k2="-1" k3="1"/>
<feColorMatrix type="matrix" values="0 0 0 0 0 0 0 0 0 0 0 0 0 0 0 0 0 0 0.3 0"/>
<feBlend mode="normal" in2="shape" result="effect1_innerShadow_384_15772"/>
<feColorMatrix in="SourceAlpha" type="matrix" values="0 0 0 0 0 0 0 0 0 0 0 0 0 0 0 0 0 0 127 0" result="hardAlpha"/>
<feOffset dy="-12"/>
<feComposite in2="hardAlpha" operator="arithmetic" k2="-1" k3="1"/>
<feColorMatrix type="matrix" values="0 0 0 0 0.156863 0 0 0 0 0.156863 0 0 0 0 0.156863 0 0 0 1 0"/>
<feBlend mode="normal" in2="effect1_innerShadow_384_15772" result="effect2_innerShadow_384_15772"/>
<feColorMatrix in="SourceAlpha" type="matrix" values="0 0 0 0 0 0 0 0 0 0 0 0 0 0 0 0 0 0 127 0" result="hardAlpha"/>
<feOffset dy="-6"/>
<feComposite in2="hardAlpha" operator="arithmetic" k2="-1" k3="1"/>
<feColorMatrix type="matrix" values="0 0 0 0 0.217642 0 0 0 0 0.217642 0 0 0 0 0.217642 0 0 0 1 0"/>
<feBlend mode="normal" in2="effect2_innerShadow_384_15772" result="effect3_innerShadow_384_15772"/>
<feColorMatrix in="SourceAlpha" type="matrix" values="0 0 0 0 0 0 0 0 0 0 0 0 0 0 0 0 0 0 127 0" result="hardAlpha"/>
<feOffset dx="4"/>
<feComposite in2="hardAlpha" operator="arithmetic" k2="-1" k3="1"/>
<feColorMatrix type="matrix" values="0 0 0 0 0 0 0 0 0 0 0 0 0 0 0 0 0 0 0.3 0"/>
<feBlend mode="normal" in2="effect3_innerShadow_384_15772" result="effect4_innerShadow_384_15772"/>
</filter>
</defs>
</svg>
