<svg width="173" height="201" viewBox="0 0 173 201" fill="none" xmlns="http://www.w3.org/2000/svg">
<g id="Box / Left Stairs">
<g id="Union">
<path d="M172.869 50.3788L86.625 200.727L0.167969 150.81L0.431641 150.35L0 150.6V138.1L10.8252 131.85V119.35L21.6504 113.1V100.6L32.4756 94.3495V81.8495L43.3008 75.5995V63.0995L54.0371 56.9013L54.127 56.7441V44.3495L64.7578 38.2109L64.9521 37.873V25.5995L75.4785 19.5214L75.7773 19.0019V6.84955L86.2002 0.830994L86.4121 0.46283L172.869 50.3788Z" fill="#B5B5B5"/>
<path d="M172.869 50.3788L86.625 200.727L0.167969 150.81L0.431641 150.35L0 150.6V138.1L10.8252 131.85V119.35L21.6504 113.1V100.6L32.4756 94.3495V81.8495L43.3008 75.5995V63.0995L54.0371 56.9013L54.127 56.7441V44.3495L64.7578 38.2109L64.9521 37.873V25.5995L75.4785 19.5214L75.7773 19.0019V6.84955L86.2002 0.830994L86.4121 0.46283L172.869 50.3788Z" fill="url(#paint0_linear_382_10879)" fill-opacity="0.7" style="mix-blend-mode:soft-light"/>
<path d="M172.869 50.3788L86.625 200.727L0.167969 150.81L0.431641 150.35L0 150.6V138.1L10.8252 131.85V119.35L21.6504 113.1V100.6L32.4756 94.3495V81.8495L43.3008 75.5995V63.0995L54.0371 56.9013L54.127 56.7441V44.3495L64.7578 38.2109L64.9521 37.873V25.5995L75.4785 19.5214L75.7773 19.0019V6.84955L86.2002 0.830994L86.4121 0.46283L172.869 50.3788Z" fill="url(#paint1_linear_382_10879)" fill-opacity="0.7" style="mix-blend-mode:soft-light"/>
<path d="M172.869 50.3788L86.625 200.727L0.167969 150.81L0.431641 150.35L0 150.6V138.1L10.8252 131.85V119.35L21.6504 113.1V100.6L32.4756 94.3495V81.8495L43.3008 75.5995V63.0995L54.0371 56.9013L54.127 56.7441V44.3495L64.7578 38.2109L64.9521 37.873V25.5995L75.4785 19.5214L75.7773 19.0019V6.84955L86.2002 0.830994L86.4121 0.46283L172.869 50.3788Z" fill="url(#paint2_linear_382_10879)" fill-opacity="0.7" style="mix-blend-mode:soft-light"/>
<path d="M172.869 50.3788L86.625 200.727L0.167969 150.81L0.431641 150.35L0 150.6V138.1L10.8252 131.85V119.35L21.6504 113.1V100.6L32.4756 94.3495V81.8495L43.3008 75.5995V63.0995L54.0371 56.9013L54.127 56.7441V44.3495L64.7578 38.2109L64.9521 37.873V25.5995L75.4785 19.5214L75.7773 19.0019V6.84955L86.2002 0.830994L86.4121 0.46283L172.869 50.3788Z" fill="url(#paint3_linear_382_10879)" fill-opacity="0.7" style="mix-blend-mode:soft-light"/>
<path d="M172.869 50.3788L86.625 200.727L0.167969 150.81L0.431641 150.35L0 150.6V138.1L10.8252 131.85V119.35L21.6504 113.1V100.6L32.4756 94.3495V81.8495L43.3008 75.5995V63.0995L54.0371 56.9013L54.127 56.7441V44.3495L64.7578 38.2109L64.9521 37.873V25.5995L75.4785 19.5214L75.7773 19.0019V6.84955L86.2002 0.830994L86.4121 0.46283L172.869 50.3788Z" fill="url(#paint4_linear_382_10879)" fill-opacity="0.7" style="mix-blend-mode:soft-light"/>
<path d="M172.869 50.3788L86.625 200.727L0.167969 150.81L0.431641 150.35L0 150.6V138.1L10.8252 131.85V119.35L21.6504 113.1V100.6L32.4756 94.3495V81.8495L43.3008 75.5995V63.0995L54.0371 56.9013L54.127 56.7441V44.3495L64.7578 38.2109L64.9521 37.873V25.5995L75.4785 19.5214L75.7773 19.0019V6.84955L86.2002 0.830994L86.4121 0.46283L172.869 50.3788Z" fill="url(#paint5_linear_382_10879)" fill-opacity="0.7" style="mix-blend-mode:soft-light"/>
<path d="M172.869 50.3788L86.625 200.727L0.167969 150.81L0.431641 150.35L0 150.6V138.1L10.8252 131.85V119.35L21.6504 113.1V100.6L32.4756 94.3495V81.8495L43.3008 75.5995V63.0995L54.0371 56.9013L54.127 56.7441V44.3495L64.7578 38.2109L64.9521 37.873V25.5995L75.4785 19.5214L75.7773 19.0019V6.84955L86.2002 0.830994L86.4121 0.46283L172.869 50.3788Z" fill="url(#paint6_linear_382_10879)" fill-opacity="0.7" style="mix-blend-mode:soft-light"/>
<path d="M172.869 50.3788L86.625 200.727L0.167969 150.81L0.431641 150.35L0 150.6V138.1L10.8252 131.85V119.35L21.6504 113.1V100.6L32.4756 94.3495V81.8495L43.3008 75.5995V63.0995L54.0371 56.9013L54.127 56.7441V44.3495L64.7578 38.2109L64.9521 37.873V25.5995L75.4785 19.5214L75.7773 19.0019V6.84955L86.2002 0.830994L86.4121 0.46283L172.869 50.3788Z" fill="url(#paint7_linear_382_10879)" fill-opacity="0.7" style="mix-blend-mode:soft-light"/>
</g>
<g id="Faces / Right / Extra / Stairs-side">
<path id="Union_2" d="M162.175 69.3647L151.349 75.6147L151.349 88.1303L140.524 94.3803L140.524 106.895L129.699 113.145L129.699 125.66L118.873 131.91L118.873 144.425L108.048 150.675L108.048 163.19L97.2228 169.44L97.2228 181.955L86.3975 188.205L86.3975 200.72L173 150.72L173 50.6L162.175 56.85L162.175 69.3647Z" fill="#737981"/>
</g>
</g>
<defs>
<linearGradient id="paint0_linear_382_10879" x1="130.001" y1="25.6" x2="43.4345" y2="175.306" gradientUnits="userSpaceOnUse">
<stop stop-color="white"/>
<stop offset="0.0618833" stop-color="white" stop-opacity="0.874201"/>
<stop offset="0.0633996" stop-color="white" stop-opacity="0"/>
</linearGradient>
<linearGradient id="paint1_linear_382_10879" x1="130.001" y1="25.6" x2="43.4345" y2="175.306" gradientUnits="userSpaceOnUse">
<stop offset="0.122801" stop-color="white" stop-opacity="0"/>
<stop offset="0.126275" stop-color="white"/>
<stop offset="0.188042" stop-color="white" stop-opacity="0.871979"/>
<stop offset="0.189794" stop-color="white" stop-opacity="0"/>
</linearGradient>
<linearGradient id="paint2_linear_382_10879" x1="130.001" y1="25.6" x2="43.4345" y2="175.306" gradientUnits="userSpaceOnUse">
<stop offset="0.251274" stop-color="white" stop-opacity="0"/>
<stop offset="0.253242" stop-color="white"/>
<stop offset="0.312059" stop-color="white" stop-opacity="0.890699"/>
<stop offset="0.314797" stop-color="white" stop-opacity="0"/>
</linearGradient>
<linearGradient id="paint3_linear_382_10879" x1="130.001" y1="25.6" x2="43.4345" y2="175.306" gradientUnits="userSpaceOnUse">
<stop offset="0.375707" stop-color="white" stop-opacity="0"/>
<stop offset="0.377676" stop-color="white"/>
<stop offset="0.437781" stop-color="white" stop-opacity="0.880139"/>
<stop offset="0.440613" stop-color="white" stop-opacity="0"/>
</linearGradient>
<linearGradient id="paint4_linear_382_10879" x1="130.001" y1="25.6" x2="43.4345" y2="175.306" gradientUnits="userSpaceOnUse">
<stop offset="0.500011" stop-color="white" stop-opacity="0"/>
<stop offset="0.501697" stop-color="white"/>
<stop offset="0.563177" stop-color="white" stop-opacity="0.878568"/>
<stop offset="0.565385" stop-color="white" stop-opacity="0"/>
</linearGradient>
<linearGradient id="paint5_linear_382_10879" x1="130.001" y1="25.6" x2="43.4345" y2="175.306" gradientUnits="userSpaceOnUse">
<stop offset="0.625596" stop-color="white" stop-opacity="0"/>
<stop offset="0.626572" stop-color="white"/>
<stop offset="0.688231" stop-color="white" stop-opacity="0.88949"/>
<stop offset="0.688479" stop-color="white" stop-opacity="0"/>
</linearGradient>
<linearGradient id="paint6_linear_382_10879" x1="130.001" y1="25.6" x2="43.4345" y2="175.306" gradientUnits="userSpaceOnUse">
<stop offset="0.748584" stop-color="white" stop-opacity="0"/>
<stop offset="0.751652" stop-color="white"/>
<stop offset="0.814354" stop-color="white"/>
<stop offset="0.815804" stop-color="white" stop-opacity="0"/>
</linearGradient>
<linearGradient id="paint7_linear_382_10879" x1="130.001" y1="25.6" x2="43.4345" y2="175.306" gradientUnits="userSpaceOnUse">
<stop offset="0.874489" stop-color="white" stop-opacity="0"/>
<stop offset="0.877327" stop-color="white"/>
<stop offset="0.939935" stop-color="white"/>
<stop offset="0.941131" stop-color="white" stop-opacity="0"/>
</linearGradient>
</defs>
</svg>
