<svg width="174" height="200" viewBox="0 0 174 200" fill="none" xmlns="http://www.w3.org/2000/svg">
<g id="Box / Left Hole">
<g id="Faces / Top / Pattern - Tiles">
<g id="Faces / Top / Base">
<rect id="top" width="100" height="100" transform="matrix(-0.866025 0.5 2.20305e-08 1 174 50)" fill="#737981"/>
</g>
</g>
<g id="Faces / Top / Pattern - Pressed-button">
<g id="Faces / Top / Base_2">
<rect id="top_2" width="100" height="100" transform="matrix(-0.866025 -0.5 -2.20305e-08 1 87.3975 99.9952)" fill="#474F4F"/>
</g>
<g id="Pattern / Hole">
<g id="Subtract" filter="url(#filter0_i_384_15633)">
<path d="M22.4449 72.4937L9.45456 79.9947L9.45456 129.996L22.4449 152.496L65.7471 177.496L78.7383 169.997L78.7383 119.995L65.7479 97.4947L22.4449 72.4937Z" fill="#222222"/>
</g>
<g id="Mask Group">
<mask id="mask0_384_15633" style="mask-type:alpha" maskUnits="userSpaceOnUse" x="9" y="72" width="70" height="106">
<path id="Subtract_2" d="M65.7468 97.4944L78.7381 119.995L78.7381 169.996L65.7468 177.496L22.4447 152.496L9.45434 129.995L9.45435 79.9939L22.4447 72.4939L65.7468 97.4944Z" fill="#E5BABB"/>
</mask>
<g mask="url(#mask0_384_15633)">
<g id="Group 15">
<path id="Subtract_3" d="M68.0203 98.8071L78.7374 117.37L78.7374 158.621L68.0203 164.808L32.2959 144.183L21.5789 125.62L21.5789 84.3691L32.2959 78.1816L68.0203 98.8071Z" fill="black"/>
</g>
</g>
</g>
</g>
</g>
<g id="Faces / Top / Base_3">
<rect id="top_3" width="100" height="100" transform="matrix(-0.866025 0.5 0.866025 0.5 87.3975 0)" fill="#AFAFAF"/>
</g>
</g>
<defs>
<filter id="filter0_i_384_15633" x="7.45459" y="71.4937" width="71.2837" height="106.002" filterUnits="userSpaceOnUse" color-interpolation-filters="sRGB">
<feFlood flood-opacity="0" result="BackgroundImageFix"/>
<feBlend mode="normal" in="SourceGraphic" in2="BackgroundImageFix" result="shape"/>
<feColorMatrix in="SourceAlpha" type="matrix" values="0 0 0 0 0 0 0 0 0 0 0 0 0 0 0 0 0 0 127 0" result="hardAlpha"/>
<feOffset dx="-12" dy="-1"/>
<feGaussianBlur stdDeviation="1"/>
<feComposite in2="hardAlpha" operator="arithmetic" k2="-1" k3="1"/>
<feColorMatrix type="matrix" values="0 0 0 0 0.995747 0 0 0 0 0.712587 0 0 0 0 0.712587 0 0 0 0.74 0"/>
<feBlend mode="saturation" in2="shape" result="effect1_innerShadow_384_15633"/>
</filter>
</defs>
</svg>
