<svg width="174" height="201" viewBox="0 0 174 201" fill="none" xmlns="http://www.w3.org/2000/svg">
<g id="Box / Right Hole">
<g id="Faces / Top / Pattern - Tiles">
<g id="Faces / Top / Base">
<rect id="top" width="100" height="100" transform="matrix(0.866025 0.5 -2.20305e-08 1 0 50.2)" fill="#474F4F"/>
</g>
</g>
<g id="Faces / Top / Pattern - Pressed-button">
<g id="Faces / Top / Base_2">
<rect id="top_2" width="100" height="100" transform="matrix(0.866025 -0.5 2.20305e-08 1 86.6025 100.195)" fill="#737981"/>
</g>
<g id="Pattern / Hole">
<g id="Subtract" filter="url(#filter0_i_384_15654)">
<path d="M151.555 72.6937L164.545 80.1947L164.545 130.196L151.555 152.696L108.253 177.696L95.2617 170.197L95.2617 120.195L108.252 97.6947L151.555 72.6937Z" fill="#393939"/>
</g>
<g id="Mask Group">
<mask id="mask0_384_15654" style="mask-type:alpha" maskUnits="userSpaceOnUse" x="95" y="72" width="70" height="106">
<path id="Subtract_2" d="M108.253 97.6944L95.2619 120.195L95.2619 170.196L108.253 177.696L151.555 152.696L164.546 130.195L164.546 80.194L151.555 72.694L108.253 97.6944Z" fill="#E5BABB"/>
</mask>
<g mask="url(#mask0_384_15654)">
<g id="Group 15">
<path id="Subtract_3" d="M105.98 99.0071L95.2626 117.57L95.2626 158.821L105.98 165.008L141.704 144.383L152.421 125.82L152.421 84.5691L141.704 78.3816L105.98 99.0071Z" fill="black"/>
</g>
</g>
</g>
</g>
</g>
<g id="Faces / Top / Base_3">
<rect id="top_3" width="100" height="100" transform="matrix(0.866025 0.5 -0.866025 0.5 86.6025 0.200012)" fill="#AFAFAF"/>
</g>
</g>
<defs>
<filter id="filter0_i_384_15654" x="93.2617" y="71.6937" width="71.2837" height="106.002" filterUnits="userSpaceOnUse" color-interpolation-filters="sRGB">
<feFlood flood-opacity="0" result="BackgroundImageFix"/>
<feBlend mode="normal" in="SourceGraphic" in2="BackgroundImageFix" result="shape"/>
<feColorMatrix in="SourceAlpha" type="matrix" values="0 0 0 0 0 0 0 0 0 0 0 0 0 0 0 0 0 0 127 0" result="hardAlpha"/>
<feOffset dx="-12" dy="-1"/>
<feGaussianBlur stdDeviation="1"/>
<feComposite in2="hardAlpha" operator="arithmetic" k2="-1" k3="1"/>
<feColorMatrix type="matrix" values="0 0 0 0 0.995747 0 0 0 0 0.712587 0 0 0 0 0.712587 0 0 0 0.74 0"/>
<feBlend mode="saturation" in2="shape" result="effect1_innerShadow_384_15654"/>
</filter>
</defs>
</svg>
