<svg width="174" height="301" viewBox="0 0 174 301" fill="none" xmlns="http://www.w3.org/2000/svg">
<g id="Box / Right Door">
<g id="Faces / Door">
<g id="Faces / Left / Base">
<rect width="100" height="200" transform="matrix(0.866025 0.5 -2.20305e-08 1 0 50.2)" fill="#474F4F"/>
<rect id="Rectangle 1" width="100" height="200" transform="matrix(0.866025 0.5 -2.20305e-08 1 0 50.2)" fill="#474F4F"/>
</g>
<g id="Subtract" filter="url(#filter0_iiii_384_15770)">
<path d="M79.6744 153.969L79.6744 296.45L6.92822 254.45L6.92822 111.812L43.1702 90.9556L79.6744 153.969Z" fill="#393939"/>
</g>
<g id="Mask Group">
<path id="Union" d="M43.6998 263.411L42.9031 262.951L42.9031 107.62L43.6998 107.267L43.6998 263.411ZM61.8965 265.896L55.9459 262.461L55.9459 255.03L61.8965 258.466L61.8965 265.896ZM20.2435 241.847L14.293 238.411L14.293 230.981L20.2435 234.416L20.2435 241.847ZM30.657 247.859L24.7064 244.424L24.7064 236.993L30.657 240.429L30.657 247.859ZM41.0696 253.871L35.1199 250.436L35.1199 243.005L41.0696 246.44L41.0696 253.871ZM51.483 259.883L45.5325 256.448L45.5325 249.017L51.483 252.452L51.483 259.883ZM72.3099 271.908L66.3594 268.472L66.3594 261.041L72.3099 264.477L72.3099 271.908ZM20.2435 227.915L14.293 224.48L14.293 217.049L20.2435 220.485L20.2435 227.915ZM30.657 233.928L24.7064 230.492L24.7064 223.061L30.657 226.497L30.657 233.928ZM41.0696 239.939L35.1199 236.504L35.1199 229.074L41.0696 232.509L41.0696 239.939ZM51.483 245.952L45.5325 242.516L45.5325 235.085L51.483 238.521L51.483 245.952ZM61.8965 251.964L55.9459 248.528L55.9459 241.098L61.8965 244.533L61.8965 251.964ZM72.3099 257.976L66.3594 254.54L66.3594 247.11L72.3099 250.545L72.3099 257.976ZM20.2435 212.589L14.293 209.154L14.293 201.723L20.2435 205.159L20.2435 212.589ZM30.657 218.601L24.7064 215.166L24.7064 207.735L30.657 211.171L30.657 218.601ZM41.0696 224.613L35.1199 221.178L35.1199 213.747L41.0696 217.182L41.0696 224.613ZM51.483 230.625L45.5325 227.19L45.5325 219.759L51.483 223.195L51.483 230.625ZM61.8965 236.638L55.9459 233.202L55.9459 225.771L61.8965 229.207L61.8965 236.638ZM72.3099 242.65L66.3594 239.214L66.3594 231.784L72.3099 235.219L72.3099 242.65ZM33.9358 181.537L40.3262 193.162L40.3262 201.474L33.6322 205.922L26.9374 202.057L20.2435 189.879L20.2435 181.568L26.6338 177.322L26.6338 168.444L33.9358 172.66L33.9358 181.537ZM59.969 196.568L66.3594 208.193L66.3594 216.504L59.6654 220.952L52.9706 217.087L46.2767 204.91L46.2767 196.598L52.6662 192.352L52.6662 183.473L59.969 187.69L59.969 196.568ZM26.5662 193.895L34.0043 198.189L34.0043 188.954L26.5662 184.66L26.5662 193.895ZM52.5994 208.925L60.0375 213.22L60.0375 203.984L52.5994 199.69L52.5994 208.925ZM20.2435 158.252L14.293 154.817L14.293 147.386L20.2435 150.822L20.2435 158.252ZM30.657 164.265L24.7064 160.829L24.7064 153.398L30.657 156.834L30.657 164.265ZM41.0696 170.276L35.1199 166.841L35.1199 159.411L41.0696 162.846L41.0696 170.276ZM51.483 176.288L45.5325 172.853L45.5325 165.422L51.483 168.858L51.483 176.288ZM61.8965 182.301L55.9459 178.865L55.9459 171.434L61.8965 174.87L61.8965 182.301ZM72.3099 188.313L66.3594 184.877L66.3594 177.447L72.3099 180.882L72.3099 188.313ZM20.2435 144.32L14.293 140.884L14.293 133.453L20.2435 136.889L20.2435 144.32ZM30.657 150.332L24.7064 146.896L24.7064 139.466L30.657 142.901L30.657 150.332ZM41.0696 156.344L35.1199 152.909L35.1199 145.478L41.0696 148.913L41.0696 156.344ZM51.483 162.356L45.5325 158.92L45.5325 151.49L51.483 154.925L51.483 162.356ZM61.8965 168.368L55.9459 164.932L55.9459 157.502L61.8965 160.937L61.8965 168.368ZM72.3099 174.38L66.3594 170.945L66.3594 163.514L72.3099 166.95L72.3099 174.38ZM20.2435 130.387L14.293 126.952L14.293 119.521L20.2435 122.956L20.2435 130.387ZM30.657 136.399L24.7064 132.964L24.7064 125.533L30.657 128.969L30.657 136.399ZM41.0696 142.411L35.1199 138.976L35.1199 131.545L41.0696 134.98L41.0696 142.411ZM51.483 148.423L45.5325 144.988L45.5325 137.557L51.483 140.993L51.483 148.423ZM61.8965 154.435L55.9459 151L55.9459 143.569L61.8965 147.005L61.8965 154.435ZM72.3099 160.448L66.3594 157.012L66.3594 149.581L72.3099 153.017L72.3099 160.448ZM20.2435 116.454L14.293 113.019L14.293 105.588L20.2435 109.024L20.2435 116.454ZM30.657 122.467L24.7064 119.031L24.7064 111.6L30.657 115.036L30.657 122.467ZM41.0696 128.478L35.1199 125.043L35.1199 117.613L41.0696 121.048L41.0696 128.478ZM51.483 134.491L45.5325 131.055L45.5325 123.624L51.483 127.06L51.483 134.491ZM61.8965 140.503L55.9459 137.067L55.9459 129.637L61.8965 133.072L61.8965 140.503ZM72.3099 146.515L66.3594 143.079L66.3594 135.649L72.3099 139.084L72.3099 146.515ZM20.2435 102.522L14.293 99.0863L14.293 91.6556L20.2435 95.0912L20.2435 102.522ZM30.657 108.534L24.7064 105.098L24.7064 97.6678L30.657 101.103L30.657 108.534ZM41.0696 114.546L35.1199 111.111L35.1199 103.68L41.0696 107.115L41.0696 114.546ZM51.483 120.558L45.5325 117.122L45.5325 109.692L51.483 113.127L51.483 120.558ZM61.8965 126.57L55.9459 123.135L55.9459 115.704L61.8965 119.14L61.8965 126.57ZM72.3099 132.582L66.3594 129.147L66.3594 121.716L72.3099 125.152L72.3099 132.582Z" fill="#282828"/>
</g>
<path id="Subtract_2" d="M79.6744 111.941L79.6744 154.164L43.2319 90.9647L6.92822 112.164L6.92822 69.9413L43.177 90.8695L43.1761 90.868L79.6744 111.941Z" fill="#474F4F"/>
</g>
<g id="Faces / Right / Base">
<rect id="right" width="100" height="200" transform="matrix(0.866025 -0.5 2.20305e-08 1 86.6025 100.2)" fill="#737981"/>
</g>
<g id="Faces / Top / Base">
<rect id="top" width="100" height="100" transform="matrix(0.866025 0.5 -0.866025 0.5 86.6025 0.200012)" fill="#AFAFAF"/>
</g>
</g>
<defs>
<filter id="filter0_iiii_384_15770" x="6.92822" y="90.9556" width="72.7461" height="205.495" filterUnits="userSpaceOnUse" color-interpolation-filters="sRGB">
<feFlood flood-opacity="0" result="BackgroundImageFix"/>
<feBlend mode="normal" in="SourceGraphic" in2="BackgroundImageFix" result="shape"/>
<feColorMatrix in="SourceAlpha" type="matrix" values="0 0 0 0 0 0 0 0 0 0 0 0 0 0 0 0 0 0 127 0" result="hardAlpha"/>
<feOffset dx="6" dy="10"/>
<feComposite in2="hardAlpha" operator="arithmetic" k2="-1" k3="1"/>
<feColorMatrix type="matrix" values="0 0 0 0 0 0 0 0 0 0 0 0 0 0 0 0 0 0 0.3 0"/>
<feBlend mode="normal" in2="shape" result="effect1_innerShadow_384_15770"/>
<feColorMatrix in="SourceAlpha" type="matrix" values="0 0 0 0 0 0 0 0 0 0 0 0 0 0 0 0 0 0 127 0" result="hardAlpha"/>
<feOffset dy="-12"/>
<feComposite in2="hardAlpha" operator="arithmetic" k2="-1" k3="1"/>
<feColorMatrix type="matrix" values="0 0 0 0 0.156863 0 0 0 0 0.156863 0 0 0 0 0.156863 0 0 0 1 0"/>
<feBlend mode="normal" in2="effect1_innerShadow_384_15770" result="effect2_innerShadow_384_15770"/>
<feColorMatrix in="SourceAlpha" type="matrix" values="0 0 0 0 0 0 0 0 0 0 0 0 0 0 0 0 0 0 127 0" result="hardAlpha"/>
<feOffset dy="-6"/>
<feComposite in2="hardAlpha" operator="arithmetic" k2="-1" k3="1"/>
<feColorMatrix type="matrix" values="0 0 0 0 0.217642 0 0 0 0 0.217642 0 0 0 0 0.217642 0 0 0 1 0"/>
<feBlend mode="normal" in2="effect2_innerShadow_384_15770" result="effect3_innerShadow_384_15770"/>
<feColorMatrix in="SourceAlpha" type="matrix" values="0 0 0 0 0 0 0 0 0 0 0 0 0 0 0 0 0 0 127 0" result="hardAlpha"/>
<feOffset dx="-4"/>
<feComposite in2="hardAlpha" operator="arithmetic" k2="-1" k3="1"/>
<feColorMatrix type="matrix" values="0 0 0 0 0 0 0 0 0 0 0 0 0 0 0 0 0 0 0.3 0"/>
<feBlend mode="normal" in2="effect3_innerShadow_384_15770" result="effect4_innerShadow_384_15770"/>
</filter>
</defs>
</svg>
