<svg width="173" height="202" viewBox="0 0 173 202" fill="none" xmlns="http://www.w3.org/2000/svg">
<g id="Box / Right Stairs">
<g id="Union">
<path d="M0.130859 50.7788L86.375 201.126L172.832 151.21L172.568 150.75L173 151V138.5L162.175 132.25V119.75L151.35 113.5V101L140.524 94.7495V82.2495L129.699 75.9995V63.4995L118.963 57.3013L118.873 57.144V44.7495L108.242 38.6108L108.048 38.2729V25.9995L97.5215 19.9214L97.2227 19.4019V7.24951L86.7998 1.23096L86.5879 0.862793L0.130859 50.7788Z" fill="#737981"/>
<path d="M0.130859 50.7788L86.375 201.126L172.832 151.21L172.568 150.75L173 151V138.5L162.175 132.25V119.75L151.35 113.5V101L140.524 94.7495V82.2495L129.699 75.9995V63.4995L118.963 57.3013L118.873 57.144V44.7495L108.242 38.6108L108.048 38.2729V25.9995L97.5215 19.9214L97.2227 19.4019V7.24951L86.7998 1.23096L86.5879 0.862793L0.130859 50.7788Z" fill="url(#paint0_linear_382_10619)" fill-opacity="0.7" style="mix-blend-mode:soft-light"/>
<path d="M0.130859 50.7788L86.375 201.126L172.832 151.21L172.568 150.75L173 151V138.5L162.175 132.25V119.75L151.35 113.5V101L140.524 94.7495V82.2495L129.699 75.9995V63.4995L118.963 57.3013L118.873 57.144V44.7495L108.242 38.6108L108.048 38.2729V25.9995L97.5215 19.9214L97.2227 19.4019V7.24951L86.7998 1.23096L86.5879 0.862793L0.130859 50.7788Z" fill="url(#paint1_linear_382_10619)" fill-opacity="0.7" style="mix-blend-mode:soft-light"/>
<path d="M0.130859 50.7788L86.375 201.126L172.832 151.21L172.568 150.75L173 151V138.5L162.175 132.25V119.75L151.35 113.5V101L140.524 94.7495V82.2495L129.699 75.9995V63.4995L118.963 57.3013L118.873 57.144V44.7495L108.242 38.6108L108.048 38.2729V25.9995L97.5215 19.9214L97.2227 19.4019V7.24951L86.7998 1.23096L86.5879 0.862793L0.130859 50.7788Z" fill="url(#paint2_linear_382_10619)" fill-opacity="0.7" style="mix-blend-mode:soft-light"/>
<path d="M0.130859 50.7788L86.375 201.126L172.832 151.21L172.568 150.75L173 151V138.5L162.175 132.25V119.75L151.35 113.5V101L140.524 94.7495V82.2495L129.699 75.9995V63.4995L118.963 57.3013L118.873 57.144V44.7495L108.242 38.6108L108.048 38.2729V25.9995L97.5215 19.9214L97.2227 19.4019V7.24951L86.7998 1.23096L86.5879 0.862793L0.130859 50.7788Z" fill="url(#paint3_linear_382_10619)" fill-opacity="0.7" style="mix-blend-mode:soft-light"/>
<path d="M0.130859 50.7788L86.375 201.126L172.832 151.21L172.568 150.75L173 151V138.5L162.175 132.25V119.75L151.35 113.5V101L140.524 94.7495V82.2495L129.699 75.9995V63.4995L118.963 57.3013L118.873 57.144V44.7495L108.242 38.6108L108.048 38.2729V25.9995L97.5215 19.9214L97.2227 19.4019V7.24951L86.7998 1.23096L86.5879 0.862793L0.130859 50.7788Z" fill="url(#paint4_linear_382_10619)" fill-opacity="0.7" style="mix-blend-mode:soft-light"/>
<path d="M0.130859 50.7788L86.375 201.126L172.832 151.21L172.568 150.75L173 151V138.5L162.175 132.25V119.75L151.35 113.5V101L140.524 94.7495V82.2495L129.699 75.9995V63.4995L118.963 57.3013L118.873 57.144V44.7495L108.242 38.6108L108.048 38.2729V25.9995L97.5215 19.9214L97.2227 19.4019V7.24951L86.7998 1.23096L86.5879 0.862793L0.130859 50.7788Z" fill="url(#paint5_linear_382_10619)" fill-opacity="0.7" style="mix-blend-mode:soft-light"/>
<path d="M0.130859 50.7788L86.375 201.126L172.832 151.21L172.568 150.75L173 151V138.5L162.175 132.25V119.75L151.35 113.5V101L140.524 94.7495V82.2495L129.699 75.9995V63.4995L118.963 57.3013L118.873 57.144V44.7495L108.242 38.6108L108.048 38.2729V25.9995L97.5215 19.9214L97.2227 19.4019V7.24951L86.7998 1.23096L86.5879 0.862793L0.130859 50.7788Z" fill="url(#paint6_linear_382_10619)" fill-opacity="0.7" style="mix-blend-mode:soft-light"/>
<path d="M0.130859 50.7788L86.375 201.126L172.832 151.21L172.568 150.75L173 151V138.5L162.175 132.25V119.75L151.35 113.5V101L140.524 94.7495V82.2495L129.699 75.9995V63.4995L118.963 57.3013L118.873 57.144V44.7495L108.242 38.6108L108.048 38.2729V25.9995L97.5215 19.9214L97.2227 19.4019V7.24951L86.7998 1.23096L86.5879 0.862793L0.130859 50.7788Z" fill="url(#paint7_linear_382_10619)" fill-opacity="0.7" style="mix-blend-mode:soft-light"/>
</g>
<g id="Faces / Right / Extra / Stairs-side">
<path id="Union_2" d="M10.8253 69.7646L21.6506 76.0146L21.6506 88.5303L32.476 94.7803L32.476 107.295L43.3013 113.545L43.3013 126.06L54.1266 132.31L54.1266 144.825L64.9519 151.075L64.9519 163.59L75.7772 169.84L75.7772 182.355L86.6025 188.605L86.6025 201.12L-2.2057e-06 151.12L0 51L10.8253 57.25L10.8253 69.7646Z" fill="#474F4F"/>
</g>
</g>
<defs>
<linearGradient id="paint0_linear_382_10619" x1="42.999" y1="26" x2="129.565" y2="175.706" gradientUnits="userSpaceOnUse">
<stop stop-color="white"/>
<stop offset="0.0618833" stop-color="white" stop-opacity="0.874201"/>
<stop offset="0.0633996" stop-color="white" stop-opacity="0"/>
</linearGradient>
<linearGradient id="paint1_linear_382_10619" x1="42.999" y1="26" x2="129.565" y2="175.706" gradientUnits="userSpaceOnUse">
<stop offset="0.122801" stop-color="white" stop-opacity="0"/>
<stop offset="0.126275" stop-color="white"/>
<stop offset="0.188042" stop-color="white" stop-opacity="0.871979"/>
<stop offset="0.189794" stop-color="white" stop-opacity="0"/>
</linearGradient>
<linearGradient id="paint2_linear_382_10619" x1="42.999" y1="26" x2="129.565" y2="175.706" gradientUnits="userSpaceOnUse">
<stop offset="0.251274" stop-color="white" stop-opacity="0"/>
<stop offset="0.253242" stop-color="white"/>
<stop offset="0.312059" stop-color="white" stop-opacity="0.890699"/>
<stop offset="0.314797" stop-color="white" stop-opacity="0"/>
</linearGradient>
<linearGradient id="paint3_linear_382_10619" x1="42.999" y1="26" x2="129.565" y2="175.706" gradientUnits="userSpaceOnUse">
<stop offset="0.375707" stop-color="white" stop-opacity="0"/>
<stop offset="0.377676" stop-color="white"/>
<stop offset="0.437781" stop-color="white" stop-opacity="0.880139"/>
<stop offset="0.440613" stop-color="white" stop-opacity="0"/>
</linearGradient>
<linearGradient id="paint4_linear_382_10619" x1="42.999" y1="26" x2="129.565" y2="175.706" gradientUnits="userSpaceOnUse">
<stop offset="0.500011" stop-color="white" stop-opacity="0"/>
<stop offset="0.501697" stop-color="white"/>
<stop offset="0.563177" stop-color="white" stop-opacity="0.878568"/>
<stop offset="0.565385" stop-color="white" stop-opacity="0"/>
</linearGradient>
<linearGradient id="paint5_linear_382_10619" x1="42.999" y1="26" x2="129.565" y2="175.706" gradientUnits="userSpaceOnUse">
<stop offset="0.625596" stop-color="white" stop-opacity="0"/>
<stop offset="0.626572" stop-color="white"/>
<stop offset="0.688231" stop-color="white" stop-opacity="0.88949"/>
<stop offset="0.688479" stop-color="white" stop-opacity="0"/>
</linearGradient>
<linearGradient id="paint6_linear_382_10619" x1="42.999" y1="26" x2="129.565" y2="175.706" gradientUnits="userSpaceOnUse">
<stop offset="0.748584" stop-color="white" stop-opacity="0"/>
<stop offset="0.751652" stop-color="white"/>
<stop offset="0.814354" stop-color="white"/>
<stop offset="0.815804" stop-color="white" stop-opacity="0"/>
</linearGradient>
<linearGradient id="paint7_linear_382_10619" x1="42.999" y1="26" x2="129.565" y2="175.706" gradientUnits="userSpaceOnUse">
<stop offset="0.874489" stop-color="white" stop-opacity="0"/>
<stop offset="0.877327" stop-color="white"/>
<stop offset="0.939935" stop-color="white"/>
<stop offset="0.941131" stop-color="white" stop-opacity="0"/>
</linearGradient>
</defs>
</svg>
