<?xml version="1.0" encoding="UTF-8"?>
<svg id="Layer_1" xmlns="http://www.w3.org/2000/svg" version="1.1" viewBox="0 0 24 24">
  <!-- Generator: Adobe Illustrator 30.0.0, SVG Export Plug-In . SVG Version: 2.1.1 Build 123)  -->
  <defs>
    <style>
      .st0 {
        fill: #4c5c8f;
      }
    </style>
  </defs>
  <path class="st0" d="M12,0C5.4,0,0,5.4,0,12s5.4,12,12,12,12-5.4,12-12S18.6,0,12,0ZM16,13h-3v3c0,.6-.4,1-1,1s-1-.4-1-1v-3h-3c-.6,0-1-.4-1-1s.4-1,1-1h3v-3c0-.6.4-1,1-1s1,.4,1,1v3h3c.6,0,1,.4,1,1s-.4,1-1,1Z"/>
</svg>