<svg width="100%" height="100%" viewBox="0 0 50 50" fill="none" xmlns="http://www.w3.org/2000/svg">
<path d="M35.1409 35.1401C41.7155 28.5655 42.3701 18.5604 36.6029 12.7932C30.8358 7.02605 20.8307 7.68066 14.2561 14.2553C7.68139 20.83 7.02678 30.835 12.794 36.6022C18.5611 42.3694 28.5662 41.7148 35.1409 35.1401Z" fill="#F0B49D"/>
<path d="M13.1801 13.1148C13.1801 13.1148 13.1746 13.1202 13.1692 13.1256C13.1692 13.1256 13.1692 13.1256 13.1637 13.1311C13.1583 13.1365 13.1529 13.142 13.1474 13.1474C5.88804 20.4068 5.17278 31.4676 11.5502 37.845C17.9276 44.2224 28.9176 43.5125 36.1825 36.3131C36.1879 36.3076 36.1933 36.3022 36.2042 36.2913L36.2532 36.2423C43.5126 28.9829 44.2224 17.9276 37.845 11.5502C31.4676 5.17278 20.4395 5.88807 13.1801 13.1148ZM32.9773 32.9773L32.9392 33.0154C32.4168 33.5378 32.1886 34.2456 32.2709 34.9265C31.628 34.6972 30.8928 34.7565 30.2668 35.1536C29.6463 35.5452 29.2819 36.1821 29.2117 36.8628C28.6341 36.5029 27.9042 36.3934 27.2181 36.6325C26.5321 36.8715 26.0315 37.4049 25.8087 38.0419C25.3399 37.5622 24.6644 37.2894 23.9401 37.3596C23.2321 37.4243 22.6224 37.8051 22.2471 38.3548C21.9198 37.7882 21.3476 37.3574 20.645 37.2316C19.9532 37.1058 19.2835 37.3067 18.7827 37.7202C18.6297 37.0883 18.2099 36.527 17.5888 36.2106C16.9731 35.8888 16.2759 35.8773 15.6825 36.111C15.7201 35.4738 15.5017 34.8201 15.0166 34.3241C14.526 33.8335 13.8722 33.6043 13.2296 33.6473C13.4742 33.0539 13.4628 32.3567 13.1518 31.741C12.8354 31.1199 12.2795 30.6946 11.6531 30.5362C12.0666 30.0355 12.2676 29.3657 12.1526 28.674C12.0268 27.9713 11.6015 27.3936 11.0348 27.0664C11.5846 26.691 11.9708 26.0868 12.0464 25.3789C12.1166 24.6546 11.8438 23.979 11.3695 23.5048C12.0066 23.282 12.5454 22.7868 12.7844 22.1008C13.0289 21.4093 12.9249 20.6849 12.5758 20.1073C13.2457 20.037 13.888 19.6781 14.2851 19.0521L14.2797 19.0576C14.6822 18.437 14.7415 17.7018 14.5176 17.0535C15.1985 17.1358 15.9063 16.9185 16.4342 16.4015C16.9566 15.8791 17.1739 15.1713 17.0916 14.4904C17.7399 14.7143 18.4751 14.655 19.1011 14.2579C19.7162 13.8717 20.086 13.2294 20.1508 12.5541C20.7284 12.914 21.4583 13.0126 22.1444 12.7736C22.8304 12.5345 23.331 12.0012 23.5538 11.3641C24.028 11.8384 24.7036 12.1112 25.4224 12.0465C26.1358 11.9762 26.7401 11.5901 27.1154 11.0403C27.4427 11.6179 28.0149 12.0377 28.7175 12.1635C29.4093 12.2894 30.0845 12.083 30.5852 11.6695C30.7382 12.3014 31.158 12.8627 31.7792 13.1791C32.4003 13.4955 33.0866 13.5069 33.6854 13.2678C33.6424 13.9104 33.8717 14.5641 34.3568 15.0493C34.8474 15.5398 35.5011 15.7691 36.1437 15.7261C35.9046 16.325 35.9106 17.0167 36.227 17.6378C36.5434 18.2589 37.1047 18.6787 37.7312 18.8372C37.3177 19.3379 37.1167 20.0077 37.2316 20.6994C37.3575 21.4021 37.7828 21.9798 38.3549 22.3124C37.8051 22.6769 37.4135 23.2866 37.3487 23.9945C37.2785 24.7188 37.5459 25.3889 38.0256 25.8686C37.3886 26.0914 36.8552 26.592 36.6107 27.2726C36.3662 27.9641 36.4703 28.6885 36.8302 29.2661C36.1495 29.3363 35.5126 29.7007 35.1209 30.3213C34.7239 30.9364 34.6591 31.677 34.8884 32.3199C34.2075 32.2376 33.4943 32.4603 32.9773 32.9773Z" fill="#F0B49D" stroke="black" stroke-width="2" stroke-miterlimit="10" stroke-linejoin="round"/>
<path d="M29.4468 29.4441C32.4352 26.4557 32.7327 21.908 30.1113 19.2867C27.49 16.6653 22.9423 16.9628 19.9539 19.9512C16.9655 22.9396 16.668 27.4873 19.2894 30.1086C21.9107 32.73 26.4584 32.4325 29.4468 29.4441Z" fill="white" stroke="black" stroke-width="2" stroke-linecap="round" stroke-linejoin="round"/>
</svg>
