<svg width="100%" height="100%" viewBox="0 0 32 37" fill="none" xmlns="http://www.w3.org/2000/svg">
<path d="M30.7033 15.8562C30.7033 24.0507 24.052 30.702 15.8576 30.702C13.4737 30.702 11.2176 30.138 9.22754 29.1376C11.4305 26.0407 12.9203 21.5178 11.8029 15.0368C11.7923 14.973 11.7816 14.8985 11.771 14.824C12.9523 14.8772 14.0271 14.824 15.0062 14.675C24.2223 13.3766 25.4142 4.49048 25.4142 4.49048C28.6494 7.21486 30.7033 11.3014 30.7033 15.8562Z" fill="#F7E3BD" stroke="black" stroke-width="2" stroke-linecap="round" stroke-linejoin="round"/>
<path d="M25.413 4.49061C25.413 4.49061 24.2211 13.3768 15.005 14.6751C14.0259 14.8241 12.9511 14.8773 11.7698 14.8241C11.7698 14.8986 11.7911 14.9731 11.8017 15.0369C12.9192 21.518 11.4293 26.0409 9.22635 29.1377C5.91665 33.8096 1 35.2463 1 35.2463V15.8564C1 7.65132 7.65131 1 15.8564 1C19.496 1 22.8376 2.30898 25.413 4.49061Z" fill="#423E49" stroke="black" stroke-width="2" stroke-linecap="round" stroke-linejoin="round"/>
</svg>
