<?xml version="1.0" encoding="UTF-8"?>
<svg id="Layer_1" xmlns="http://www.w3.org/2000/svg" version="1.1" viewBox="0 0 2755.5 7176.1" id="paths">
  <!-- Generator: Adobe Illustrator 29.8.1, SVG Export Plug-In . SVG Version: 2.1.1 Build 2)  -->
  <defs>
    <style>
      .st0 {
        fill: none;
        stroke: #2ff275;
        stroke-miterlimit: 10;
      }
    </style>
  </defs>
  <g id="mom-path">
    <path class="st0" d="M615.4,1115c99.2,66.4,320.9,216.8,320.9,216.8l-338.1,203.6,39.9,35.1,90.3,138.7,42.9,19,169.5-91.4,259.9,147.9-43.4,36.2-99.2,144-459.9,268.2,41.8,31.1,86.9,150,551.2,320.9-131.9,80.2-94,146.1-372,222.1,185.1-110.5,335.4,214.2-521.7,299.4,193.6-111.1,293.8,181.5,83.6,150,42.9,30.3-175.3,101.5-261.4-162-243.9,148.7,110.8,95.8,93.4,142.2,476.4,272.6-42.1,39.7-104.3,142.5-21.9,9.4-180.8-94.8-332,193.9,40.5,38,83.3,150.1,335.8,202.1,93.7,142.6,30.3,28-215,126.6-85.8,148.6-34,19.5-166.8-113.1v535.7l130.8,61.4,83.8,144.7,469.3,272.4"/>
  </g>
  <g id="child-path">
    <path class="st0" d="M2138.8,1123.4l-312.5,206.7,147.7,106-500.1,292.1,39.8,29.8,83.3,150.1,42.9,18.9,85.3-43.7,215.9,135.8,85.9,141.2,32.7,26.5-506.5,303.4s51,26.7,43.8,22.9,84.2,150.1,84.2,150.1l385.9,229.3-140.5,74.8-81,148.6-288.3,164.3,593.5,356.3-565.5,337.5-80.9,136.9-42.9,30.3,262.6,143.1,258.2-147,172.7,102-53.9,39.2-88.9,138.8-361.4,220.3,292.1,172.9,83.5,145.9,37.5,34.8-476.2,268.5-83.3,147.2-42.9,30.3,346.7,195.8,276.5-193.5-3.1,528.1-148.7,99-85.9,144.7-469.3,272.4"/>
  </g>
</svg>