<svg xmlns="http://www.w3.org/2000/svg" width="2755" height="6854" fill="none" viewBox="0 0 2755 6854">
  <g class="world">
    <g class="Overlay">
      <path fill="#000" fill-opacity=".4" d="M1377.7 5718.32a7.87 7.87 0 0 0-4.88 1.77c-10.55 8.58-18.12 17.18-23.16 25.43-16.68-10.19-33.48-17.24-42.4-20.66l-.4-.14c-4.06-1.31-8.47.88-9.87 4.97-2.75 8.07-4.61 15.72-5.71 22.95-14.29-6.52-29.22-11.19-43.94-12.88-4.92-.56-9.18 3.47-8.79 8.44.81 10.08 3.4 28.37 11.72 46.83-21.45-4.75-44.08-5.33-66.06 1.76-3.74 1.21-6.02 5-5.34 8.85l.08.37c2.01 8.89 7.64 26.05 22.76 41.95 14.99 15.78 39.25 30.25 78.36 34.3-7.46 4.52-14.15 9.93-19.76 16.2-3.71 4.17-1.9 10.74 3.31 12.6 10.46 3.72 30.93 7.56 64.63.72 18.01-3.66 29.64-9.48 37.15-15.62v105.52c-6.06-5.71-14.16-12.35-24.26-18.45-24.64-14.9-61.09-26.63-108.3-14-8.07 2.16-15.25 4.51-21.68 6.98-.15.02-.29.07-.41.15-12.51 4.84-22.2 10.18-30.19 15.65-5.77 3.96-10.65 7.99-15.06 11.93-.28.09-.5.3-.61.55-4.61 4.16-8.71 8.22-12.77 12-8.1 7.53-16.13 13.99-28.06 18.21-11.94 4.23-27.87 6.25-51.8 4.7-27.36-1.77-47.09 7.27-59.34 20.9-12.22 13.62-16.927 31.74-14.408 48.01.359 2.33.866 4.61 1.518 6.84-.082.33 0 .7.26.96.01.01.03.02.04.03 4.09 12.99 13.22 24 27.25 29.22 16.76 6.23 40.26 4.12 70.1-12.28l.01-.01c5.16-2.88 10.33-5.37 15.52-7.66.02-.01.05-.02.08-.04.2-.11.41-.23.61-.35 14.72-6.33 29.53-10.39 44.14-12.53 53.98-7.75 105.82 11.11 144.17 41.18 38.38 30.1 63.09 71.29 63.09 108.03v167.35l11.5 6.6.9-.52V6854H0V0h1377.7v5718.32Z" class="mom-side"/>
      <path fill="#000" fill-opacity=".4" d="M2755 6854H1377.7v-418.87l12.3-7.06V6261.7c0-36.74 24.71-77.93 63.09-108.03 38.35-30.07 90.19-48.94 144.17-41.18 14.71 2.14 29.51 6.2 44.23 12.53.21.12.41.24.62.35.15.08.31.13.47.13 5.11 2.26 10.22 4.82 15.34 7.58 29.84 16.4 53.35 18.51 70.11 12.28 14.15-5.26 23.32-16.4 27.37-29.53.04-.09.07-.19.09-.3a52.85 52.85 0 0 0 1.64-7.22c2.52-16.27-2.18-34.39-14.41-48.01-12.06-13.42-31.38-22.38-58.11-20.97l-1.27.07h-.11c-.09.01-.17.01-.25.02-23.73 1.48-39.57-.55-51.46-4.77-11.93-4.24-19.97-10.71-28.08-18.23-8.09-7.52-16.3-16.15-28.45-24.46-12.16-8.32-28.26-16.33-52.23-22.73-47.21-12.63-83.66-.9-108.3 14-.1.06-.2.12-.29.18-.26.03-.51.17-.67.39l-.02.03c-9.75 6-17.6 12.47-23.48 18.04v-105.96c7.5 6.23 19.2 12.16 37.45 15.87 33.7 6.84 54.17 3 64.63-.72 5.21-1.86 7.03-8.43 3.31-12.6-5.61-6.27-12.31-11.68-19.77-16.2 39.08-4.06 63.32-18.53 78.3-34.3 15.12-15.9 20.75-33.06 22.76-41.95.91-3.97-1.4-7.97-5.26-9.22-21.98-7.09-44.59-6.51-66.04-1.77 8.32-18.46 10.91-36.74 11.72-46.82.37-4.82-3.61-8.74-8.33-8.48l-.46.04c-14.72 1.69-29.65 6.36-43.94 12.88-1.1-7.23-2.96-14.88-5.71-22.95l-.15-.39c-1.59-3.96-6.08-5.98-10.12-4.44-8.92 3.43-25.72 10.47-42.41 20.66-5.03-8.25-12.61-16.85-23.16-25.43a7.901 7.901 0 0 0-5.12-1.77V0H2755v6854Z" class="baby-side"/>
    </g>
  </g>
</svg>
