<svg xmlns="http://www.w3.org/2000/svg" width="2641" height="6854" fill="none" viewBox="0 0 2641 6854">
	<g class="Foreground">
		<g class="heart">
			<path fill="#F0B49D" stroke="#000" stroke-linecap="round" stroke-linejoin="round" stroke-width="2" d="M977.3 1307.3c-36.9 92.8-134.9 126.3-134.9 126.3l7.3-40.7-7.3-13.1-8.2-14.7 8.2-11.5 13.8-19.5-13.8-14.8-15.6-16.7 15.6-20.3 10.6-13.7-10.6-34c84.4-85.9 164.4-1.6 134.9 72.7Z" class="right"/>
			<path fill="#F0B49D" stroke="#000" stroke-linecap="round" stroke-linejoin="round" stroke-width="2" d="m843 1379.8 7.3 13.1-7.3 40.7s-98-33.6-134.9-126.3c-29.5-74.3 50.5-158.5 134.9-72.7l10.6 34-10.6 13.7-15.6 20.3 15.6 16.7 13.8 14.8-13.8 19.5-8.2 11.5 8.2 14.7Z" class="left"/>
		</g>
		<g class="VerticalNeedles">
			<g class="needle">
				<path stroke="#fff" stroke-linecap="round" stroke-linejoin="round" stroke-width="2" d="M914 1611.45v50" class="Vector"/>
				<path fill="#423E49" stroke="#000" stroke-linecap="round" stroke-linejoin="round" stroke-width="2" d="m906.899 1589.85 7.1 21.6 7.2-21.6h-14.3Z" class="Vector"/>
				<path fill="#423E49" stroke="#000" stroke-linecap="round" stroke-linejoin="round" stroke-width="2" d="M921.2 1458.15v131.7c0 .3 0 .7-.3 1-.9 1.5-3.6 2.5-6.9 2.5-3.3 0-6-1.1-6.9-2.5-.2-.3-.3-.7-.3-1v-131.7c0-1.9 3.2-3.5 7.2-3.5s7.2 1.6 7.2 3.5Z" class="Vector"/>
				<g class="Group">
					<path fill="#423E49" stroke="#000" stroke-linecap="round" stroke-linejoin="round" stroke-width="2" d="M931.9 1454.65c0 .5 0 1-.2 1.5-1.4 4.2-8.8 7.3-17.7 7.3-8.9 0-16.3-3.2-17.7-7.3-.2-.5-.2-1-.2-1.5 0-4.9 8-8.8 17.9-8.8 9.9 0 17.9 3.9 17.9 8.8Z" class="Vector"/>
					<path fill="#423E49" stroke="#000" stroke-linecap="round" stroke-linejoin="round" stroke-width="2" d="M917.4 1429.35v25.3c0 .9-1.5 1.7-3.4 1.7s-3.4-.7-3.4-1.7v-25.3c0 .9 1.5 1.7 3.4 1.7s3.4-.7 3.4-1.7Z" class="Vector"/>
					<path fill="#423E49" stroke="#000" stroke-linecap="round" stroke-linejoin="round" stroke-width="2" d="M917.4 1429.35c0 .9-1.5 1.7-3.4 1.7s-3.4-.7-3.4-1.7 1.5-1.7 3.4-1.7 3.4.7 3.4 1.7Z" class="Vector"/>
					<path fill="#423E49" stroke="#000" stroke-linecap="round" stroke-linejoin="round" stroke-width="2" d="M924.7 1426.35c0 .5-.2 1-.4 1.5-1.3 2.2-5.4 3.8-10.3 3.8s-9-1.6-10.3-3.8c-.3-.5-.4-1-.4-1.5 0-2.9 4.8-5.3 10.7-5.3 5.9 0 10.7 2.4 10.7 5.3Z" class="Vector"/>
				</g>
			</g>
			<g class="needle">
				<path stroke="#fff" stroke-linecap="round" stroke-linejoin="round" stroke-width="2" d="M1087.6 1471.75v50" class="Vector"/>
				<path fill="#423E49" stroke="#000" stroke-linecap="round" stroke-linejoin="round" stroke-width="2" d="m1080.5 1450.15 7.1 21.6 7.2-21.6h-14.3Z" class="Vector"/>
				<path fill="#423E49" stroke="#000" stroke-linecap="round" stroke-linejoin="round" stroke-width="2" d="M1094.8 1318.55v131.7c0 .3 0 .7-.3 1-.9 1.5-3.6 2.5-6.9 2.5-3.3 0-6-1.1-6.9-2.5-.2-.3-.3-.7-.3-1v-131.7c0-1.9 3.2-3.5 7.2-3.5s7.2 1.6 7.2 3.5Z" class="Vector"/>
				<g class="Group">
					<path fill="#423E49" stroke="#000" stroke-linecap="round" stroke-linejoin="round" stroke-width="2" d="M1105.6 1314.95c0 .5 0 1-.2 1.5-1.4 4.2-8.8 7.3-17.7 7.3-8.9 0-16.3-3.2-17.7-7.3-.2-.5-.2-1-.2-1.5 0-4.9 8-8.8 17.9-8.8 9.9 0 17.9 3.9 17.9 8.8Z" class="Vector"/>
					<path fill="#423E49" stroke="#000" stroke-linecap="round" stroke-linejoin="round" stroke-width="2" d="M1091 1289.65v25.3c0 .9-1.5 1.7-3.4 1.7s-3.4-.7-3.4-1.7v-25.3c0 .9 1.5 1.7 3.4 1.7s3.4-.7 3.4-1.7Z" class="Vector"/>
					<path fill="#423E49" stroke="#000" stroke-linecap="round" stroke-linejoin="round" stroke-width="2" d="M1091 1289.65c0 .9-1.5 1.7-3.4 1.7s-3.4-.7-3.4-1.7 1.5-1.7 3.4-1.7 3.4.7 3.4 1.7Z" class="Vector"/>
					<path fill="#423E49" stroke="#000" stroke-linecap="round" stroke-linejoin="round" stroke-width="2" d="M1098.3 1286.65c0 .5-.2 1-.4 1.5-1.3 2.2-5.4 3.8-10.3 3.8s-9-1.6-10.3-3.8c-.3-.5-.4-1-.4-1.5 0-2.9 4.8-5.3 10.7-5.3 5.9 0 10.7 2.4 10.7 5.3Z" class="Vector"/>
				</g>
			</g>
			<g class="needle">
				<path stroke="#fff" stroke-linecap="round" stroke-linejoin="round" stroke-width="2" d="M1000.15 1573.75v49.9" class="Vector"/>
				<path fill="#423E49" stroke="#000" stroke-linecap="round" stroke-linejoin="round" stroke-width="2" d="m992.951 1552.15 7.199 21.6 7.2-21.6h-14.399Z" class="Vector"/>
				<path fill="#423E49" stroke="#000" stroke-linecap="round" stroke-linejoin="round" stroke-width="2" d="M1007.35 1420.45v131.7c0 .3 0 .7-.3 1-.9 1.5-3.6 2.5-6.9 2.5-3.299 0-5.999-1.1-6.899-2.5-.2-.3-.3-.7-.3-1v-131.7c0-1.9 3.2-3.5 7.199-3.5 4 0 7.2 1.6 7.2 3.5Z" class="Vector"/>
				<g class="Group">
					<path fill="#423E49" stroke="#000" stroke-linecap="round" stroke-linejoin="round" stroke-width="2" d="M1018.05 1416.95c0 .5 0 1-.2 1.5-1.4 4.2-8.8 7.3-17.7 7.3-8.899 0-16.299-3.2-17.699-7.3-.2-.5-.2-1-.2-1.5 0-4.9 8-8.8 17.899-8.8 9.9 0 17.9 3.9 17.9 8.8Z" class="Vector"/>
					<path fill="#423E49" stroke="#000" stroke-linecap="round" stroke-linejoin="round" stroke-width="2" d="M1003.55 1391.55v25.3c0 .9-1.5 1.7-3.4 1.7-1.899 0-3.399-.7-3.399-1.7v-25.3c0 .9 1.5 1.7 3.399 1.7 1.9 0 3.4-.7 3.4-1.7Z" class="Vector"/>
					<path fill="#423E49" stroke="#000" stroke-linecap="round" stroke-linejoin="round" stroke-width="2" d="M1003.55 1391.55c0 .9-1.5 1.7-3.4 1.7-1.899 0-3.399-.7-3.399-1.7s1.5-1.7 3.399-1.7c1.9 0 3.4.7 3.4 1.7Z" class="Vector"/>
					<path fill="#423E49" stroke="#000" stroke-linecap="round" stroke-linejoin="round" stroke-width="2" d="M1010.85 1388.65c0 .5-.2 1-.4 1.5-1.3 2.2-5.4 3.8-10.3 3.8-4.899 0-8.999-1.6-10.299-3.8-.3-.5-.4-1-.4-1.5 0-2.9 4.8-5.3 10.699-5.3 5.9 0 10.7 2.4 10.7 5.3Z" class="Vector"/>
				</g>
			</g>
			<g class="needle">
				<path stroke="#fff" stroke-linecap="round" stroke-linejoin="round" stroke-width="2" d="M1203.9 1776.05v50" class="Vector"/>
				<path fill="#423E49" stroke="#000" stroke-linecap="round" stroke-linejoin="round" stroke-width="2" d="m1196.7 1754.45 7.2 21.6 7.1-21.6h-14.3Z" class="Vector"/>
				<path fill="#423E49" stroke="#000" stroke-linecap="round" stroke-linejoin="round" stroke-width="2" d="M1211 1622.75v131.7c0 .3 0 .7-.3 1-.9 1.5-3.6 2.5-6.9 2.5-3.3 0-6-1.1-6.9-2.5-.2-.3-.3-.7-.3-1v-131.7c0-1.9 3.2-3.5 7.2-3.5s7.2 1.6 7.2 3.5Z" class="Vector"/>
				<g class="Group">
					<path fill="#423E49" stroke="#000" stroke-linecap="round" stroke-linejoin="round" stroke-width="2" d="M1221.8 1619.25c0 .5 0 1-.2 1.5-1.4 4.2-8.8 7.3-17.7 7.3-8.9 0-16.3-3.2-17.7-7.3-.2-.5-.2-1-.2-1.5 0-4.9 8-8.8 17.9-8.8 9.9 0 17.9 3.9 17.9 8.8Z" class="Vector"/>
					<path fill="#423E49" stroke="#000" stroke-linecap="round" stroke-linejoin="round" stroke-width="2" d="M1207.3 1593.85v25.3c0 .9-1.5 1.7-3.4 1.7s-3.4-.7-3.4-1.7v-25.3c0 .9 1.5 1.7 3.4 1.7s3.4-.7 3.4-1.7Z" class="Vector"/>
					<path fill="#423E49" stroke="#000" stroke-linecap="round" stroke-linejoin="round" stroke-width="2" d="M1207.3 1593.85c0 .9-1.5 1.7-3.4 1.7s-3.4-.7-3.4-1.7 1.5-1.7 3.4-1.7 3.4.7 3.4 1.7Z" class="Vector"/>
					<path fill="#423E49" stroke="#000" stroke-linecap="round" stroke-linejoin="round" stroke-width="2" d="M1214.6 1590.95c0 .5-.2 1-.4 1.5-1.3 2.2-5.4 3.8-10.3 3.8s-9-1.6-10.3-3.8c-.3-.5-.4-1-.4-1.5 0-2.9 4.8-5.3 10.7-5.3 5.9 0 10.7 2.4 10.7 5.3Z" class="Vector"/>
				</g>
			</g>
			<g class="needle">
				<path stroke="#fff" stroke-linecap="round" stroke-linejoin="round" stroke-width="2" d="M1271.5 1647.45v49.9" class="Vector"/>
				<path fill="#423E49" stroke="#000" stroke-linecap="round" stroke-linejoin="round" stroke-width="2" d="m1264.3 1625.85 7.2 21.6 7.2-21.6h-14.4Z" class="Vector"/>
				<path fill="#423E49" stroke="#000" stroke-linecap="round" stroke-linejoin="round" stroke-width="2" d="M1278.7 1494.15v131.7c0 .3 0 .7-.3 1-.9 1.5-3.6 2.5-6.9 2.5-3.3 0-6-1.1-6.9-2.5-.2-.3-.3-.7-.3-1v-131.7c0-1.9 3.2-3.5 7.2-3.5s7.2 1.6 7.2 3.5Z" class="Vector"/>
				<g class="Group">
					<path fill="#423E49" stroke="#000" stroke-linecap="round" stroke-linejoin="round" stroke-width="2" d="M1289.4 1490.65c0 .5 0 1-.2 1.5-1.4 4.2-8.8 7.3-17.7 7.3-8.9 0-16.3-3.2-17.7-7.3-.2-.5-.2-1-.2-1.5 0-4.9 8-8.8 17.9-8.8 9.9 0 17.9 3.9 17.9 8.8Z" class="Vector"/>
					<path fill="#423E49" stroke="#000" stroke-linecap="round" stroke-linejoin="round" stroke-width="2" d="M1274.9 1465.25v25.3c0 .9-1.5 1.7-3.4 1.7s-3.4-.7-3.4-1.7v-25.3c0 .9 1.5 1.7 3.4 1.7s3.4-.7 3.4-1.7Z" class="Vector"/>
					<path fill="#423E49" stroke="#000" stroke-linecap="round" stroke-linejoin="round" stroke-width="2" d="M1274.9 1465.25c0 .9-1.5 1.7-3.4 1.7s-3.4-.7-3.4-1.7 1.5-1.7 3.4-1.7 3.4.7 3.4 1.7Z" class="Vector"/>
					<path fill="#423E49" stroke="#000" stroke-linecap="round" stroke-linejoin="round" stroke-width="2" d="M1282.2 1462.35c0 .5-.2 1-.4 1.5-1.3 2.2-5.4 3.8-10.3 3.8s-9-1.6-10.3-3.8c-.3-.5-.4-1-.4-1.5 0-2.9 4.8-5.3 10.7-5.3 5.9 0 10.7 2.4 10.7 5.3Z" class="Vector"/>
				</g>
			</g>
			<g class="needle">
				<path stroke="#fff" stroke-linecap="round" stroke-linejoin="round" stroke-width="2" d="M1329.8 1706.85v49.9" class="Vector"/>
				<path fill="#423E49" stroke="#000" stroke-linecap="round" stroke-linejoin="round" stroke-width="2" d="m1322.6 1685.25 7.2 21.6 7.1-21.6h-14.3Z" class="Vector"/>
				<path fill="#423E49" stroke="#000" stroke-linecap="round" stroke-linejoin="round" stroke-width="2" d="M1336.9 1553.55v131.7c0 .3 0 .7-.3 1-.9 1.5-3.6 2.5-6.9 2.5-3.3 0-6-1.1-6.9-2.5-.2-.3-.3-.7-.3-1v-131.7c0-1.9 3.2-3.5 7.2-3.5s7.2 1.6 7.2 3.5Z" class="Vector"/>
				<g class="Group">
					<path fill="#423E49" stroke="#000" stroke-linecap="round" stroke-linejoin="round" stroke-width="2" d="M1347.7 1550.05c0 .5 0 1-.2 1.5-1.4 4.2-8.8 7.3-17.7 7.3-8.9 0-16.3-3.2-17.7-7.3-.2-.5-.2-1-.2-1.5 0-4.9 8-8.8 17.9-8.8 9.9 0 17.9 3.9 17.9 8.8Z" class="Vector"/>
					<path fill="#423E49" stroke="#000" stroke-linecap="round" stroke-linejoin="round" stroke-width="2" d="M1333.2 1524.65v25.3c0 .9-1.5 1.7-3.4 1.7s-3.4-.7-3.4-1.7v-25.3c0 .9 1.5 1.7 3.4 1.7s3.4-.7 3.4-1.7Z" class="Vector"/>
					<path fill="#423E49" stroke="#000" stroke-linecap="round" stroke-linejoin="round" stroke-width="2" d="M1333.2 1524.65c0 .9-1.5 1.7-3.4 1.7s-3.4-.7-3.4-1.7 1.5-1.7 3.4-1.7 3.4.7 3.4 1.7Z" class="Vector"/>
					<path fill="#423E49" stroke="#000" stroke-linecap="round" stroke-linejoin="round" stroke-width="2" d="M1340.5 1521.75c0 .5-.2 1-.4 1.5-1.3 2.2-5.4 3.8-10.3 3.8s-9-1.6-10.3-3.8c-.3-.5-.4-1-.4-1.5 0-2.9 4.8-5.3 10.7-5.3 5.9 0 10.7 2.4 10.7 5.3Z" class="Vector"/>
				</g>
			</g>
			<g class="needle">
				<path stroke="#fff" stroke-linecap="round" stroke-linejoin="round" stroke-width="2" d="M1149.3 1920.95v50" class="Vector"/>
				<path fill="#423E49" stroke="#000" stroke-linecap="round" stroke-linejoin="round" stroke-width="2" d="m1142.1 1899.35 7.2 21.6 7.1-21.6h-14.3Z" class="Vector"/>
				<path fill="#423E49" stroke="#000" stroke-linecap="round" stroke-linejoin="round" stroke-width="2" d="M1156.4 1767.65v131.7c0 .3 0 .7-.3 1-.9 1.5-3.6 2.5-6.9 2.5-3.3 0-6-1.1-6.9-2.5-.2-.3-.3-.7-.3-1v-131.7c0-1.9 3.2-3.5 7.2-3.5s7.2 1.6 7.2 3.5Z" class="Vector"/>
				<g class="Group">
					<path fill="#423E49" stroke="#000" stroke-linecap="round" stroke-linejoin="round" stroke-width="2" d="M1167.2 1764.15c0 .5 0 1-.2 1.5-1.4 4.2-8.8 7.3-17.7 7.3-8.9 0-16.3-3.2-17.7-7.3-.2-.5-.2-1-.2-1.5 0-4.9 8-8.8 17.9-8.8 9.9 0 17.9 3.9 17.9 8.8Z" class="Vector"/>
					<path fill="#423E49" stroke="#000" stroke-linecap="round" stroke-linejoin="round" stroke-width="2" d="M1152.7 1738.85v25.3c0 .9-1.5 1.7-3.4 1.7s-3.4-.7-3.4-1.7v-25.3c0 .9 1.5 1.7 3.4 1.7s3.4-.7 3.4-1.7Z" class="Vector"/>
					<path fill="#423E49" stroke="#000" stroke-linecap="round" stroke-linejoin="round" stroke-width="2" d="M1152.7 1738.85c0 .9-1.5 1.7-3.4 1.7s-3.4-.7-3.4-1.7 1.5-1.7 3.4-1.7 3.4.7 3.4 1.7Z" class="Vector"/>
					<path fill="#423E49" stroke="#000" stroke-linecap="round" stroke-linejoin="round" stroke-width="2" d="M1160 1735.85c0 .5-.2 1-.4 1.5-1.3 2.2-5.4 3.8-10.3 3.8s-9-1.6-10.3-3.8c-.3-.5-.4-1-.4-1.5 0-2.9 4.8-5.3 10.7-5.3 5.9 0 10.7 2.4 10.7 5.3Z" class="Vector"/>
				</g>
			</g>
			<g class="needle">
				<path stroke="#fff" stroke-linecap="round" stroke-linejoin="round" stroke-width="2" d="M1278.7 1930.05v50" class="Vector"/>
				<path fill="#423E49" stroke="#000" stroke-linecap="round" stroke-linejoin="round" stroke-width="2" d="m1271.5 1908.45 7.2 21.6 7.1-21.6h-14.3Z" class="Vector"/>
				<path fill="#423E49" stroke="#000" stroke-linecap="round" stroke-linejoin="round" stroke-width="2" d="M1285.8 1776.75v131.7c0 .3 0 .7-.3 1-.9 1.5-3.6 2.5-6.9 2.5-3.3 0-6-1.1-6.9-2.5-.2-.3-.3-.7-.3-1v-131.7c0-1.9 3.2-3.5 7.2-3.5s7.2 1.6 7.2 3.5Z" class="Vector"/>
				<g class="Group">
					<path fill="#423E49" stroke="#000" stroke-linecap="round" stroke-linejoin="round" stroke-width="2" d="M1296.6 1773.25c0 .5 0 1-.2 1.5-1.4 4.2-8.8 7.3-17.7 7.3-8.9 0-16.3-3.2-17.7-7.3-.2-.5-.2-1-.2-1.5 0-4.9 8-8.8 17.9-8.8 9.9 0 17.9 3.9 17.9 8.8Z" class="Vector"/>
					<path fill="#423E49" stroke="#000" stroke-linecap="round" stroke-linejoin="round" stroke-width="2" d="M1282.1 1747.85v25.3c0 .9-1.5 1.7-3.4 1.7s-3.4-.7-3.4-1.7v-25.3c0 .9 1.5 1.7 3.4 1.7s3.4-.7 3.4-1.7Z" class="Vector"/>
					<path fill="#423E49" stroke="#000" stroke-linecap="round" stroke-linejoin="round" stroke-width="2" d="M1282.1 1747.85c0 .9-1.5 1.7-3.4 1.7s-3.4-.7-3.4-1.7 1.5-1.7 3.4-1.7 3.4.7 3.4 1.7Z" class="Vector"/>
					<path fill="#423E49" stroke="#000" stroke-linecap="round" stroke-linejoin="round" stroke-width="2" d="M1289.3 1744.95c0 .5-.2 1-.4 1.5-1.3 2.2-5.4 3.8-10.3 3.8s-9-1.6-10.3-3.8c-.3-.5-.4-1-.4-1.5 0-2.9 4.8-5.3 10.7-5.3 5.9 0 10.7 2.4 10.7 5.3Z" class="Vector"/>
				</g>
			</g>
			<g class="needle">
				<path stroke="#fff" stroke-linecap="round" stroke-linejoin="round" stroke-width="2" d="M1221.8 1483.85v49.9" class="Vector"/>
				<path fill="#423E49" stroke="#000" stroke-linecap="round" stroke-linejoin="round" stroke-width="2" d="m1214.6 1462.25 7.2 21.6 7.2-21.6h-14.4Z" class="Vector"/>
				<path fill="#423E49" stroke="#000" stroke-linecap="round" stroke-linejoin="round" stroke-width="2" d="M1229 1330.55v131.7c0 .3 0 .7-.3 1-.9 1.5-3.6 2.5-6.9 2.5-3.3 0-6-1.1-6.9-2.5-.2-.3-.3-.7-.3-1v-131.7c0-1.9 3.2-3.5 7.2-3.5s7.2 1.6 7.2 3.5Z" class="Vector"/>
				<g class="Group">
					<path fill="#423E49" stroke="#000" stroke-linecap="round" stroke-linejoin="round" stroke-width="2" d="M1239.7 1327.05c0 .5 0 1-.2 1.5-1.4 4.2-8.8 7.3-17.7 7.3-8.9 0-16.3-3.2-17.7-7.3-.2-.5-.2-1-.2-1.5 0-4.9 8-8.8 17.9-8.8 9.9 0 17.9 3.9 17.9 8.8Z" class="Vector"/>
					<path fill="#423E49" stroke="#000" stroke-linecap="round" stroke-linejoin="round" stroke-width="2" d="M1225.2 1301.65v25.3c0 .9-1.5 1.7-3.4 1.7s-3.4-.7-3.4-1.7v-25.3c0 .9 1.5 1.7 3.4 1.7s3.4-.7 3.4-1.7Z" class="Vector"/>
					<path fill="#423E49" stroke="#000" stroke-linecap="round" stroke-linejoin="round" stroke-width="2" d="M1225.2 1301.65c0 .9-1.5 1.7-3.4 1.7s-3.4-.7-3.4-1.7 1.5-1.7 3.4-1.7 3.4.7 3.4 1.7Z" class="Vector"/>
					<path fill="#423E49" stroke="#000" stroke-linecap="round" stroke-linejoin="round" stroke-width="2" d="M1232.5 1298.75c0 .5-.2 1-.4 1.5-1.3 2.2-5.4 3.8-10.3 3.8s-9-1.6-10.3-3.8c-.3-.5-.4-1-.4-1.5 0-2.9 4.8-5.3 10.7-5.3 5.9 0 10.7 2.4 10.7 5.3Z" class="Vector"/>
				</g>
			</g>
			<g class="needle">
				<path stroke="#fff" stroke-linecap="round" stroke-linejoin="round" stroke-width="2" d="M1137.9 1628.5v50" class="Vector"/>
				<path fill="#423E49" stroke="#000" stroke-linecap="round" stroke-linejoin="round" stroke-width="2" d="m1130.8 1606.9 7.1 21.6 7.2-21.6h-14.3Z" class="Vector"/>
				<path fill="#423E49" stroke="#000" stroke-linecap="round" stroke-linejoin="round" stroke-width="2" d="M1145.1 1475.2v131.7c0 .3 0 .7-.3 1-.9 1.5-3.6 2.5-6.9 2.5-3.3 0-6-1.1-6.9-2.5-.2-.3-.3-.7-.3-1v-131.7c0-1.9 3.2-3.5 7.2-3.5s7.2 1.6 7.2 3.5Z" class="Vector"/>
				<g class="Group">
					<path fill="#423E49" stroke="#000" stroke-linecap="round" stroke-linejoin="round" stroke-width="2" d="M1155.9 1471.7c0 .5 0 1-.2 1.5-1.4 4.2-8.8 7.3-17.7 7.3-8.9 0-16.3-3.2-17.7-7.3-.2-.5-.2-1-.2-1.5 0-4.9 8-8.8 17.9-8.8 9.9 0 17.9 3.9 17.9 8.8Z" class="Vector"/>
					<path fill="#423E49" stroke="#000" stroke-linecap="round" stroke-linejoin="round" stroke-width="2" d="M1141.3 1446.4v25.3c0 .9-1.5 1.7-3.4 1.7s-3.4-.7-3.4-1.7v-25.3c0 .9 1.5 1.7 3.4 1.7s3.4-.7 3.4-1.7Z" class="Vector"/>
					<path fill="#423E49" stroke="#000" stroke-linecap="round" stroke-linejoin="round" stroke-width="2" d="M1141.3 1446.4c0 .9-1.5 1.7-3.4 1.7s-3.4-.7-3.4-1.7 1.5-1.7 3.4-1.7 3.4.7 3.4 1.7Z" class="Vector"/>
					<path fill="#423E49" stroke="#000" stroke-linecap="round" stroke-linejoin="round" stroke-width="2" d="M1148.6 1443.4c0 .5-.2 1-.4 1.5-1.3 2.2-5.4 3.8-10.3 3.8s-9-1.6-10.3-3.8c-.3-.5-.4-1-.4-1.5 0-2.9 4.8-5.3 10.7-5.3 5.9 0 10.7 2.4 10.7 5.3Z" class="Vector"/>
				</g>
			</g>
		</g>
		<g class="HorizontalNeedles">
			<g class="horizontal-needle">
				<path stroke="#fff" stroke-linecap="round" stroke-linejoin="round" stroke-width="2" d="m1344.7 3681.5-42.5 26.3" class="Vector"/>
				<g class="Group">
					<path fill="#423E49" stroke="#000" stroke-linecap="round" stroke-linejoin="round" stroke-width="2" d="M1507.2 3593.5c-.4.3-.9.4-1.5.4-2.5 0-6-2.6-8.6-6.7-2.6-4.1-3.4-8.4-2.2-10.7.3-.5.6-.9 1-1.2 2.5-1.5 7 1.3 10.1 6.3 3.1 5 3.6 10.3 1.2 11.9Z" class="Vector"/>
					<path fill="#423E49" stroke="#000" stroke-linecap="round" stroke-linejoin="round" stroke-width="2" d="m1501.4 3588.5-21.5 13.3c-.8.5-2.2-.4-3.2-2s-1.2-3.3-.4-3.8l21.5-13.3c.8-.5 2.2.4 3.2 2s1.2 3.3.4 3.8Z" class="Vector"/>
					<path fill="#423E49" stroke="#000" stroke-linecap="round" stroke-linejoin="round" stroke-width="2" d="M1487.5 3614.2c-.4.3-.9.4-1.4.6-4.3 1-10.9-3.6-15.5-11.2-4.7-7.6-5.9-15.5-3.1-18.9.3-.4.7-.7 1.1-1 4.1-2.6 11.7 2.2 16.9 10.6 5.2 8.4 6.1 17.3 2 19.9Z" class="Vector"/>
				</g>
				<path fill="#423E49" stroke="#000" stroke-linecap="round" stroke-linejoin="round" stroke-width="2" d="m1359.3 3664.1-14.6 17.4 22.2-5.3-7.6-12.1Z" class="Vector"/>
				<path fill="#423E49" stroke="#000" stroke-linecap="round" stroke-linejoin="round" stroke-width="2" d="m1478.8 3606.9-111.9 69.3c-.3.2-.6.3-1 .3-1.7 0-4.1-1.8-5.8-4.5-1.7-2.7-2.3-5.7-1.5-7.2.2-.3.4-.6.7-.8l111.9-69.3c1.7-1 4.7.9 6.8 4.2 2.1 3.4 2.4 6.9.8 7.9v.1Z" class="Vector"/>
			</g>
			<g class="horizontal-needle">
				<path stroke="#fff" stroke-linecap="round" stroke-linejoin="round" stroke-width="2" d="m1476.3 3667.7-42.4 26.3" class="Vector"/>
				<g class="Group">
					<path fill="#423E49" stroke="#000" stroke-linecap="round" stroke-linejoin="round" stroke-width="2" d="M1638.8 3579.6c-.4.3-.9.4-1.5.4-2.5 0-6-2.6-8.6-6.7-2.6-4.1-3.4-8.4-2.2-10.7.3-.5.6-.9 1-1.2 2.5-1.5 7 1.3 10.1 6.3 3.1 5 3.6 10.3 1.2 11.9Z" class="Vector"/>
					<path fill="#423E49" stroke="#000" stroke-linecap="round" stroke-linejoin="round" stroke-width="2" d="m1633 3574.7-21.5 13.3c-.8.5-2.2-.4-3.2-2s-1.2-3.3-.4-3.8l21.5-13.3c.8-.5 2.2.4 3.2 2s1.2 3.3.4 3.8Z" class="Vector"/>
					<path fill="#423E49" stroke="#000" stroke-linecap="round" stroke-linejoin="round" stroke-width="2" d="M1619.1 3600.4c-.4.3-.9.4-1.4.6-4.3 1-10.9-3.6-15.5-11.2s-5.9-15.5-3.1-18.9c.3-.4.7-.7 1.1-1 4.1-2.6 11.7 2.2 16.9 10.6 5.2 8.4 6.1 17.3 2 19.9Z" class="Vector"/>
				</g>
				<path fill="#423E49" stroke="#000" stroke-linecap="round" stroke-linejoin="round" stroke-width="2" d="m1490.9 3650.2-14.6 17.5 22.2-5.3-7.6-12.2Z" class="Vector"/>
				<path fill="#423E49" stroke="#000" stroke-linecap="round" stroke-linejoin="round" stroke-width="2" d="m1610.4 3593.1-111.9 69.3c-.3.2-.6.3-1 .3-1.7 0-4.1-1.8-5.8-4.5-1.7-2.8-2.3-5.7-1.5-7.2.2-.3.4-.6.7-.8l111.9-69.3c1.7-1 4.7.9 6.8 4.2 2.1 3.3 2.4 6.9.8 7.9v.1Z" class="Vector"/>
			</g>
			<g class="horizontal-needle">
				<path stroke="#fff" stroke-linecap="round" stroke-linejoin="round" stroke-width="2" d="m1405.3 3766.6-42.6 26" class="Vector"/>
				<g class="Group">
					<path fill="#423E49" stroke="#000" stroke-linecap="round" stroke-linejoin="round" stroke-width="2" d="M1568.3 3679.4c-.4.3-.9.4-1.5.4-2.5 0-6-2.6-8.6-6.8-2.5-4.1-3.3-8.5-2.1-10.7.3-.5.6-.9 1-1.1 2.5-1.5 7 1.3 10.1 6.4 3.1 5.1 3.6 10.3 1.1 11.9v-.1Z" class="Vector"/>
					<path fill="#423E49" stroke="#000" stroke-linecap="round" stroke-linejoin="round" stroke-width="2" d="m1562.5 3674.4-21.6 13.2c-.8.5-2.2-.4-3.2-2s-1.1-3.3-.3-3.8l21.6-13.2c.8-.5 2.2.4 3.2 2s1.1 3.3.3 3.8Z" class="Vector"/>
					<path fill="#423E49" stroke="#000" stroke-linecap="round" stroke-linejoin="round" stroke-width="2" d="M1548.4 3700c-.4.3-.9.4-1.4.6-4.3 1-10.8-3.7-15.5-11.2-4.6-7.6-5.8-15.5-3-18.9.3-.4.7-.7 1.1-1 4.1-2.5 11.7 2.3 16.9 10.7 5.2 8.4 6 17.3 1.8 19.9l.1-.1Z" class="Vector"/>
				</g>
				<path fill="#423E49" stroke="#000" stroke-linecap="round" stroke-linejoin="round" stroke-width="2" d="m1420 3749.2-14.7 17.4 22.2-5.2-7.5-12.2Z" class="Vector"/>
				<path fill="#423E49" stroke="#000" stroke-linecap="round" stroke-linejoin="round" stroke-width="2" d="m1539.8 3692.7-112.3 68.7c-.3.2-.6.3-1 .3-1.7 0-4-1.8-5.7-4.6-1.7-2.8-2.2-5.7-1.4-7.2.2-.3.4-.6.7-.8l112.3-68.7c1.7-1 4.7.9 6.7 4.3s2.4 6.9.7 7.9v.1Z" class="Vector"/>
			</g>
		</g>
		<g class="calendar">
			<g class="days">
				<path fill="#F0D0D3" stroke="#000" stroke-linecap="round" stroke-linejoin="round" stroke-width="2" d="M677 2241.8v58.7l-43.2-24.8V2217l43.2 24.8Z" class="day"/>
				<path fill="#fff" stroke="#000" stroke-linecap="round" stroke-linejoin="round" stroke-width="2" d="M720.2 2266.5v58.8l-43.2-24.8v-58.7l43.2 24.7Z" class="day"/>
				<path fill="#F0B49D" stroke="#000" stroke-linecap="round" stroke-linejoin="round" stroke-width="2" d="M763.3 2291.3v58.7l-43.1-24.7v-58.8l43.1 24.8Z" class="day"/>
				<path fill="#fff" stroke="#000" stroke-linecap="round" stroke-linejoin="round" stroke-width="2" d="M849.6 2340.8v58.8l-43.1-24.8V2316l43.1 24.8Zm-43.1-24.8v58.8l-43.2-24.8v-58.7l43.2 24.7Z" class="day"/>
				<path fill="#F0B49D" stroke="#000" stroke-linecap="round" stroke-linejoin="round" stroke-width="2" d="M892.8 2365.6v58.7l-43.2-24.7v-58.8l43.2 24.8Z" class="day"/>
				<path fill="#F0D0D3" stroke="#000" stroke-linecap="round" stroke-linejoin="round" stroke-width="2" d="M935.9 2390.3v58.8l-43.1-24.8v-58.7l43.1 24.7Zm0-58.7v58.7l-43.1-24.7v-58.8l43.1 24.8Z" class="day"/>
				<path fill="#fff" stroke="#000" stroke-linecap="round" stroke-linejoin="round" stroke-width="2" d="M892.8 2306.8v58.8l-43.2-24.8v-58.7l43.2 24.7Z" class="day"/>
				<path fill="#fff" stroke="#000" stroke-linecap="round" stroke-linejoin="round" stroke-width="2" d="M849.6 2282.1v58.7l-43.1-24.8v-58.7l43.1 24.8Zm-43.1-24.8v58.7l-43.2-24.7v-58.8l43.2 24.8Zm-43.2-24.8v58.8l-43.1-24.8v-58.7l43.1 24.7Zm-43.1-83.5v58.8L677 2183v-58.7l43.2 24.7Z" class="day"/>
				<path fill="#F0B49D" stroke="#000" stroke-linecap="round" stroke-linejoin="round" stroke-width="2" d="M806.5 2198.5v58.8l-43.2-24.8v-58.7l43.2 24.7Z" class="day"/>
				<path fill="#fff" stroke="#000" stroke-linecap="round" stroke-linejoin="round" stroke-width="2" d="m720.2 2149 43.1 24.8v58.7l-43.1-24.7V2149Zm129.4 74.3v58.8l-43.1-24.8v-58.8l43.1 24.8Z" class="day"/>
				<path fill="#fff" stroke="#000" stroke-linecap="round" stroke-linejoin="round" stroke-width="2" d="M892.8 2248.1v58.7l-43.2-24.7v-58.8l43.2 24.8ZM763.3 2115v58.8l-43.1-24.8v-58.7l43.1 24.7Zm43.2 24.8v58.7l-43.2-24.7V2115l43.2 24.8Z" class="day"/>
				<path fill="#F0D0D3" stroke="#000" stroke-linecap="round" stroke-linejoin="round" stroke-width="2" d="M677 2183v58.8l-43.2-24.8v-58.8L677 2183Z" class="day"/>
				<path fill="#F0D0D3" stroke="#000" stroke-linecap="round" stroke-linejoin="round" stroke-width="2" d="M677 2124.3v58.7l-43.2-24.8v-58.7l43.2 24.8Z" class="day"/>
				<path fill="#F0D0D3" stroke="#000" stroke-linecap="round" stroke-linejoin="round" stroke-width="2" d="M677 2065.5v58.8l-43.2-24.8v-58.8l43.2 24.8Z" class="day"/>
				<path fill="#fff" stroke="#000" stroke-linecap="round" stroke-linejoin="round" stroke-width="2" d="M720.2 2207.8v58.7l-43.2-24.7V2183l43.2 24.8Z" class="day"/>
				<path fill="#F0B49D" stroke="#000" stroke-linecap="round" stroke-linejoin="round" stroke-width="2" d="M720.2 2090.3v58.7l-43.2-24.7v-58.8l43.2 24.8Zm129.4 74.3v58.7l-43.1-24.8v-58.7l43.1 24.8Z" class="day"/>
				<path fill="#fff" stroke="#000" stroke-linecap="round" stroke-linejoin="round" stroke-width="2" d="M892.8 2189.3v58.8l-43.2-24.8v-58.7l43.2 24.7Z" class="day"/>
				<path fill="#F0D0D3" stroke="#000" stroke-linecap="round" stroke-linejoin="round" stroke-width="2" d="M935.9 2272.8v58.8l-43.1-24.8v-58.7l43.1 24.7Zm0-58.7v58.7l-43.1-24.7v-58.8l43.1 24.8Z" class="day"/>
			</g>
			<g class="structure">
				<path fill="#4C5B8F" stroke="#000" stroke-linecap="round" stroke-linejoin="round" stroke-width="2" d="M936.299 2390.5v58.8l-.4-.2v-58.8l.4.2Z" class="Vector"/>
				<path fill="#4C5B8F" stroke="#000" stroke-linecap="round" stroke-linejoin="round" stroke-width="2" d="M936.299 2331.8v58.7l-.4-.2v-58.7l.4.2Z" class="Vector"/>
				<path fill="#4C5B8F" stroke="#000" stroke-linecap="round" stroke-linejoin="round" stroke-width="2" d="M936.299 2273v58.8l-.4-.2v-58.8l.4.2Z" class="Vector"/>
				<path fill="#4C5B8F" stroke="#000" stroke-linecap="round" stroke-linejoin="round" stroke-width="2" d="M936.299 2214.3v58.7l-.4-.2v-58.7l.4.2Z" class="Vector"/>
				<path fill="#F0B49D" stroke="#000" stroke-linecap="round" stroke-linejoin="round" stroke-width="2" d="m633.8 2012.8 43.2 24.8v27.9l-43.2-24.8v-27.9Zm302.5 173.5v28l-.4-.2-43.1-24.8v-27.9l43.1 24.7.4.2Z" class="Vector"/>
				<path fill="#4C5B8F" stroke="#000" stroke-linecap="round" stroke-linejoin="round" stroke-width="2" d="M944.4 2181.4v263l-8.1 4.9v-263l8.1-4.9Z" class="Vector"/>
				<path fill="#4C5B8F" stroke="#000" stroke-linecap="round" stroke-linejoin="round" stroke-width="2" d="M952.499 2176.5v263l-8.1 4.9v-263l8.1-4.9Zm8.101-4.9v263l-8.1 4.9v-263l8.1-4.9Z" class="Vector"/>
				<path fill="#8B7E9C" stroke="#000" stroke-linecap="round" stroke-linejoin="round" stroke-width="2" d="m944.4 2181.4-8.1 4.9-.4-.2-43.1-24.7-43.2-24.8-43.1-24.7-43.2-24.8-43.1-24.8-43.2-24.7-43.2-24.8 8.1-4.9L677 2028l43.2 24.8 43.1 24.7 43.2 24.8 43.1 24.8 43.2 24.7 43.1 24.8 8.5 4.8Z" class="Vector"/>
				<path fill="#8B7E9C" stroke="#000" stroke-linecap="round" stroke-linejoin="round" stroke-width="2" d="m952.499 2176.5-8.1 4.9-302.5-173.5 8.1-4.9 302.5 173.5Zm8.101-4.9-8.1 4.9L650 2003l8.1-4.9 302.5 173.5Z" class="Vector"/>
				<path fill="#8B7E9C" stroke="#000" stroke-linecap="round" stroke-linejoin="round" stroke-width="2" d="m968.7 2166.7-8.1 4.9-302.5-173.5 8.1-4.9 302.5 173.5Z" class="Vector"/>
				<path fill="#4C5C8F" stroke="#000" stroke-linecap="round" stroke-linejoin="round" stroke-width="2" d="M968.7 2166.7v262.9l-8.1 5v-263l8.1-4.9Z" class="Vector"/>
				<path fill="#B38084" stroke="#000" stroke-linecap="round" stroke-linejoin="round" stroke-width="2" d="M892.8 2161.4v27.9l-43.2-24.7-43.1-24.8-43.2-24.8-43.1-24.7-43.2-24.8v-27.9l43.2 24.7 43.1 24.8 43.2 24.8 43.1 24.7 43.2 24.8Z" class="Vector"/>
			</g>
		</g>
		<g class="papers">
			<g class="paper-stack">
				<path fill="#fff" stroke="#000" stroke-linecap="round" stroke-linejoin="round" stroke-width="2" d="m989.471 3291.68-89.67 51.45 58.83 33.76 89.669-51.45-58.829-33.76Z" class="Vector"/>
				<path fill="#fff" stroke="#000" stroke-linecap="round" stroke-linejoin="round" stroke-width="2" d="m989.471 3280.06-89.67 51.45 58.83 33.76 89.669-51.45-58.829-33.76Z" class="Vector"/>
				<path fill="#fff" stroke="#000" stroke-linecap="round" stroke-linejoin="round" stroke-width="2" d="m989.471 3268.44-89.67 51.45 58.83 33.76 89.669-51.45-58.829-33.76Z" class="Vector"/>
				<path fill="#fff" stroke="#000" stroke-linecap="round" stroke-linejoin="round" stroke-width="2" d="m989.471 3256.83-89.67 51.45 58.83 33.75 89.669-51.45-58.829-33.75Z" class="Vector"/>
				<path fill="#fff" stroke="#000" stroke-linecap="round" stroke-linejoin="round" stroke-width="2" d="m989.471 3245.21-89.67 51.45 58.83 33.75 89.669-51.45-58.829-33.75Z" class="Vector"/>
				<path fill="#fff" stroke="#000" stroke-linecap="round" stroke-linejoin="round" stroke-width="2" d="m989.471 3233.59-89.67 51.45 58.83 33.75 89.669-51.45-58.829-33.75Z" class="Vector"/>
				<path fill="#fff" stroke="#000" stroke-linecap="round" stroke-linejoin="round" stroke-width="2" d="m989.471 3221.97-89.67 51.45 58.83 33.76 89.669-51.45-58.829-33.76Z" class="Vector"/>
				<path fill="#fff" stroke="#000" stroke-linecap="round" stroke-linejoin="round" stroke-width="2" d="m989.471 3210.35-89.67 51.45 58.83 33.76 89.669-51.45-58.829-33.76Z" class="Vector"/>
				<path fill="#fff" stroke="#000" stroke-linecap="round" stroke-linejoin="round" stroke-width="2" d="m989.471 3198.73-89.67 51.45 58.83 33.76 89.669-51.45-58.829-33.76Z" class="Vector"/>
				<path fill="#fff" stroke="#000" stroke-linecap="round" stroke-linejoin="round" stroke-width="2" d="m989.471 3187.12-89.67 51.45 58.83 33.75 89.669-51.45-58.829-33.75Z" class="Vector"/>
				<path fill="#fff" stroke="#000" stroke-linecap="round" stroke-linejoin="round" stroke-width="2" d="m989.471 3175.5-89.67 51.45 58.83 33.75 89.669-51.45-58.829-33.75Z" class="Vector"/>
				<path fill="#fff" stroke="#000" stroke-linecap="round" stroke-linejoin="round" stroke-width="2" d="m989.471 3163.88-89.67 51.45 58.83 33.75 89.669-51.45-58.829-33.75Z" class="Vector"/>
				<path fill="#fff" stroke="#000" stroke-linecap="round" stroke-linejoin="round" stroke-width="2" d="m989.471 3152.26-89.67 51.45 58.83 33.76 89.669-51.45-58.829-33.76Z" class="Vector"/>
				<path fill="#fff" stroke="#000" stroke-linecap="round" stroke-linejoin="round" stroke-width="2" d="m989.471 3140.64-89.67 51.45 58.83 33.76 89.669-51.45-58.829-33.76Z" class="Vector"/>
				<path fill="#fff" stroke="#000" stroke-linecap="round" stroke-linejoin="round" stroke-width="2" d="m989.471 3129.02-89.67 51.45 58.83 33.76 89.669-51.45-58.829-33.76Z" class="Vector"/>
				<path fill="#fff" stroke="#000" stroke-linecap="round" stroke-linejoin="round" stroke-width="2" d="m989.471 3117.41-89.67 51.45 58.83 33.75 89.669-51.45-58.829-33.75Z" class="Vector"/>
				<path fill="#fff" stroke="#000" stroke-linecap="round" stroke-linejoin="round" stroke-width="2" d="m989.471 3105.79-89.67 51.45 58.83 33.75 89.669-51.45-58.829-33.75Z" class="Vector"/>
				<path fill="#fff" stroke="#000" stroke-linecap="round" stroke-linejoin="round" stroke-width="2" d="m989.471 3094.17-89.67 51.45 58.83 33.75 89.669-51.45-58.829-33.75Z" class="Vector"/>
			</g>
			<g class="paper-stack">
				<path fill="#fff" stroke="#000" stroke-linecap="round" stroke-linejoin="round" stroke-width="2" d="M623.67 3501.39 534 3552.84l58.83 33.76 89.67-51.45-58.83-33.76Z" class="Vector"/>
				<path fill="#fff" stroke="#000" stroke-linecap="round" stroke-linejoin="round" stroke-width="2" d="M623.67 3489.77 534 3541.22l58.83 33.76 89.67-51.45-58.83-33.76Z" class="Vector"/>
				<path fill="#fff" stroke="#000" stroke-linecap="round" stroke-linejoin="round" stroke-width="2" d="M623.67 3478.16 534 3529.61l58.83 33.75 89.67-51.45-58.83-33.75Z" class="Vector"/>
				<path fill="#fff" stroke="#000" stroke-linecap="round" stroke-linejoin="round" stroke-width="2" d="M623.67 3466.54 534 3517.99l58.83 33.75 89.67-51.45-58.83-33.75Z" class="Vector"/>
				<path fill="#fff" stroke="#000" stroke-linecap="round" stroke-linejoin="round" stroke-width="2" d="M623.67 3454.92 534 3506.37l58.83 33.75 89.67-51.45-58.83-33.75Z" class="Vector"/>
				<path fill="#fff" stroke="#000" stroke-linecap="round" stroke-linejoin="round" stroke-width="2" d="M623.67 3443.3 534 3494.75l58.83 33.76 89.67-51.45-58.83-33.76Z" class="Vector"/>
				<path fill="#fff" stroke="#000" stroke-linecap="round" stroke-linejoin="round" stroke-width="2" d="M623.67 3431.68 534 3483.13l58.83 33.76 89.67-51.45-58.83-33.76Z" class="Vector"/>
				<path fill="#fff" stroke="#000" stroke-linecap="round" stroke-linejoin="round" stroke-width="2" d="M623.67 3420.06 534 3471.51l58.83 33.76 89.67-51.45-58.83-33.76Z" class="Vector"/>
				<path fill="#fff" stroke="#000" stroke-linecap="round" stroke-linejoin="round" stroke-width="2" d="M623.67 3408.45 534 3459.9l58.83 33.75 89.67-51.45-58.83-33.75Z" class="Vector"/>
				<path fill="#fff" stroke="#000" stroke-linecap="round" stroke-linejoin="round" stroke-width="2" d="M623.67 3396.83 534 3448.28l58.83 33.75 89.67-51.45-58.83-33.75Z" class="Vector"/>
				<path fill="#fff" stroke="#000" stroke-linecap="round" stroke-linejoin="round" stroke-width="2" d="M623.67 3385.21 534 3436.66l58.83 33.75 89.67-51.45-58.83-33.75Z" class="Vector"/>
				<path fill="#fff" stroke="#000" stroke-linecap="round" stroke-linejoin="round" stroke-width="2" d="M623.67 3373.59 534 3425.04l58.83 33.76 89.67-51.45-58.83-33.76Z" class="Vector"/>
				<path fill="#fff" stroke="#000" stroke-linecap="round" stroke-linejoin="round" stroke-width="2" d="M623.67 3361.97 534 3413.42l58.83 33.76 89.67-51.45-58.83-33.76Z" class="Vector"/>
				<path fill="#fff" stroke="#000" stroke-linecap="round" stroke-linejoin="round" stroke-width="2" d="M623.67 3350.36 534 3401.81l58.83 33.75 89.67-51.45-58.83-33.75Z" class="Vector"/>
				<path fill="#fff" stroke="#000" stroke-linecap="round" stroke-linejoin="round" stroke-width="2" d="M623.67 3338.74 534 3390.19l58.83 33.75 89.67-51.45-58.83-33.75Z" class="Vector"/>
				<path fill="#fff" stroke="#000" stroke-linecap="round" stroke-linejoin="round" stroke-width="2" d="M623.67 3327.12 534 3378.57l58.83 33.75 89.67-51.45-58.83-33.75Z" class="Vector"/>
				<path fill="#fff" stroke="#000" stroke-linecap="round" stroke-linejoin="round" stroke-width="2" d="M623.67 3315.5 534 3366.95l58.83 33.75 89.67-51.45-58.83-33.75Z" class="Vector"/>
				<path fill="#fff" stroke="#000" stroke-linecap="round" stroke-linejoin="round" stroke-width="2" d="M623.67 3303.88 534 3355.33l58.83 33.76 89.67-51.45-58.83-33.76Z" class="Vector"/>
			</g>
			<g class="paper-stack">
				<path fill="#fff" stroke="#000" stroke-linecap="round" stroke-linejoin="round" stroke-width="2" d="m820.32 3388.41-89.67 51.45 58.83 33.75 89.67-51.45-58.83-33.75Z" class="Vector"/>
				<path fill="#fff" stroke="#000" stroke-linecap="round" stroke-linejoin="round" stroke-width="2" d="m820.32 3376.79-89.67 51.45 58.83 33.76 89.67-51.45-58.83-33.76Z" class="Vector"/>
				<path fill="#fff" stroke="#000" stroke-linecap="round" stroke-linejoin="round" stroke-width="2" d="m820.32 3365.17-89.67 51.45 58.83 33.76 89.67-51.45-58.83-33.76Z" class="Vector"/>
				<path fill="#fff" stroke="#000" stroke-linecap="round" stroke-linejoin="round" stroke-width="2" d="m820.32 3353.56-89.67 51.45 58.83 33.75 89.67-51.45-58.83-33.75Z" class="Vector"/>
				<path fill="#fff" stroke="#000" stroke-linecap="round" stroke-linejoin="round" stroke-width="2" d="m820.32 3341.94-89.67 51.45 58.83 33.75 89.67-51.45-58.83-33.75Z" class="Vector"/>
				<path fill="#fff" stroke="#000" stroke-linecap="round" stroke-linejoin="round" stroke-width="2" d="m820.32 3330.32-89.67 51.45 58.83 33.75 89.67-51.45-58.83-33.75Z" class="Vector"/>
				<path fill="#fff" stroke="#000" stroke-linecap="round" stroke-linejoin="round" stroke-width="2" d="m820.32 3318.7-89.67 51.45 58.83 33.75 89.67-51.45-58.83-33.75Z" class="Vector"/>
				<path fill="#fff" stroke="#000" stroke-linecap="round" stroke-linejoin="round" stroke-width="2" d="m820.32 3307.08-89.67 51.45 58.83 33.76 89.67-51.45-58.83-33.76Z" class="Vector"/>
				<path fill="#fff" stroke="#000" stroke-linecap="round" stroke-linejoin="round" stroke-width="2" d="m820.32 3295.46-89.67 51.45 58.83 33.76 89.67-51.45-58.83-33.76Z" class="Vector"/>
				<path fill="#fff" stroke="#000" stroke-linecap="round" stroke-linejoin="round" stroke-width="2" d="m820.32 3283.84-89.67 51.45 58.83 33.75 89.67-51.45-58.83-33.75Z" class="Vector"/>
				<path fill="#fff" stroke="#000" stroke-linecap="round" stroke-linejoin="round" stroke-width="2" d="m820.32 3272.23-89.67 51.45 58.83 33.75 89.67-51.45-58.83-33.75Z" class="Vector"/>
				<path fill="#fff" stroke="#000" stroke-linecap="round" stroke-linejoin="round" stroke-width="2" d="m820.32 3260.6-89.67 51.45 58.83 33.75 89.67-51.45-58.83-33.75Z" class="Vector"/>
				<path fill="#fff" stroke="#000" stroke-linecap="round" stroke-linejoin="round" stroke-width="2" d="m820.32 3248.99-89.67 51.45 58.83 33.75 89.67-51.45-58.83-33.75Z" class="Vector"/>
				<path fill="#fff" stroke="#000" stroke-linecap="round" stroke-linejoin="round" stroke-width="2" d="m820.32 3237.36-89.67 51.46 58.83 33.75 89.67-51.45-58.83-33.76Z" class="Vector"/>
				<path fill="#fff" stroke="#000" stroke-linecap="round" stroke-linejoin="round" stroke-width="2" d="m820.32 3225.75-89.67 51.45 58.83 33.76 89.67-51.45-58.83-33.76Z" class="Vector"/>
				<path fill="#fff" stroke="#000" stroke-linecap="round" stroke-linejoin="round" stroke-width="2" d="m820.32 3214.14-89.67 51.45 58.83 33.75 89.67-51.45-58.83-33.75Z" class="Vector"/>
				<path fill="#fff" stroke="#000" stroke-linecap="round" stroke-linejoin="round" stroke-width="2" d="m820.32 3202.52-89.67 51.45 58.83 33.75 89.67-51.45-58.83-33.75Z" class="Vector"/>
				<path fill="#fff" stroke="#000" stroke-linecap="round" stroke-linejoin="round" stroke-width="2" d="m820.32 3190.9-89.67 51.45 58.83 33.75 89.67-51.45-58.83-33.75Z" class="Vector"/>
			</g>
		</g>
	</g>
</svg>