<svg xmlns="http://www.w3.org/2000/svg" width="2755" height="6854" fill="none" viewBox="0 0 2755 6854">
  <g class="world">
    <g class="Overlay">
      <path fill="#000" fill-opacity=".4" d="M1377.7 5718.32a7.87 7.87 0 0 0-4.88 1.77c-10.55 8.58-18.12 17.18-23.16 25.43-16.68-10.19-33.48-17.24-42.4-20.66l-.4-.14c-4.06-1.31-8.47.88-9.87 4.97-2.75 8.07-4.61 15.72-5.71 22.95-14.29-6.52-29.22-11.19-43.94-12.88-4.92-.56-9.18 3.47-8.79 8.44.81 10.08 3.4 28.37 11.72 46.83-21.45-4.75-44.08-5.33-66.06 1.76-3.74 1.21-6.02 5-5.34 8.85l.08.37c2.01 8.89 7.64 26.05 22.76 41.95 14.99 15.78 39.25 30.25 78.36 34.3-7.46 4.52-14.15 9.93-19.76 16.2-3.71 4.17-1.9 10.74 3.31 12.6 10.46 3.72 30.93 7.56 64.63.72 18.01-3.66 29.64-9.48 37.15-15.62v105.52c-6.06-5.71-14.16-12.35-24.26-18.45-24.64-14.9-61.09-26.63-108.3-14-8.07 2.16-15.25 4.51-21.68 6.98-.15.02-.29.07-.41.15-12.51 4.84-22.2 10.18-30.19 15.65-5.77 3.96-10.65 7.99-15.06 11.93-.28.09-.5.3-.61.55-4.61 4.16-8.71 8.22-12.77 12-8.1 7.53-16.13 13.99-28.06 18.21-11.94 4.23-27.87 6.25-51.8 4.7-27.36-1.77-47.09 7.27-59.34 20.9-12.22 13.62-16.927 31.74-14.408 48.01.359 2.33.866 4.61 1.518 6.84-.082.33 0 .7.26.96.01.01.03.02.04.03 4.09 12.99 13.22 24 27.25 29.22 16.76 6.23 40.26 4.12 70.1-12.28l.01-.01c5.16-2.88 10.33-5.37 15.52-7.66.02-.01.05-.02.08-.04.2-.11.41-.23.61-.35 14.72-6.33 29.53-10.39 44.14-12.53 53.98-7.75 105.82 11.11 144.17 41.18 38.38 30.1 63.09 71.29 63.09 108.03v167.35l11.5 6.6.9-.52V6854H0V0h1377.7v5718.32Z" class="mom-side"/>
      <path fill="#000" fill-opacity=".4" d="M2755 6854H1377.7V6435.13L1390 6428.07V6261.7C1390 6224.96 1414.71 6183.77 1453.09 6153.67C1491.44 6123.6 1543.28 6104.73 1597.26 6112.49C1611.97 6114.63 1626.77 6118.69 1641.49 6125.02C1641.7 6125.14 1641.9 6125.26 1642.11 6125.37C1642.26 6125.45 1642.42 6125.5 1642.58 6125.5C1647.69 6127.76 1652.8 6130.32 1657.92 6133.08C1687.76 6149.48 1711.27 6151.59 1728.03 6145.36C1742.18 6140.1 1751.35 6128.96 1755.4 6115.83C1755.44 6115.74 1755.47 6115.64 1755.49 6115.53C1756.2 6113.18 1756.75 6110.77 1757.13 6108.31C1759.65 6092.04 1754.95 6073.91 1742.72 6060.3C1730.66 6046.88 1711.34 6037.92 1684.61 6039.33L1683.34 6039.4C1683.3 6039.4 1683.26 6039.4 1683.23 6039.4C1683.14 6039.41 1683.06 6039.41 1682.98 6039.42C1659.25 6040.9 1643.41 6038.87 1631.52 6034.65C1619.59 6030.41 1611.55 6023.94 1603.44 6016.42C1595.35 6008.9 1587.14 6000.27 1574.99 5991.96C1562.83 5983.64 1546.73 5975.63 1522.76 5969.23C1475.55 5956.6 1439.1 5968.33 1414.46 5983.23C1414.36 5983.29 1414.26 5983.35 1414.17 5983.41C1413.91 5983.44 1413.66 5983.58 1413.5 5983.8L1413.48 5983.83C1403.73 5989.83 1395.88 5996.3 1390 6001.87V5895.91C1397.5 5902.14 1409.2 5908.07 1427.45 5911.78C1461.15 5918.62 1481.62 5914.78 1492.08 5911.06C1497.29 5909.2 1499.11 5902.63 1495.39 5898.46L1495.39 5898.46C1489.78 5892.19 1483.08 5886.78 1475.62 5882.26C1514.7 5878.2 1538.94 5863.73 1553.92 5847.96C1569.04 5832.06 1574.67 5814.9 1576.68 5806.01C1577.59 5802.04 1575.28 5798.04 1571.42 5796.79C1549.44 5789.7 1526.83 5790.28 1505.38 5795.02C1513.7 5776.56 1516.29 5758.28 1517.1 5748.2C1517.47 5743.38 1513.49 5739.46 1508.77 5739.72L1508.31 5739.76C1493.59 5741.45 1478.66 5746.12 1464.37 5752.64C1463.27 5745.41 1461.41 5737.76 1458.66 5729.69L1458.51 5729.3C1456.92 5725.34 1452.43 5723.32 1448.39 5724.86L1448.39 5724.86C1439.47 5728.29 1422.67 5735.33 1405.98 5745.52C1400.95 5737.27 1393.37 5728.67 1382.82 5720.09C1381.33 5718.88 1379.51 5718.29 1377.7 5718.32V5540.62H1374.75V5437H1377.7V4244.73H1374.75V4141.1H1377.7V1837H1374.75V1733.38H1377.7V0H2755V6854Z" class="baby-side"/>
    </g>
  </g>
</svg>
