<svg xmlns="http://www.w3.org/2000/svg" width="2641" height="6854" fill="none" viewBox="0 0 2641 6854">
	<g class="Foreground">
		<g class="heart">
			<path fill="#F0B49D" stroke="#000" stroke-linecap="round" stroke-linejoin="round" stroke-width="2" d="M977.3 1307.3c-36.9 92.8-134.9 126.3-134.9 126.3l7.3-40.7-7.3-13.1-8.2-14.7 8.2-11.5 13.8-19.5-13.8-14.8-15.6-16.7 15.6-20.3 10.6-13.7-10.6-34c84.4-85.9 164.4-1.6 134.9 72.7Z" class="right"/>
			<path fill="#F0B49D" stroke="#000" stroke-linecap="round" stroke-linejoin="round" stroke-width="2" d="m843 1379.8 7.3 13.1-7.3 40.7s-98-33.6-134.9-126.3c-29.5-74.3 50.5-158.5 134.9-72.7l10.6 34-10.6 13.7-15.6 20.3 15.6 16.7 13.8 14.8-13.8 19.5-8.2 11.5 8.2 14.7Z" class="left"/>
		</g>
		<g class="VerticalNeedles">
			<g class="needle">
				<path stroke="#fff" stroke-linecap="round" stroke-linejoin="round" stroke-width="2" d="M783.1 1683.8v50" class="Vector"/>
				<path fill="#423E49" stroke="#000" stroke-linecap="round" stroke-linejoin="round" stroke-width="2" d="m775.999 1662.2 7.1 21.6 7.2-21.6h-14.3Z" class="Vector"/>
				<path fill="#423E49" stroke="#000" stroke-linecap="round" stroke-linejoin="round" stroke-width="2" d="M790.299 1530.5v131.7c0 .3 0 .7-.3 1-.9 1.5-3.6 2.5-6.9 2.5-3.3 0-6-1.1-6.9-2.5-.2-.3-.3-.7-.3-1v-131.7c0-1.9 3.2-3.5 7.2-3.5s7.2 1.6 7.2 3.5Z" class="Vector"/>
				<g class="Group">
					<path fill="#423E49" stroke="#000" stroke-linecap="round" stroke-linejoin="round" stroke-width="2" d="M800.999 1527c0 .5 0 1-.2 1.5-1.4 4.2-8.8 7.3-17.7 7.3-8.9 0-16.3-3.2-17.7-7.3-.2-.5-.2-1-.2-1.5 0-4.9 8-8.8 17.9-8.8 9.9 0 17.9 3.9 17.9 8.8Z" class="Vector"/>
					<path fill="#423E49" stroke="#000" stroke-linecap="round" stroke-linejoin="round" stroke-width="2" d="M786.499 1501.7v25.3c0 .9-1.5 1.7-3.4 1.7s-3.4-.7-3.4-1.7v-25.3c0 .9 1.5 1.7 3.4 1.7s3.4-.7 3.4-1.7Z" class="Vector"/>
					<path fill="#423E49" stroke="#000" stroke-linecap="round" stroke-linejoin="round" stroke-width="2" d="M786.499 1501.7c0 .9-1.5 1.7-3.4 1.7s-3.4-.7-3.4-1.7 1.5-1.7 3.4-1.7 3.4.7 3.4 1.7Z" class="Vector"/>
					<path fill="#423E49" stroke="#000" stroke-linecap="round" stroke-linejoin="round" stroke-width="2" d="M793.799 1498.7c0 .5-.2 1-.4 1.5-1.3 2.2-5.4 3.8-10.3 3.8s-9-1.6-10.3-3.8c-.3-.5-.4-1-.4-1.5 0-2.9 4.8-5.3 10.7-5.3 5.9 0 10.7 2.4 10.7 5.3Z" class="Vector"/>
				</g>
			</g>
			<g class="needle">
				<path stroke="#fff" stroke-linecap="round" stroke-linejoin="round" stroke-width="2" d="M745 1863.4v49.9" class="Vector"/>
				<path fill="#423E49" stroke="#000" stroke-linecap="round" stroke-linejoin="round" stroke-width="2" d="m737.8 1841.7 7.2 21.7 7.1-21.7h-14.3Z" class="Vector"/>
				<path fill="#423E49" stroke="#000" stroke-linecap="round" stroke-linejoin="round" stroke-width="2" d="M752.099 1710.1v131.7c0 .3 0 .7-.3 1-.9 1.5-3.6 2.5-6.9 2.5-3.3 0-6-1.1-6.9-2.5-.2-.3-.3-.7-.3-1v-131.7c0-1.9 3.2-3.5 7.2-3.5s7.2 1.6 7.2 3.5Z" class="Vector"/>
				<g class="Group">
					<path fill="#423E49" stroke="#000" stroke-linecap="round" stroke-linejoin="round" stroke-width="2" d="M762.9 1706.6c0 .5 0 1-.2 1.5-1.4 4.2-8.8 7.3-17.7 7.3-8.9 0-16.3-3.2-17.7-7.3-.2-.5-.2-1-.2-1.5 0-4.9 8-8.8 17.9-8.8 9.9 0 17.9 3.9 17.9 8.8Z" class="Vector"/>
					<path fill="#423E49" stroke="#000" stroke-linecap="round" stroke-linejoin="round" stroke-width="2" d="M748.4 1681.2v25.3c0 .9-1.5 1.7-3.4 1.7s-3.4-.7-3.4-1.7v-25.3c0 .9 1.5 1.7 3.4 1.7s3.4-.7 3.4-1.7Z" class="Vector"/>
					<path fill="#423E49" stroke="#000" stroke-linecap="round" stroke-linejoin="round" stroke-width="2" d="M748.4 1681.2c0 .9-1.5 1.7-3.4 1.7s-3.4-.7-3.4-1.7 1.5-1.7 3.4-1.7 3.4.7 3.4 1.7Z" class="Vector"/>
					<path fill="#423E49" stroke="#000" stroke-linecap="round" stroke-linejoin="round" stroke-width="2" d="M755.7 1678.2c0 .5-.2 1-.4 1.5-1.3 2.2-5.4 3.8-10.3 3.8s-9-1.6-10.3-3.8c-.3-.5-.4-1-.4-1.5 0-2.9 4.8-5.3 10.7-5.3 5.9 0 10.7 2.4 10.7 5.3Z" class="Vector"/>
				</g>
			</g>
			<g class="needle">
				<path stroke="#fff" stroke-linecap="round" stroke-linejoin="round" stroke-width="2" d="M835.499 1659v50" class="Vector"/>
				<path fill="#423E49" stroke="#000" stroke-linecap="round" stroke-linejoin="round" stroke-width="2" d="m828.399 1637.4 7.1 21.6 7.2-21.6h-14.3Z" class="Vector"/>
				<path fill="#423E49" stroke="#000" stroke-linecap="round" stroke-linejoin="round" stroke-width="2" d="M842.699 1505.8v131.7c0 .3 0 .7-.3 1-.9 1.5-3.6 2.5-6.9 2.5-3.3 0-6-1.1-6.9-2.5-.2-.3-.3-.7-.3-1v-131.7c0-1.9 3.2-3.5 7.2-3.5s7.2 1.6 7.2 3.5Z" class="Vector"/>
				<g class="Group">
					<path fill="#423E49" stroke="#000" stroke-linecap="round" stroke-linejoin="round" stroke-width="2" d="M853.499 1502.2c0 .5 0 1-.2 1.5-1.4 4.2-8.8 7.3-17.7 7.3-8.9 0-16.3-3.2-17.7-7.3-.2-.5-.2-1-.2-1.5 0-4.9 8-8.8 17.9-8.8 9.9 0 17.9 3.9 17.9 8.8Z" class="Vector"/>
					<path fill="#423E49" stroke="#000" stroke-linecap="round" stroke-linejoin="round" stroke-width="2" d="M838.9 1476.9v25.3c0 .9-1.5 1.7-3.4 1.7s-3.4-.7-3.4-1.7v-25.3c0 .9 1.5 1.7 3.4 1.7s3.4-.7 3.4-1.7Z" class="Vector"/>
					<path fill="#423E49" stroke="#000" stroke-linecap="round" stroke-linejoin="round" stroke-width="2" d="M838.9 1476.9c0 .9-1.5 1.7-3.4 1.7s-3.4-.7-3.4-1.7 1.5-1.7 3.4-1.7 3.4.7 3.4 1.7Z" class="Vector"/>
					<path fill="#423E49" stroke="#000" stroke-linecap="round" stroke-linejoin="round" stroke-width="2" d="M846.199 1473.9c0 .5-.2 1-.4 1.5-1.3 2.2-5.4 3.8-10.3 3.8s-9-1.6-10.3-3.8c-.3-.5-.4-1-.4-1.5 0-2.9 4.8-5.3 10.7-5.3 5.9 0 10.7 2.4 10.7 5.3Z" class="Vector"/>
				</g>
			</g>
			<g class="needle">
				<path stroke="#fff" stroke-linecap="round" stroke-linejoin="round" stroke-width="2" d="M899.7 1701.2v49.9" class="Vector"/>
				<path fill="#423E49" stroke="#000" stroke-linecap="round" stroke-linejoin="round" stroke-width="2" d="m892.5 1679.6 7.2 21.6 7.2-21.6h-14.4Z" class="Vector"/>
				<path fill="#423E49" stroke="#000" stroke-linecap="round" stroke-linejoin="round" stroke-width="2" d="M906.9 1547.9v131.7c0 .3 0 .7-.3 1-.9 1.5-3.6 2.5-6.9 2.5-3.3 0-6-1.1-6.9-2.5-.2-.3-.3-.7-.3-1v-131.7c0-1.9 3.2-3.5 7.2-3.5s7.2 1.6 7.2 3.5Z" class="Vector"/>
				<g class="Group">
					<path fill="#423E49" stroke="#000" stroke-linecap="round" stroke-linejoin="round" stroke-width="2" d="M917.6 1544.4c0 .5 0 1-.2 1.5-1.4 4.2-8.8 7.3-17.7 7.3-8.9 0-16.3-3.2-17.7-7.3-.2-.5-.2-1-.2-1.5 0-4.9 8-8.8 17.9-8.8 9.9 0 17.9 3.9 17.9 8.8Z" class="Vector"/>
					<path fill="#423E49" stroke="#000" stroke-linecap="round" stroke-linejoin="round" stroke-width="2" d="M903.1 1519v25.3c0 .9-1.5 1.7-3.4 1.7s-3.4-.7-3.4-1.7V1519c0 .9 1.5 1.7 3.4 1.7s3.4-.7 3.4-1.7Z" class="Vector"/>
					<path fill="#423E49" stroke="#000" stroke-linecap="round" stroke-linejoin="round" stroke-width="2" d="M903.1 1519c0 .9-1.5 1.7-3.4 1.7s-3.4-.7-3.4-1.7 1.5-1.7 3.4-1.7 3.4.7 3.4 1.7Z" class="Vector"/>
					<path fill="#423E49" stroke="#000" stroke-linecap="round" stroke-linejoin="round" stroke-width="2" d="M910.4 1516.1c0 .5-.2 1-.4 1.5-1.3 2.2-5.4 3.8-10.3 3.8s-9-1.6-10.3-3.8c-.3-.5-.4-1-.4-1.5 0-2.9 4.8-5.3 10.7-5.3 5.9 0 10.7 2.4 10.7 5.3Z" class="Vector"/>
				</g>
			</g>
			<g class="needle">
				<path stroke="#fff" stroke-linecap="round" stroke-linejoin="round" stroke-width="2" d="M1174.3 1743.2v50" class="Vector"/>
				<path fill="#423E49" stroke="#000" stroke-linecap="round" stroke-linejoin="round" stroke-width="2" d="m1167.1 1721.6 7.2 21.6 7.1-21.6h-14.3Z" class="Vector"/>
				<path fill="#423E49" stroke="#000" stroke-linecap="round" stroke-linejoin="round" stroke-width="2" d="M1181.4 1589.9v131.7c0 .3 0 .7-.3 1-.9 1.5-3.6 2.5-6.9 2.5-3.3 0-6-1.1-6.9-2.5-.2-.3-.3-.7-.3-1v-131.7c0-1.9 3.2-3.5 7.2-3.5s7.2 1.6 7.2 3.5Z" class="Vector"/>
				<g class="Group">
					<path fill="#423E49" stroke="#000" stroke-linecap="round" stroke-linejoin="round" stroke-width="2" d="M1192.2 1586.4c0 .5 0 1-.2 1.5-1.4 4.2-8.8 7.3-17.7 7.3-8.9 0-16.3-3.2-17.7-7.3-.2-.5-.2-1-.2-1.5 0-4.9 8-8.8 17.9-8.8 9.9 0 17.9 3.9 17.9 8.8Z" class="Vector"/>
					<path fill="#423E49" stroke="#000" stroke-linecap="round" stroke-linejoin="round" stroke-width="2" d="M1177.7 1561v25.3c0 .9-1.5 1.7-3.4 1.7s-3.4-.7-3.4-1.7V1561c0 .9 1.5 1.7 3.4 1.7s3.4-.7 3.4-1.7Z" class="Vector"/>
					<path fill="#423E49" stroke="#000" stroke-linecap="round" stroke-linejoin="round" stroke-width="2" d="M1177.7 1561c0 .9-1.5 1.7-3.4 1.7s-3.4-.7-3.4-1.7 1.5-1.7 3.4-1.7 3.4.7 3.4 1.7Z" class="Vector"/>
					<path fill="#423E49" stroke="#000" stroke-linecap="round" stroke-linejoin="round" stroke-width="2" d="M1185 1558.1c0 .5-.2 1-.4 1.5-1.3 2.2-5.4 3.8-10.3 3.8s-9-1.6-10.3-3.8c-.3-.5-.4-1-.4-1.5 0-2.9 4.8-5.3 10.7-5.3 5.9 0 10.7 2.4 10.7 5.3Z" class="Vector"/>
				</g>
			</g>
			<g class="needle">
				<path stroke="#fff" stroke-linecap="round" stroke-linejoin="round" stroke-width="2" d="M1241.9 1614.6v49.9" class="Vector"/>
				<path fill="#423E49" stroke="#000" stroke-linecap="round" stroke-linejoin="round" stroke-width="2" d="m1234.7 1593 7.2 21.6 7.2-21.6h-14.4Z" class="Vector"/>
				<path fill="#423E49" stroke="#000" stroke-linecap="round" stroke-linejoin="round" stroke-width="2" d="M1249.1 1461.3V1593c0 .3 0 .7-.3 1-.9 1.5-3.6 2.5-6.9 2.5-3.3 0-6-1.1-6.9-2.5-.2-.3-.3-.7-.3-1v-131.7c0-1.9 3.2-3.5 7.2-3.5s7.2 1.6 7.2 3.5Z" class="Vector"/>
				<g class="Group">
					<path fill="#423E49" stroke="#000" stroke-linecap="round" stroke-linejoin="round" stroke-width="2" d="M1259.8 1457.8c0 .5 0 1-.2 1.5-1.4 4.2-8.8 7.3-17.7 7.3-8.9 0-16.3-3.2-17.7-7.3-.2-.5-.2-1-.2-1.5 0-4.9 8-8.8 17.9-8.8 9.9 0 17.9 3.9 17.9 8.8Z" class="Vector"/>
					<path fill="#423E49" stroke="#000" stroke-linecap="round" stroke-linejoin="round" stroke-width="2" d="M1245.3 1432.4v25.3c0 .9-1.5 1.7-3.4 1.7s-3.4-.7-3.4-1.7v-25.3c0 .9 1.5 1.7 3.4 1.7s3.4-.7 3.4-1.7Z" class="Vector"/>
					<path fill="#423E49" stroke="#000" stroke-linecap="round" stroke-linejoin="round" stroke-width="2" d="M1245.3 1432.4c0 .9-1.5 1.7-3.4 1.7s-3.4-.7-3.4-1.7 1.5-1.7 3.4-1.7 3.4.7 3.4 1.7Z" class="Vector"/>
					<path fill="#423E49" stroke="#000" stroke-linecap="round" stroke-linejoin="round" stroke-width="2" d="M1252.6 1429.5c0 .5-.2 1-.4 1.5-1.3 2.2-5.4 3.8-10.3 3.8s-9-1.6-10.3-3.8c-.3-.5-.4-1-.4-1.5 0-2.9 4.8-5.3 10.7-5.3 5.9 0 10.7 2.4 10.7 5.3Z" class="Vector"/>
				</g>
			</g>
			<g class="needle">
				<path stroke="#fff" stroke-linecap="round" stroke-linejoin="round" stroke-width="2" d="M1300.2 1674v49.9" class="Vector"/>
				<path fill="#423E49" stroke="#000" stroke-linecap="round" stroke-linejoin="round" stroke-width="2" d="m1293 1652.4 7.2 21.6 7.1-21.6H1293Z" class="Vector"/>
				<path fill="#423E49" stroke="#000" stroke-linecap="round" stroke-linejoin="round" stroke-width="2" d="M1307.3 1520.7v131.7c0 .3 0 .7-.3 1-.9 1.5-3.6 2.5-6.9 2.5-3.3 0-6-1.1-6.9-2.5-.2-.3-.3-.7-.3-1v-131.7c0-1.9 3.2-3.5 7.2-3.5s7.2 1.6 7.2 3.5Z" class="Vector"/>
				<g class="Group">
					<path fill="#423E49" stroke="#000" stroke-linecap="round" stroke-linejoin="round" stroke-width="2" d="M1318.1 1517.2c0 .5 0 1-.2 1.5-1.4 4.2-8.8 7.3-17.7 7.3-8.9 0-16.3-3.2-17.7-7.3-.2-.5-.2-1-.2-1.5 0-4.9 8-8.8 17.9-8.8 9.9 0 17.9 3.9 17.9 8.8Z" class="Vector"/>
					<path fill="#423E49" stroke="#000" stroke-linecap="round" stroke-linejoin="round" stroke-width="2" d="M1303.6 1491.8v25.3c0 .9-1.5 1.7-3.4 1.7s-3.4-.7-3.4-1.7v-25.3c0 .9 1.5 1.7 3.4 1.7s3.4-.7 3.4-1.7Z" class="Vector"/>
					<path fill="#423E49" stroke="#000" stroke-linecap="round" stroke-linejoin="round" stroke-width="2" d="M1303.6 1491.8c0 .9-1.5 1.7-3.4 1.7s-3.4-.7-3.4-1.7 1.5-1.7 3.4-1.7 3.4.7 3.4 1.7Z" class="Vector"/>
					<path fill="#423E49" stroke="#000" stroke-linecap="round" stroke-linejoin="round" stroke-width="2" d="M1310.9 1488.9c0 .5-.2 1-.4 1.5-1.3 2.2-5.4 3.8-10.3 3.8s-9-1.6-10.3-3.8c-.3-.5-.4-1-.4-1.5 0-2.9 4.8-5.3 10.7-5.3 5.9 0 10.7 2.4 10.7 5.3Z" class="Vector"/>
				</g>
			</g>
			<g class="needle">
				<path stroke="#fff" stroke-linecap="round" stroke-linejoin="round" stroke-width="2" d="M1119.7 1888.1v50" class="Vector"/>
				<path fill="#423E49" stroke="#000" stroke-linecap="round" stroke-linejoin="round" stroke-width="2" d="m1112.5 1866.5 7.2 21.6 7.1-21.6h-14.3Z" class="Vector"/>
				<path fill="#423E49" stroke="#000" stroke-linecap="round" stroke-linejoin="round" stroke-width="2" d="M1126.8 1734.8v131.7c0 .3 0 .7-.3 1-.9 1.5-3.6 2.5-6.9 2.5-3.3 0-6-1.1-6.9-2.5-.2-.3-.3-.7-.3-1v-131.7c0-1.9 3.2-3.5 7.2-3.5s7.2 1.6 7.2 3.5Z" class="Vector"/>
				<g class="Group">
					<path fill="#423E49" stroke="#000" stroke-linecap="round" stroke-linejoin="round" stroke-width="2" d="M1137.6 1731.3c0 .5 0 1-.2 1.5-1.4 4.2-8.8 7.3-17.7 7.3-8.9 0-16.3-3.2-17.7-7.3-.2-.5-.2-1-.2-1.5 0-4.9 8-8.8 17.9-8.8 9.9 0 17.9 3.9 17.9 8.8Z" class="Vector"/>
					<path fill="#423E49" stroke="#000" stroke-linecap="round" stroke-linejoin="round" stroke-width="2" d="M1123.1 1706v25.3c0 .9-1.5 1.7-3.4 1.7s-3.4-.7-3.4-1.7V1706c0 .9 1.5 1.7 3.4 1.7s3.4-.7 3.4-1.7Z" class="Vector"/>
					<path fill="#423E49" stroke="#000" stroke-linecap="round" stroke-linejoin="round" stroke-width="2" d="M1123.1 1706c0 .9-1.5 1.7-3.4 1.7s-3.4-.7-3.4-1.7 1.5-1.7 3.4-1.7 3.4.7 3.4 1.7Z" class="Vector"/>
					<path fill="#423E49" stroke="#000" stroke-linecap="round" stroke-linejoin="round" stroke-width="2" d="M1130.4 1703c0 .5-.2 1-.4 1.5-1.3 2.2-5.4 3.8-10.3 3.8s-9-1.6-10.3-3.8c-.3-.5-.4-1-.4-1.5 0-2.9 4.8-5.3 10.7-5.3 5.9 0 10.7 2.4 10.7 5.3Z" class="Vector"/>
				</g>
			</g>
			<g class="needle">
				<path stroke="#fff" stroke-linecap="round" stroke-linejoin="round" stroke-width="2" d="M1249.1 1897.2v50" class="Vector"/>
				<path fill="#423E49" stroke="#000" stroke-linecap="round" stroke-linejoin="round" stroke-width="2" d="m1241.9 1875.6 7.2 21.6 7.1-21.6h-14.3Z" class="Vector"/>
				<path fill="#423E49" stroke="#000" stroke-linecap="round" stroke-linejoin="round" stroke-width="2" d="M1256.2 1743.9v131.7c0 .3 0 .7-.3 1-.9 1.5-3.6 2.5-6.9 2.5-3.3 0-6-1.1-6.9-2.5-.2-.3-.3-.7-.3-1v-131.7c0-1.9 3.2-3.5 7.2-3.5s7.2 1.6 7.2 3.5Z" class="Vector"/>
				<g class="Group">
					<path fill="#423E49" stroke="#000" stroke-linecap="round" stroke-linejoin="round" stroke-width="2" d="M1267 1740.4c0 .5 0 1-.2 1.5-1.4 4.2-8.8 7.3-17.7 7.3-8.9 0-16.3-3.2-17.7-7.3-.2-.5-.2-1-.2-1.5 0-4.9 8-8.8 17.9-8.8 9.9 0 17.9 3.9 17.9 8.8Z" class="Vector"/>
					<path fill="#423E49" stroke="#000" stroke-linecap="round" stroke-linejoin="round" stroke-width="2" d="M1252.5 1715v25.3c0 .9-1.5 1.7-3.4 1.7s-3.4-.7-3.4-1.7V1715c0 .9 1.5 1.7 3.4 1.7s3.4-.7 3.4-1.7Z" class="Vector"/>
					<path fill="#423E49" stroke="#000" stroke-linecap="round" stroke-linejoin="round" stroke-width="2" d="M1252.5 1715c0 .9-1.5 1.7-3.4 1.7s-3.4-.7-3.4-1.7 1.5-1.7 3.4-1.7 3.4.7 3.4 1.7Z" class="Vector"/>
					<path fill="#423E49" stroke="#000" stroke-linecap="round" stroke-linejoin="round" stroke-width="2" d="M1259.7 1712.1c0 .5-.2 1-.4 1.5-1.3 2.2-5.4 3.8-10.3 3.8s-9-1.6-10.3-3.8c-.3-.5-.4-1-.4-1.5 0-2.9 4.8-5.3 10.7-5.3 5.9 0 10.7 2.4 10.7 5.3Z" class="Vector"/>
				</g>
			</g>
			<g class="needle">
				<path stroke="#fff" stroke-linecap="round" stroke-linejoin="round" stroke-width="2" d="M1192.2 1451v49.9" class="Vector"/>
				<path fill="#423E49" stroke="#000" stroke-linecap="round" stroke-linejoin="round" stroke-width="2" d="m1185 1429.4 7.2 21.6 7.2-21.6H1185Z" class="Vector"/>
				<path fill="#423E49" stroke="#000" stroke-linecap="round" stroke-linejoin="round" stroke-width="2" d="M1199.4 1297.7v131.7c0 .3 0 .7-.3 1-.9 1.5-3.6 2.5-6.9 2.5-3.3 0-6-1.1-6.9-2.5-.2-.3-.3-.7-.3-1v-131.7c0-1.9 3.2-3.5 7.2-3.5s7.2 1.6 7.2 3.5Z" class="Vector"/>
				<g class="Group">
					<path fill="#423E49" stroke="#000" stroke-linecap="round" stroke-linejoin="round" stroke-width="2" d="M1210.1 1294.2c0 .5 0 1-.2 1.5-1.4 4.2-8.8 7.3-17.7 7.3-8.9 0-16.3-3.2-17.7-7.3-.2-.5-.2-1-.2-1.5 0-4.9 8-8.8 17.9-8.8 9.9 0 17.9 3.9 17.9 8.8Z" class="Vector"/>
					<path fill="#423E49" stroke="#000" stroke-linecap="round" stroke-linejoin="round" stroke-width="2" d="M1195.6 1268.8v25.3c0 .9-1.5 1.7-3.4 1.7s-3.4-.7-3.4-1.7v-25.3c0 .9 1.5 1.7 3.4 1.7s3.4-.7 3.4-1.7Z" class="Vector"/>
					<path fill="#423E49" stroke="#000" stroke-linecap="round" stroke-linejoin="round" stroke-width="2" d="M1195.6 1268.8c0 .9-1.5 1.7-3.4 1.7s-3.4-.7-3.4-1.7 1.5-1.7 3.4-1.7 3.4.7 3.4 1.7Z" class="Vector"/>
					<path fill="#423E49" stroke="#000" stroke-linecap="round" stroke-linejoin="round" stroke-width="2" d="M1202.9 1265.9c0 .5-.2 1-.4 1.5-1.3 2.2-5.4 3.8-10.3 3.8s-9-1.6-10.3-3.8c-.3-.5-.4-1-.4-1.5 0-2.9 4.8-5.3 10.7-5.3 5.9 0 10.7 2.4 10.7 5.3Z" class="Vector"/>
				</g>
			</g>
			<g class="needle">
				<path stroke="#fff" stroke-linecap="round" stroke-linejoin="round" stroke-width="2" d="M822.3 1919.6v50" class="Vector"/>
				<path fill="#423E49" stroke="#000" stroke-linecap="round" stroke-linejoin="round" stroke-width="2" d="m815.2 1898 7.1 21.6 7.2-21.6h-14.3Z" class="Vector"/>
				<path fill="#423E49" stroke="#000" stroke-linecap="round" stroke-linejoin="round" stroke-width="2" d="M829.5 1766.3V1898c0 .3 0 .7-.3 1-.9 1.5-3.6 2.5-6.9 2.5-3.3 0-6-1.1-6.9-2.5-.2-.3-.3-.7-.3-1v-131.7c0-1.9 3.2-3.5 7.2-3.5s7.2 1.6 7.2 3.5Z" class="Vector"/>
				<g class="Group">
					<path fill="#423E49" stroke="#000" stroke-linecap="round" stroke-linejoin="round" stroke-width="2" d="M840.3 1762.8c0 .5 0 1-.2 1.5-1.4 4.2-8.8 7.3-17.7 7.3-8.9 0-16.3-3.2-17.7-7.3-.2-.5-.2-1-.2-1.5 0-4.9 8-8.8 17.9-8.8 9.9 0 17.9 3.9 17.9 8.8Z" class="Vector"/>
					<path fill="#423E49" stroke="#000" stroke-linecap="round" stroke-linejoin="round" stroke-width="2" d="M825.7 1737.5v25.3c0 .9-1.5 1.7-3.4 1.7s-3.4-.7-3.4-1.7v-25.3c0 .9 1.5 1.7 3.4 1.7s3.4-.7 3.4-1.7Z" class="Vector"/>
					<path fill="#423E49" stroke="#000" stroke-linecap="round" stroke-linejoin="round" stroke-width="2" d="M825.7 1737.5c0 .9-1.5 1.7-3.4 1.7s-3.4-.7-3.4-1.7 1.5-1.7 3.4-1.7 3.4.7 3.4 1.7Z" class="Vector"/>
					<path fill="#423E49" stroke="#000" stroke-linecap="round" stroke-linejoin="round" stroke-width="2" d="M833 1734.5c0 .5-.2 1-.4 1.5-1.3 2.2-5.4 3.8-10.3 3.8s-9-1.6-10.3-3.8c-.3-.5-.4-1-.4-1.5 0-2.9 4.8-5.3 10.7-5.3 5.9 0 10.7 2.4 10.7 5.3Z" class="Vector"/>
				</g>
			</g>
		</g>
		<g class="HorizontalNeedles">
			<g class="needle">
				<path stroke="#fff" stroke-linecap="round" stroke-linejoin="round" stroke-width="2" d="m1344.7 3681.5-42.5 26.3" class="Vector"/>
				<g class="Group">
					<path fill="#423E49" stroke="#000" stroke-linecap="round" stroke-linejoin="round" stroke-width="2" d="M1507.2 3593.5c-.4.3-.9.4-1.5.4-2.5 0-6-2.6-8.6-6.7-2.6-4.1-3.4-8.4-2.2-10.7.3-.5.6-.9 1-1.2 2.5-1.5 7 1.3 10.1 6.3 3.1 5 3.6 10.3 1.2 11.9Z" class="Vector"/>
					<path fill="#423E49" stroke="#000" stroke-linecap="round" stroke-linejoin="round" stroke-width="2" d="m1501.4 3588.5-21.5 13.3c-.8.5-2.2-.4-3.2-2s-1.2-3.3-.4-3.8l21.5-13.3c.8-.5 2.2.4 3.2 2s1.2 3.3.4 3.8Z" class="Vector"/>
					<path fill="#423E49" stroke="#000" stroke-linecap="round" stroke-linejoin="round" stroke-width="2" d="M1487.5 3614.2c-.4.3-.9.4-1.4.6-4.3 1-10.9-3.6-15.5-11.2-4.7-7.6-5.9-15.5-3.1-18.9.3-.4.7-.7 1.1-1 4.1-2.6 11.7 2.2 16.9 10.6 5.2 8.4 6.1 17.3 2 19.9Z" class="Vector"/>
				</g>
				<path fill="#423E49" stroke="#000" stroke-linecap="round" stroke-linejoin="round" stroke-width="2" d="m1359.3 3664.1-14.6 17.4 22.2-5.3-7.6-12.1Z" class="Vector"/>
				<path fill="#423E49" stroke="#000" stroke-linecap="round" stroke-linejoin="round" stroke-width="2" d="m1478.8 3606.9-111.9 69.3c-.3.2-.6.3-1 .3-1.7 0-4.1-1.8-5.8-4.5-1.7-2.7-2.3-5.7-1.5-7.2.2-.3.4-.6.7-.8l111.9-69.3c1.7-1 4.7.9 6.8 4.2 2.1 3.4 2.4 6.9.8 7.9v.1Z" class="Vector"/>
			</g>
			<g class="needle">
				<path stroke="#fff" stroke-linecap="round" stroke-linejoin="round" stroke-width="2" d="m1476.3 3667.7-42.4 26.3" class="Vector"/>
				<g class="Group">
					<path fill="#423E49" stroke="#000" stroke-linecap="round" stroke-linejoin="round" stroke-width="2" d="M1638.8 3579.6c-.4.3-.9.4-1.5.4-2.5 0-6-2.6-8.6-6.7-2.6-4.1-3.4-8.4-2.2-10.7.3-.5.6-.9 1-1.2 2.5-1.5 7 1.3 10.1 6.3 3.1 5 3.6 10.3 1.2 11.9Z" class="Vector"/>
					<path fill="#423E49" stroke="#000" stroke-linecap="round" stroke-linejoin="round" stroke-width="2" d="m1633 3574.7-21.5 13.3c-.8.5-2.2-.4-3.2-2s-1.2-3.3-.4-3.8l21.5-13.3c.8-.5 2.2.4 3.2 2s1.2 3.3.4 3.8Z" class="Vector"/>
					<path fill="#423E49" stroke="#000" stroke-linecap="round" stroke-linejoin="round" stroke-width="2" d="M1619.1 3600.4c-.4.3-.9.4-1.4.6-4.3 1-10.9-3.6-15.5-11.2s-5.9-15.5-3.1-18.9c.3-.4.7-.7 1.1-1 4.1-2.6 11.7 2.2 16.9 10.6 5.2 8.4 6.1 17.3 2 19.9Z" class="Vector"/>
				</g>
				<path fill="#423E49" stroke="#000" stroke-linecap="round" stroke-linejoin="round" stroke-width="2" d="m1490.9 3650.2-14.6 17.5 22.2-5.3-7.6-12.2Z" class="Vector"/>
				<path fill="#423E49" stroke="#000" stroke-linecap="round" stroke-linejoin="round" stroke-width="2" d="m1610.4 3593.1-111.9 69.3c-.3.2-.6.3-1 .3-1.7 0-4.1-1.8-5.8-4.5-1.7-2.8-2.3-5.7-1.5-7.2.2-.3.4-.6.7-.8l111.9-69.3c1.7-1 4.7.9 6.8 4.2 2.1 3.3 2.4 6.9.8 7.9v.1Z" class="Vector"/>
			</g>
			<g class="needle">
				<path stroke="#fff" stroke-linecap="round" stroke-linejoin="round" stroke-width="2" d="m1405.3 3766.6-42.6 26" class="Vector"/>
				<g class="Group">
					<path fill="#423E49" stroke="#000" stroke-linecap="round" stroke-linejoin="round" stroke-width="2" d="M1568.3 3679.4c-.4.3-.9.4-1.5.4-2.5 0-6-2.6-8.6-6.8-2.5-4.1-3.3-8.5-2.1-10.7.3-.5.6-.9 1-1.1 2.5-1.5 7 1.3 10.1 6.4 3.1 5.1 3.6 10.3 1.1 11.9v-.1Z" class="Vector"/>
					<path fill="#423E49" stroke="#000" stroke-linecap="round" stroke-linejoin="round" stroke-width="2" d="m1562.5 3674.4-21.6 13.2c-.8.5-2.2-.4-3.2-2s-1.1-3.3-.3-3.8l21.6-13.2c.8-.5 2.2.4 3.2 2s1.1 3.3.3 3.8Z" class="Vector"/>
					<path fill="#423E49" stroke="#000" stroke-linecap="round" stroke-linejoin="round" stroke-width="2" d="M1548.4 3700c-.4.3-.9.4-1.4.6-4.3 1-10.8-3.7-15.5-11.2-4.6-7.6-5.8-15.5-3-18.9.3-.4.7-.7 1.1-1 4.1-2.5 11.7 2.3 16.9 10.7 5.2 8.4 6 17.3 1.8 19.9l.1-.1Z" class="Vector"/>
				</g>
				<path fill="#423E49" stroke="#000" stroke-linecap="round" stroke-linejoin="round" stroke-width="2" d="m1420 3749.2-14.7 17.4 22.2-5.2-7.5-12.2Z" class="Vector"/>
				<path fill="#423E49" stroke="#000" stroke-linecap="round" stroke-linejoin="round" stroke-width="2" d="m1539.8 3692.7-112.3 68.7c-.3.2-.6.3-1 .3-1.7 0-4-1.8-5.7-4.6-1.7-2.8-2.2-5.7-1.4-7.2.2-.3.4-.6.7-.8l112.3-68.7c1.7-1 4.7.9 6.7 4.3s2.4 6.9.7 7.9v.1Z" class="Vector"/>
			</g>
		</g>
		<g class="Calendar">
			<g class="days">
				<path fill="#F0D0D3" stroke="#000" stroke-linecap="round" stroke-linejoin="round" stroke-width="2" d="M677 2241.8v58.7l-43.2-24.8V2217l43.2 24.8Z" class="day"/>
				<path fill="#fff" stroke="#000" stroke-linecap="round" stroke-linejoin="round" stroke-width="2" d="M720.2 2266.5v58.8l-43.2-24.8v-58.7l43.2 24.7Z" class="day"/>
				<path fill="#F0B49D" stroke="#000" stroke-linecap="round" stroke-linejoin="round" stroke-width="2" d="M763.3 2291.3v58.7l-43.1-24.7v-58.8l43.1 24.8Z" class="day"/>
				<path fill="#fff" stroke="#000" stroke-linecap="round" stroke-linejoin="round" stroke-width="2" d="M849.6 2340.8v58.8l-43.1-24.8V2316l43.1 24.8Zm-43.1-24.8v58.8l-43.2-24.8v-58.7l43.2 24.7Z" class="day"/>
				<path fill="#F0B49D" stroke="#000" stroke-linecap="round" stroke-linejoin="round" stroke-width="2" d="M892.8 2365.6v58.7l-43.2-24.7v-58.8l43.2 24.8Z" class="day"/>
				<path fill="#F0D0D3" stroke="#000" stroke-linecap="round" stroke-linejoin="round" stroke-width="2" d="M935.9 2390.3v58.8l-43.1-24.8v-58.7l43.1 24.7Zm0-58.7v58.7l-43.1-24.7v-58.8l43.1 24.8Z" class="day"/>
				<path fill="#fff" stroke="#000" stroke-linecap="round" stroke-linejoin="round" stroke-width="2" d="M892.8 2306.8v58.8l-43.2-24.8v-58.7l43.2 24.7Z" class="day"/>
				<path fill="#fff" stroke="#000" stroke-linecap="round" stroke-linejoin="round" stroke-width="2" d="M849.6 2282.1v58.7l-43.1-24.8v-58.7l43.1 24.8Zm-43.1-24.8v58.7l-43.2-24.7v-58.8l43.2 24.8Zm-43.2-24.8v58.8l-43.1-24.8v-58.7l43.1 24.7Zm-43.1-83.5v58.8L677 2183v-58.7l43.2 24.7Z" class="day"/>
				<path fill="#F0B49D" stroke="#000" stroke-linecap="round" stroke-linejoin="round" stroke-width="2" d="M806.5 2198.5v58.8l-43.2-24.8v-58.7l43.2 24.7Z" class="day"/>
				<path fill="#fff" stroke="#000" stroke-linecap="round" stroke-linejoin="round" stroke-width="2" d="m720.2 2149 43.1 24.8v58.7l-43.1-24.7V2149Zm129.4 74.3v58.8l-43.1-24.8v-58.8l43.1 24.8Z" class="day"/>
				<path fill="#fff" stroke="#000" stroke-linecap="round" stroke-linejoin="round" stroke-width="2" d="M892.8 2248.1v58.7l-43.2-24.7v-58.8l43.2 24.8ZM763.3 2115v58.8l-43.1-24.8v-58.7l43.1 24.7Zm43.2 24.8v58.7l-43.2-24.7V2115l43.2 24.8Z" class="day"/>
				<path fill="#F0D0D3" stroke="#000" stroke-linecap="round" stroke-linejoin="round" stroke-width="2" d="M677 2183v58.8l-43.2-24.8v-58.8L677 2183Z" class="day"/>
				<path fill="#F0D0D3" stroke="#000" stroke-linecap="round" stroke-linejoin="round" stroke-width="2" d="M677 2124.3v58.7l-43.2-24.8v-58.7l43.2 24.8Z" class="day"/>
				<path fill="#F0D0D3" stroke="#000" stroke-linecap="round" stroke-linejoin="round" stroke-width="2" d="M677 2065.5v58.8l-43.2-24.8v-58.8l43.2 24.8Z" class="day"/>
				<path fill="#fff" stroke="#000" stroke-linecap="round" stroke-linejoin="round" stroke-width="2" d="M720.2 2207.8v58.7l-43.2-24.7V2183l43.2 24.8Z" class="day"/>
				<path fill="#F0B49D" stroke="#000" stroke-linecap="round" stroke-linejoin="round" stroke-width="2" d="M720.2 2090.3v58.7l-43.2-24.7v-58.8l43.2 24.8Zm129.4 74.3v58.7l-43.1-24.8v-58.7l43.1 24.8Z" class="day"/>
				<path fill="#fff" stroke="#000" stroke-linecap="round" stroke-linejoin="round" stroke-width="2" d="M892.8 2189.3v58.8l-43.2-24.8v-58.7l43.2 24.7Z" class="day"/>
				<path fill="#F0D0D3" stroke="#000" stroke-linecap="round" stroke-linejoin="round" stroke-width="2" d="M935.9 2272.8v58.8l-43.1-24.8v-58.7l43.1 24.7Zm0-58.7v58.7l-43.1-24.7v-58.8l43.1 24.8Z" class="day"/>
			</g>
			<g class="structure">
				<path fill="#4C5B8F" stroke="#000" stroke-linecap="round" stroke-linejoin="round" stroke-width="2" d="M936.299 2390.5v58.8l-.4-.2v-58.8l.4.2Z" class="Vector"/>
				<path fill="#4C5B8F" stroke="#000" stroke-linecap="round" stroke-linejoin="round" stroke-width="2" d="M936.299 2331.8v58.7l-.4-.2v-58.7l.4.2Z" class="Vector"/>
				<path fill="#4C5B8F" stroke="#000" stroke-linecap="round" stroke-linejoin="round" stroke-width="2" d="M936.299 2273v58.8l-.4-.2v-58.8l.4.2Z" class="Vector"/>
				<path fill="#4C5B8F" stroke="#000" stroke-linecap="round" stroke-linejoin="round" stroke-width="2" d="M936.299 2214.3v58.7l-.4-.2v-58.7l.4.2Z" class="Vector"/>
				<path fill="#F0B49D" stroke="#000" stroke-linecap="round" stroke-linejoin="round" stroke-width="2" d="m633.8 2012.8 43.2 24.8v27.9l-43.2-24.8v-27.9Zm302.5 173.5v28l-.4-.2-43.1-24.8v-27.9l43.1 24.7.4.2Z" class="Vector"/>
				<path fill="#4C5B8F" stroke="#000" stroke-linecap="round" stroke-linejoin="round" stroke-width="2" d="M944.4 2181.4v263l-8.1 4.9v-263l8.1-4.9Z" class="Vector"/>
				<path fill="#4C5B8F" stroke="#000" stroke-linecap="round" stroke-linejoin="round" stroke-width="2" d="M952.499 2176.5v263l-8.1 4.9v-263l8.1-4.9Zm8.101-4.9v263l-8.1 4.9v-263l8.1-4.9Z" class="Vector"/>
				<path fill="#8B7E9C" stroke="#000" stroke-linecap="round" stroke-linejoin="round" stroke-width="2" d="m944.4 2181.4-8.1 4.9-.4-.2-43.1-24.7-43.2-24.8-43.1-24.7-43.2-24.8-43.1-24.8-43.2-24.7-43.2-24.8 8.1-4.9L677 2028l43.2 24.8 43.1 24.7 43.2 24.8 43.1 24.8 43.2 24.7 43.1 24.8 8.5 4.8Z" class="Vector"/>
				<path fill="#8B7E9C" stroke="#000" stroke-linecap="round" stroke-linejoin="round" stroke-width="2" d="m952.499 2176.5-8.1 4.9-302.5-173.5 8.1-4.9 302.5 173.5Zm8.101-4.9-8.1 4.9L650 2003l8.1-4.9 302.5 173.5Z" class="Vector"/>
				<path fill="#8B7E9C" stroke="#000" stroke-linecap="round" stroke-linejoin="round" stroke-width="2" d="m968.7 2166.7-8.1 4.9-302.5-173.5 8.1-4.9 302.5 173.5Z" class="Vector"/>
				<path fill="#4C5C8F" stroke="#000" stroke-linecap="round" stroke-linejoin="round" stroke-width="2" d="M968.7 2166.7v262.9l-8.1 5v-263l8.1-4.9Z" class="Vector"/>
				<path fill="#B38084" stroke="#000" stroke-linecap="round" stroke-linejoin="round" stroke-width="2" d="M892.8 2161.4v27.9l-43.2-24.7-43.1-24.8-43.2-24.8-43.1-24.7-43.2-24.8v-27.9l43.2 24.7 43.1 24.8 43.2 24.8 43.1 24.7 43.2 24.8Z" class="Vector"/>
			</g>
		</g>
	</g>
</svg>