<svg xmlns="http://www.w3.org/2000/svg" width="2755" height="6852" fill="none" viewBox="0 0 2755 6852">
  <g class="world">
    <g class="mask">
      <g class="bottom-mask">
        <mask id="a" width="2641" height="781" x="0" y="5254" class="a" maskUnits="userSpaceOnUse" style="mask-type:luminance">
          <g class="clippath">
            <path fill="#fff" d="M683.1 5534.84v102.92l85.6 49.14v150.64h-38.21v.09c-.78.07-1.57.18-2.39.37-16.1 6.4-24.2 22.7-24.2 48.5v135.6l-20.8 12.04v.06H0v-780h768.7v84.04h-38.5v.11c-.69.08-1.38.18-2.1.34-16.1 6.4-24.2 22.7-24.2 48.5v135.6l-20.8 12.04v.01ZM2641 6034.2v-780h-654.3v84.04h38.5v.11c.69.08 1.38.18 2.1.34 16.1 6.4 24.2 22.7 24.2 48.5v135.6l20.8 12.04v102.92l-85.6 49.14v150.64h38.21v.09c.78.07 1.57.18 2.39.37 16.1 6.4 24.2 22.7 24.2 48.5v135.6l20.8 12.04v.06H2641v.01Z" class="Vector"/>
          </g>
        </mask>
        <g class="Group" mask="url(#a)">
          <path fill="#000" d="M2162.1 5254.2H2641v780.5h-478.9z" class="Rectangle 1"/>
          <path fill="#000" d="M0 5254.2h592.231v780.5H0z" class="Rectangle 2"/>
          <path fill="#4C5C8F" stroke="#000" stroke-linecap="round" stroke-linejoin="round" stroke-width="2" d="M1151.8 6162.1c0 92.7-77.1 154.2-77.1 154.2l-38.9-21.6s97.3-52.2 85.1-156.7c-14.8-126.9-149.9-158.9-228.5-199.5-117-60.4-32.1-197.4-230-193.6-63.4 1.2-141.8 8.7-223.9-75.8-58.4-60.1-149.8-37-246.4-36.1-5.4 0-10.4-.2-15.2-.8 75.7 3.7 47.4-76.2 95.4-107.9 29.9-19.8 57.4-11.3 57.4-11.3s8.1-58.3 60.5-73.5c52.4-15.2 84.7-3.8 133.1 14.2 48.4 18 50.5-19.9 105.1-3.5 45.6 13.7 53.9 67.2 128.2 68.3-37.8 1.5-83.4-8.2-136.3-18.1-103.8-19.6-176.3 96.5-137.5 149.9 47.3 65.1 85 58.3 219 61.9 134 3.6 134.3 99.1 166.8 157.3 32.6 58.4 95.4 59.1 156.2 94.8 94.3 55.4 126.6 94.1 126.7 197.6l.3.2Z" class="Vector"/>
          <path fill="#F0D0D3" stroke="#000" stroke-linecap="round" stroke-linejoin="round" stroke-width="2" d="M843.2 5473c-21 32.2-50.1 44.1-86.5 45.6-74.3-1.2-82.6-54.6-128.2-68.3-54.6-16.4-56.7 21.5-105.1 3.5-48.4-18-80.7-29.5-133.1-14.2-52.4 15.2-60.5 73.5-60.5 73.5s-27.4-8.5-57.4 11.3c-48 31.8-19.8 111.6-95.4 107.9-79.8-10-68.3-98.3-19.3-119.2 103.8-44.4 92.1-91.4 162.8-122.8 68.2-30.2 108.5 4.2 108.5 4.2s17-64.1 105.6-81.5c88.6-17.3 156.6 58.5 222.9 55.8 66.3-2.7 121.9 48.8 85.8 104.1l-.1.1Z" class="Vector"/>
          <path stroke="#000" stroke-linecap="round" stroke-linejoin="round" stroke-width="2" d="M329.7 5513.1s104.9 55.2 153.3 137.4m-247.3-61.1s113.9 6.3 189.8 68.3" class="Vector"/>
          <path stroke="#000" stroke-linecap="round" stroke-linejoin="round" stroke-width="2" d="M272.301 5524.4s0 57 45 80m89-168.9s-23.5 102.3 22.2 149" class="Vector"/>
          <path stroke="#000" stroke-linecap="round" stroke-linejoin="round" stroke-width="2" d="M446.601 5432.8s-40.1 26.3-46 71.8m156.9-46.8c-45.6 21-80.8 87.9-84.8 150.9" class="Vector"/>
          <path stroke="#000" stroke-linecap="round" stroke-linejoin="round" stroke-width="2" d="M509.501 5448.7s14.2 20 3.2 48.1m-392.1 62.7s51-20.1 128.2-6.5m180.2-158.5s-2.1 13.7-.4 38.3m-108.2-42.5s31.9 19.9 52.1 56.7m-145.6 24.5s58.1-7.2 105.9 28.8" class="Vector"/>
          <path stroke="#000" stroke-linecap="round" stroke-linejoin="round" stroke-width="2" d="M272.301 5423.6s4.1 38.7 36.1 62m178.3-44.7s35.4-93.6 140.6-116.8" class="Vector"/>
          <path stroke="#000" stroke-linecap="round" stroke-linejoin="round" stroke-width="2" d="M526.7 5314.8s12.9 45.4-19.5 90.1m163.5 73.9s64.7-28.5 176.5-12.5" class="Vector"/>
          <path stroke="#000" stroke-linecap="round" stroke-linejoin="round" stroke-width="2" d="M847.2 5413.7s-7.6 40.8-50.6 48m-671.9 138.5s6.9-47.3 59.9-51.9" class="Vector"/>
          <path fill="#1E2978" stroke="#000" stroke-linecap="round" stroke-linejoin="round" stroke-width="2" d="M1603.7 6162.1c0 92.7 77.1 154.2 77.1 154.2l38.9-21.6s-97.3-52.2-85.1-156.7c14.8-126.9 149.9-158.9 228.5-199.5 117-60.4 32.1-197.4 230-193.6 63.4 1.2 141.8 8.7 223.9-75.7 58.4-60.1 149.8-37 246.4-36.1 5.4 0 10.4-.2 15.2-.8-75.7 3.7-47.4-76.2-95.4-107.9-29.9-19.8-57.4-11.3-57.4-11.3s-8.1-58.3-60.5-73.5c-52.4-15.2-84.7-3.8-133.1 14.2-48.4 18-50.5-19.9-105.1-3.5-45.6 13.7-53.9 67.2-128.3 68.3 37.8 1.5 83.4-8.2 136.3-18.1 103.8-19.6 176.3 96.5 137.5 149.9-47.3 65.1-85 58.3-219 61.9-134 3.6-134.3 99.1-166.8 157.3-32.6 58.4-95.4 59.1-156.2 94.8-94.3 55.4-126.6 94.1-126.7 197.6h-.2v.1Z" class="Vector"/>
          <path fill="#F0D0D3" stroke="#000" stroke-linecap="round" stroke-linejoin="round" stroke-width="2" d="M1912.2 5473c21 32.2 50.1 44.1 86.5 45.6 74.3-1.2 82.6-54.6 128.3-68.3 54.6-16.4 56.7 21.5 105.1 3.5 48.4-18 80.7-29.5 133.1-14.2 52.4 15.2 60.5 73.5 60.5 73.5s27.4-8.5 57.4 11.3c48 31.8 19.8 111.6 95.4 107.9 79.8-10 68.3-98.3 19.3-119.2-103.8-44.4-92.1-91.4-162.8-122.8-68.2-30.2-108.5 4.2-108.5 4.2s-17-64.1-105.6-81.5c-88.6-17.3-156.6 58.5-222.9 55.8-66.3-2.7-121.9 48.7-85.8 104.1v.1Z" class="Vector"/>
          <path stroke="#000" stroke-linecap="round" stroke-linejoin="round" stroke-width="2" d="M2425.8 5513.1s-104.9 55.2-153.3 137.4m247.2-61.1s-113.9 6.3-189.8 68.3" class="Vector"/>
          <path stroke="#000" stroke-linecap="round" stroke-linejoin="round" stroke-width="2" d="M2483.1 5524.4s0 57-45 80m-89-168.9s23.5 102.3-22.2 149" class="Vector"/>
          <path stroke="#000" stroke-linecap="round" stroke-linejoin="round" stroke-width="2" d="M2308.9 5432.8s40.1 26.3 46 71.8m-156.9-46.8c45.6 21 80.8 87.9 84.8 150.9" class="Vector"/>
          <path stroke="#000" stroke-linecap="round" stroke-linejoin="round" stroke-width="2" d="M2245.9 5448.7s-14.2 20-3.2 48.1m392.2 62.7s-51-20.1-128.2-6.5m-180.2-158.5s2.1 13.7.4 38.3m108.1-42.5s-31.9 19.9-52.1 56.7m145.7 24.5s-58.1-7.2-105.9 28.8" class="Vector"/>
          <path stroke="#000" stroke-linecap="round" stroke-linejoin="round" stroke-width="2" d="M2483.1 5423.6s-4.1 38.7-36.1 62m-178.3-44.7s-35.4-93.6-140.6-116.8" class="Vector"/>
          <path stroke="#000" stroke-linecap="round" stroke-linejoin="round" stroke-width="2" d="M2228.8 5314.8s-12.9 45.4 19.5 90.1m-163.6 73.9s-64.7-28.5-176.5-12.5" class="Vector"/>
          <path stroke="#000" stroke-linecap="round" stroke-linejoin="round" stroke-width="2" d="M1908.3 5413.7s7.6 40.8 50.6 48m671.8 138.5s-6.9-47.3-59.9-51.9" class="Vector"/>
          <path fill="#8B7E9C" stroke="#000" stroke-linecap="round" stroke-linejoin="round" stroke-width="2" d="M1389 5787.8h-22.6v663.3h22.6v-663.3Z" class="Vector"/>
          <path fill="#fff" stroke="#000" stroke-linecap="round" stroke-linejoin="round" stroke-width="2" d="M1658.4 6131.7c-5.2-2.8-10.4-5.4-15.6-7.7-36.4-20.2-80.1-58.1-120.8-64.7-31-5-50.3 1.2-59.8 6-4.8 2.4-7.1 4.5-7.1 4.5s-4.7-5.1-13.2-11.3c-13.1-9.6-35.5-21.7-64.1-21.7-28.6 0-51 12.1-64.1 21.7-8.5 6.2-13.2 11.3-13.2 11.3s-2.3-2-7.1-4.5c-9.5-4.7-28.8-11-59.8-6-40.7 6.6-84.5 44.4-120.8 64.7-5.2 2.3-10.4 4.8-15.6 7.7-118.8 65.3-133.4-98.8-25-91.8 96 6.2 65.3-44.6 160.9-70.2 93.8-25.1 144.7 46.6 144.7 46.6s50.9-71.7 144.7-46.6c95.5 25.5 64.9 76.3 160.9 70.2 108.5-7 93.8 157.1-25 91.8Z" class="Vector"/>
          <path stroke="#000" stroke-linecap="round" stroke-linejoin="round" stroke-width="2" d="M1377.7 6016.3v20.4m-166.4-60s67.2 15.2 102.3 81.7" class="Vector"/>
          <path stroke="#000" stroke-linecap="round" stroke-linejoin="round" stroke-width="2" d="M1278.7 5964.6s-10.1 25.4 6.1 55m-212.7 20.3c31.6 2.3 85.2 16.3 129.7 29.8" class="Vector"/>
          <path stroke="#000" stroke-linecap="round" stroke-linejoin="round" stroke-width="2" d="M1001 6114.9s60.4-60.3 142.6-61.5m22.2-49s9.1 43.6 42.6 62.4m132.7-82.9s13.6 23 18.7 54.3m184.4-61.5s-67.2 15.2-102.3 81.7" class="Vector"/>
          <path stroke="#000" stroke-linecap="round" stroke-linejoin="round" stroke-width="2" d="M1476.7 5964.6s10.1 25.4-6.1 55m212.7 20.3c-31.6 2.3-85.2 16.3-129.7 29.8" class="Vector"/>
          <path stroke="#000" stroke-linecap="round" stroke-linejoin="round" stroke-width="2" d="M1754.5 6114.9s-60.4-60.3-142.6-61.5m-22.3-49s-9.1 43.6-42.6 62.4m-132.7-82.9s-13.6 23-18.7 54.3" class="Vector"/>
          <path fill="#4C5C8F" stroke="#000" stroke-linecap="round" stroke-linejoin="round" stroke-width="2" d="m1201.8 5240.2-106.1 60.9c-17.3-24.5-40-45.4-67.1-60.9l-98.1-57.4-158.5-91-84.9-48.7c-5.7-66.6-44.4-127.8-104-162l-75.7-43.4v-101.3l89.1 51.1 5.4 3.1 10.1 5.8v11.3l10.1 5.8v11.3l10.1 5.8v11.3l10.1 5.8v11.3l10.1 5.8v11.3l10.1 5.8v11.3l10.1 5.8v11.3l10.1 5.8v11.3l10.1 5.8v11.3L772 4990l247.6 142.1 15.5 8.9v11.3l10.1 5.8v11.3l10.1 5.8v11.3l10.1 5.8v11.3l10.1 5.8v11.3l10.1 5.8v11.3l10.1 5.8v11.3l10.1 5.8v11.3l10.1 5.8v11.3l85.7-49.2.2.3Z" class="Vector"/>
          <path fill="#8B7E9C" stroke="#000" stroke-linecap="round" stroke-linejoin="round" stroke-width="2" d="m939.9 5590.7-79.8 45.8-91.4-52.4-85.7-49.2 85.7-49.2 85.5 49v6.8l85.7 49.2Z" class="Vector"/>
          <path fill="#4C5C8F" stroke="#000" stroke-linecap="round" stroke-linejoin="round" stroke-width="2" d="M1377.7 6534.7v100.9l-519.899-296c-5.9-67.8-44.4-127.8-104-162l-160.5-94v-829.4h89.7v280.7l85.7 49.2 91.4 52.4v102.8l-91.4-52.4-85.7-49.2v396.5l101.6 58.3v11.3l10.1 5.8v11.3l10.1 5.8v11.3l10.1 5.8v11.3l10.1 5.8v11.3l10.1 5.8v11.3l10.1 5.8v11.3l10.1 5.8v11.3l10.1 5.8v11.3l512.099 293.9.2.2Z" class="Vector"/>
          <path fill="#8B7E9C" stroke="#000" stroke-linecap="round" stroke-linejoin="round" stroke-width="2" d="m870.4 6043.3-85.8 49.2-101.6-58.3 85.7-49.2 101.7 58.3Z" class="Vector"/>
          <path fill="#8B7E9C" d="m960.1 5545.1-85.7-49.1 10.1-5.9 85.8 49.2" class="Vector"/>
          <path stroke="#000" stroke-linecap="round" stroke-linejoin="round" stroke-width="2" d="m960.1 5545.1-85.7-49.1 10.1-5.9 85.8 49.2" class="Vector"/>
          <path fill="#4C5C8F" d="m970.3 5539.3-85.8-49.2v-11.3l85.8 49.2" class="Vector"/>
          <path stroke="#000" stroke-linecap="round" stroke-linejoin="round" stroke-width="2" d="m970.3 5539.3-85.8-49.2v-11.3l85.8 49.2" class="Vector"/>
          <path fill="#8B7E9C" d="m950.001 5562.3-85.7-49.2 10.1-5.8 85.7 49.2" class="Vector"/>
          <path stroke="#000" stroke-linecap="round" stroke-linejoin="round" stroke-width="2" d="m950.001 5562.3-85.7-49.2 10.1-5.8 85.7 49.2" class="Vector"/>
          <path fill="#4C5C8F" d="m960.1 5556.5-85.7-49.2V5496l85.7 49.1" class="Vector"/>
          <path stroke="#000" stroke-linecap="round" stroke-linejoin="round" stroke-width="2" d="m960.1 5556.5-85.7-49.2V5496l85.7 49.1" class="Vector"/>
          <path fill="#8B7E9C" d="m939.9 5579.4-85.7-49.2 10.1-5.8 85.7 49.2" class="Vector"/>
          <path stroke="#000" stroke-linecap="round" stroke-linejoin="round" stroke-width="2" d="m939.9 5579.4-85.7-49.2 10.1-5.8 85.7 49.2" class="Vector"/>
          <path fill="#4C5C8F" d="m950.001 5573.6-85.7-49.2v-11.3l85.7 49.2" class="Vector"/>
          <path stroke="#000" stroke-linecap="round" stroke-linejoin="round" stroke-width="2" d="m950.001 5573.6-85.7-49.2v-11.3l85.7 49.2" class="Vector"/>
          <path fill="#4C5C8F" stroke="#000" stroke-linecap="round" stroke-linejoin="round" stroke-width="2" d="M939.9 5579.4v11.3l-85.7-49.2v-11.3l85.7 49.2Z" class="Vector"/>
          <path fill="#8B7E9C" d="m970.3 5528-85.8-49.2 10.1-5.8 85.8 49.2" class="Vector"/>
          <path stroke="#000" stroke-linecap="round" stroke-linejoin="round" stroke-width="2" d="m970.3 5528-85.8-49.2 10.1-5.8 85.8 49.2" class="Vector"/>
          <path fill="#4C5C8F" d="m980.401 5522.2-85.8-49.2v-11.3l85.8 49.2" class="Vector"/>
          <path stroke="#000" stroke-linecap="round" stroke-linejoin="round" stroke-width="2" d="m980.401 5522.2-85.8-49.2v-11.3l85.8 49.2" class="Vector"/>
          <path fill="#8B7E9C" d="m980.401 5510.9-85.8-49.2 10.2-5.8 85.7 49.2" class="Vector"/>
          <path stroke="#000" stroke-linecap="round" stroke-linejoin="round" stroke-width="2" d="m980.401 5510.9-85.8-49.2 10.2-5.8 85.7 49.2" class="Vector"/>
          <path fill="#4C5C8F" d="m990.501 5505.1-85.7-49.2v-11.3l85.7 49.2" class="Vector"/>
          <path stroke="#000" stroke-linecap="round" stroke-linejoin="round" stroke-width="2" d="m990.501 5505.1-85.7-49.2v-11.3l85.7 49.2" class="Vector"/>
          <path fill="#8B7E9C" d="m990.501 5493.8-85.7-49.2 10.1-5.8 85.699 49.2" class="Vector"/>
          <path stroke="#000" stroke-linecap="round" stroke-linejoin="round" stroke-width="2" d="m990.501 5493.8-85.7-49.2 10.1-5.8 85.699 49.2" class="Vector"/>
          <path fill="#4C5C8F" d="m1000.6 5488-85.7-49.2v-11.3l85.7 49.2" class="Vector"/>
          <path stroke="#000" stroke-linecap="round" stroke-linejoin="round" stroke-width="2" d="m1000.6 5488-85.7-49.2v-11.3l85.7 49.2" class="Vector"/>
          <path fill="#8B7E9C" d="m1000.6 5476.7-85.7-49.2 10.1-5.8 85.7 49.2" class="Vector"/>
          <path stroke="#000" stroke-linecap="round" stroke-linejoin="round" stroke-width="2" d="m1000.6 5476.7-85.7-49.2 10.1-5.8 85.7 49.2" class="Vector"/>
          <path fill="#4C5C8F" d="m1010.7 5470.9-85.7-49.2v-11.3l85.7 49.2" class="Vector"/>
          <path stroke="#000" stroke-linecap="round" stroke-linejoin="round" stroke-width="2" d="m1010.7 5470.9-85.7-49.2v-11.3l85.7 49.2" class="Vector"/>
          <path fill="#8B7E9C" d="m1010.7 5459.6-85.7-49.2 10.1-5.8 85.7 49.2" class="Vector"/>
          <path stroke="#000" stroke-linecap="round" stroke-linejoin="round" stroke-width="2" d="m1010.7 5459.6-85.7-49.2 10.1-5.8 85.7 49.2" class="Vector"/>
          <path fill="#4C5C8F" stroke="#000" stroke-linecap="round" stroke-linejoin="round" stroke-width="2" d="M1020.8 5442.5v11.3l-85.699-49.2v-11.3l85.699 49.2Z" class="Vector"/>
          <path fill="#1E2978" stroke="#000" stroke-linecap="round" stroke-linejoin="round" stroke-width="2" d="M1287.6 5289.4v100l-235.9 138.1c-59.6 34.2-98.2 94.2-104 162l-87.5 49.8v-102.8l79.8-45.8v-11.3l10.1-5.8v-11.3l10.1-5.8v-11.3l10.1-5.8v-11.3l10.1-5.8V5511l10.1-5.8v-11.3l10.1-5.8v-11.3l10.1-5.8v-11.3l10.1-5.8v-11.3l108.6-62.4 158.1-90.7h.1v-.1Zm-518.9-35.2v231.5l-85.7 49.2v-280.7h85.7Zm0 432.7V5985l-85.7 49.2v-396.5l85.7 49.2Z" class="Vector"/>
          <path fill="#8B7E9C" stroke="#000" stroke-linecap="round" stroke-linejoin="round" stroke-width="2" d="m1191.7 5211.7-85.7 49.2-10.1-5.8 85.7-49.2 10.1 5.8Z" class="Vector"/>
          <path fill="#4C5C8F" stroke="#000" stroke-linecap="round" stroke-linejoin="round" stroke-width="2" d="M1181.6 5194.6v11.3l-85.7 49.2v-11.3l85.7-49.2Z" class="Vector"/>
          <path fill="#8B7E9C" stroke="#000" stroke-linecap="round" stroke-linejoin="round" stroke-width="2" d="m1201.8 5228.9-85.7 49.2-10.1-5.9 85.7-49.1 10.1 5.8Z" class="Vector"/>
          <path fill="#4C5C8F" stroke="#000" stroke-linecap="round" stroke-linejoin="round" stroke-width="2" d="M1191.7 5211.7v11.4l-85.7 49.1v-11.3l85.7-49.2Zm10.1 17.2v11.3l-85.7 49.2v-11.3l85.7-49.2Z" class="Vector"/>
          <path fill="#8B7E9C" stroke="#000" stroke-linecap="round" stroke-linejoin="round" stroke-width="2" d="m1287.6 5289.4-158.1 90.7-108.7 62.4-85.699-49.2 160.599-92.2 106.1-60.9 85.8 49.2Z" class="Vector"/>
          <path stroke="#000" stroke-linecap="round" stroke-linejoin="round" stroke-width="2" d="m1538.5 5339.8-8.4 4.8" class="Vector"/>
          <path fill="#8B7E9C" stroke="#000" stroke-linecap="round" stroke-linejoin="round" stroke-width="2" d="m1577.6 5385.2-10.1 5.8-85.7-49.2 10.1-5.8 85.7 49.2Z" class="Vector"/>
          <path fill="#4C5C8F" stroke="#000" stroke-linecap="round" stroke-linejoin="round" stroke-width="2" d="M1577.6 5373.9v11.3l-85.7-49.2v-11.3l85.7 49.2Z" class="Vector"/>
          <path fill="#8B7E9C" stroke="#000" stroke-linecap="round" stroke-linejoin="round" stroke-width="2" d="m1567.5 5402.3-10.1 5.8-85.8-49.2 10.2-5.8 85.7 49.2Z" class="Vector"/>
          <path fill="#000" d="M1471.6 5359.9c.55 0 1-.45 1-1s-.45-1-1-1-1 .45-1 1 .45 1 1 1Z" class="Vector"/>
          <path fill="#4C5C8F" stroke="#000" stroke-linecap="round" stroke-linejoin="round" stroke-width="2" d="M1567.5 5391v11.3l-85.7-49.2v-11.3l85.7 49.2Z" class="Vector"/>
          <path fill="#8B7E9C" stroke="#000" stroke-linecap="round" stroke-linejoin="round" stroke-width="2" d="m1557.4 5419.4-10.1 5.8-85.8-49.1 10.1-5.9 85.8 49.2Z" class="Vector"/>
          <path fill="#4C5C8F" stroke="#000" stroke-linecap="round" stroke-linejoin="round" stroke-width="2" d="m1557.4 5419.4-85.8-49.2v-11.3l85.8 49.2v11.3Z" class="Vector"/>
          <path stroke="#000" stroke-linecap="round" stroke-linejoin="round" stroke-width="2" d="m1557.4 5408.1-85.8-49.2" class="Vector"/>
          <path fill="#4C5C8F" stroke="#000" stroke-linecap="round" stroke-linejoin="round" stroke-width="2" d="M1547.3 5425.2v11.3l-85.8-49.1v-11.3l85.8 49.1Z" class="Vector"/>
          <path fill="#8B7E9C" stroke="#000" stroke-linecap="round" stroke-linejoin="round" stroke-width="2" d="M1547.3 5436.5v.1l-85.8-49.2 85.8 49.1Zm40.4-68.4-10.1 5.8-85.7-49.2 10.1-5.8 36.5 20.9 49.2 28.3Z" class="Vector"/>
          <path fill="#4C5C8F" stroke="#000" stroke-linecap="round" stroke-linejoin="round" stroke-width="2" d="M1587.7 5356.8v11.3l-49.2-28.3-36.5-20.9v-11.3l46.3 26.6 24.4 13.9 15 8.7Z" class="Vector"/>
          <path fill="#8B7E9C" stroke="#000" stroke-linecap="round" stroke-linejoin="round" stroke-width="2" d="m1587.7 5356.8-15-8.7-24.4-13.9-46.3-26.6 10.1-5.8 46.3 26.6 39.4 22.6-10.1 5.8Z" class="Vector"/>
          <path fill="#4C5C8F" stroke="#000" stroke-linecap="round" stroke-linejoin="round" stroke-width="2" d="M1597.8 5339.7v11.3l-39.4-22.6-46.3-26.6v-11.3l56.2 32.2 29.5 17Z" class="Vector"/>
          <path fill="#8B7E9C" stroke="#000" stroke-linecap="round" stroke-linejoin="round" stroke-width="2" d="m1608 5333.9-10.2 5.8-29.5-17-56.2-32.2 10.1-5.8 56.2 32.2 29.6 17Z" class="Vector"/>
          <path fill="#4C5C8F" stroke="#000" stroke-linecap="round" stroke-linejoin="round" stroke-width="2" d="M1608 5322.6v11.3l-29.6-17-56.2-32.2v-11.3l66 37.8 19.8 11.4Z" class="Vector"/>
          <path fill="#8B7E9C" stroke="#000" stroke-linecap="round" stroke-linejoin="round" stroke-width="2" d="m1618.1 5316.7-10.1 5.9-19.8-11.4-66-37.8 10.2-5.8 66 37.8 19.7 11.3Z" class="Vector"/>
          <path fill="#4C5C8F" stroke="#000" stroke-linecap="round" stroke-linejoin="round" stroke-width="2" d="M1618.1 5305.4v11.3l-19.7-11.3-66-37.8v-11.4l75.8 43.6 9.9 5.6Z" class="Vector"/>
          <path fill="#8B7E9C" stroke="#000" stroke-linecap="round" stroke-linejoin="round" stroke-width="2" d="m1628.2 5299.6-10.1 5.8-9.9-5.6-75.8-43.6 10.1-5.8 75.8 43.6 9.9 5.6Z" class="Vector"/>
          <path fill="#4C5C8F" stroke="#000" stroke-linecap="round" stroke-linejoin="round" stroke-width="2" d="M1628.2 5288.3v11.3l-9.9-5.6-75.8-43.6v-11.3l85.7 49.2Z" class="Vector"/>
          <path stroke="#000" stroke-linecap="round" stroke-linejoin="round" stroke-width="2" d="m1898.2 5133.4-270 154.9" class="Vector"/>
          <path fill="#8B7E9C" stroke="#000" stroke-linecap="round" stroke-linejoin="round" stroke-width="2" d="m2155 4986-526.8 302.3-85.7-49.2 9.7-5.6.4-.2 170.3-97.7 228.5-131.1 32.1-18.5 85.8-49.2 85.7 49.2Z" class="Vector"/>
          <path fill="#1E2978" stroke="#000" stroke-linecap="round" stroke-linejoin="round" stroke-width="2" d="M2155 4986v102.4l-256.8 147.8-254.6 146.1c-29.3 16.8-51.6 42.5-64.3 72.6l-32.1-18.4v-11.3l10.1-5.8v-11.3l10.1-5.8V5391l10.1-5.8v-11.3l10.1-5.8v-11.3l10.1-5.8v-11.3l10.1-5.8v-11.3l10.1-5.8v-11.3l10.1-5.8v-11.3l526.8-302.3h.2v-.1Z" class="Vector"/>
          <path stroke="#000" stroke-linecap="round" stroke-linejoin="round" stroke-width="2" d="m1898.2 5133.4-270 154.9" class="Vector"/>
          <path fill="#8B7E9C" stroke="#000" stroke-linecap="round" stroke-linejoin="round" stroke-width="2" d="m2072.5 5534.9-85.8 49.2-91.3 52.4-85.6 49.1-434-249 85.7-49.2 85.8 49.2 32.1 18.4 230.4 132.2 9.7-5.6 81.8-46.9 85.4-49 85.8 49.2Z" class="Vector"/>
          <path fill="#4C5C8F" stroke="#000" stroke-linecap="round" stroke-linejoin="round" stroke-width="2" d="M1809.8 5685.6v102.9l-434-249.1v-102.8l434 249Z" class="Vector"/>
          <path fill="#1E2978" stroke="#000" stroke-linecap="round" stroke-linejoin="round" stroke-width="2" d="M2162.1 5254.2v829.4l-160.5 94c-59.6 34.2-98.2 94.2-104 162l-519.9 296v-100.9l512.1-293.9v-11.3l10.1-5.8v-11.3l10.1-5.8v-11.3l10.1-5.8v-11.3l10.1-5.8v-11.3l10.1-5.8V6144l10.1-5.8v-11.3l10.1-5.8v-11.3l10.1-5.8v-11.3l101.6-58.3v-396.5l-85.7 49.2-176.9 101.5v-102.8l85.6-49.1 91.4-52.4 85.7-49.2v-280.7h89.7v-.2h.1Z" class="Vector"/>
          <path fill="#8B7E9C" stroke="#000" stroke-linecap="round" stroke-linejoin="round" stroke-width="2" d="m2072.5 6034.2-101.7 58.3-85.7-49.2 101.6-58.3 85.8 49.2Z" class="Vector"/>
          <path fill="#4C5C8F" stroke="#000" stroke-linecap="round" stroke-linejoin="round" stroke-width="2" d="M2072.5 5637.7v396.5l-85.8-49.2v-298.1l85.8-49.2Zm0-383.5v280.7l-85.8-49.2v-231.5h85.8Z" class="Vector"/>
          <path fill="#000" stroke="#000" stroke-linecap="round" stroke-linejoin="round" stroke-width="2" d="M754.301 5361.6v132.3l-5 2.9-45.4 26-5.1 2.9v-138.6c0-27.4 9.1-46.1 27.7-53.3 17.5-4.3 27.7 12.4 27.7 27.7l.1.1Z" class="Vector"/>
          <path fill="#1E2978" stroke="#000" stroke-linecap="round" stroke-linejoin="round" stroke-width="2" d="M746.901 5333.3c-6.1-4.8-13.6-6.3-21.5-4.3l-.6.2c-25.6 9.8-31 36.9-31 58v141.5l5-2.9 5.1-2.9v-135.7c0-25.8 8.1-42.1 24.2-48.5 4.8-1.1 9-.2 12.6 2.5 5.2 4.1 8.6 12.1 8.6 20.4v135.2l5-2.9 5-2.9v-129.4c0-11.4-4.8-22.3-12.4-28.3Z" class="Vector"/>
          <path stroke="#000" stroke-linecap="round" stroke-linejoin="round" stroke-width="2" d="m770.2 5484.8-10.8 6.2m-65.6 37.7-10.8 6.2" class="Vector"/>
          <path fill="#000" stroke="#000" stroke-linecap="round" stroke-linejoin="round" stroke-width="2" d="M2001.1 5361.6v132.3l5 2.9 45.4 26 5.1 2.9v-138.6c0-27.4-9.1-46.1-27.7-53.3-17.5-4.3-27.7 12.4-27.7 27.7h-.1v.1Z" class="Vector"/>
          <path fill="#4C5C8F" stroke="#000" stroke-linecap="round" stroke-linejoin="round" stroke-width="2" d="M1996.1 5361.6V5491l5 2.9 5 2.9v-135.2c0-8.3 3.4-16.3 8.6-20.4 3.6-2.8 7.8-3.6 12.6-2.5 16.1 6.3 24.2 22.6 24.2 48.5v135.7l5.1 2.9 5 2.9v-141.5c0-21.1-5.4-48.2-31-58l-.6-.2c-8-2-15.4-.5-21.5 4.3-7.7 6-12.4 16.9-12.4 28.3Z" class="Vector"/>
          <path stroke="#000" stroke-linecap="round" stroke-linejoin="round" stroke-width="2" d="m1996.1 5491-10.9-6.2m87.3 50.1-10.9-6.2" class="Vector"/>
          <path fill="#000" stroke="#000" stroke-linecap="round" stroke-linejoin="round" stroke-width="2" d="M754.301 5860.9v132.3l-5 2.9-45.4 26-5.1 2.9v-138.6c0-27.4 9.1-46.1 27.7-53.3 17.5-4.3 27.7 12.4 27.7 27.7l.1.1Z" class="Vector"/>
          <path fill="#1E2978" stroke="#000" stroke-linecap="round" stroke-linejoin="round" stroke-width="2" d="M746.901 5832.6c-6.1-4.8-13.6-6.3-21.5-4.3l-.6.2c-25.6 9.8-31 36.9-31 58V6028l5-2.9 5.1-2.9v-135.7c0-25.8 8.1-42.1 24.2-48.5 4.8-1.1 9-.2 12.6 2.5 5.2 4.1 8.6 12.1 8.6 20.4v135.2l5-2.9 5-2.9v-129.4c0-11.4-4.8-22.3-12.4-28.3Z" class="Vector"/>
          <path stroke="#000" stroke-linecap="round" stroke-linejoin="round" stroke-width="2" d="m770.2 5984.1-10.8 6.3m-65.6 37.6-10.8 6.2" class="Vector"/>
          <path fill="#000" stroke="#000" stroke-linecap="round" stroke-linejoin="round" stroke-width="2" d="M2001.1 5860.9v132.3l5 2.9 45.4 26 5.1 2.9v-138.6c0-27.4-9.1-46.1-27.7-53.3-17.5-4.3-27.7 12.4-27.7 27.7h-.1v.1Z" class="Vector"/>
          <path fill="#4C5C8F" stroke="#000" stroke-linecap="round" stroke-linejoin="round" stroke-width="2" d="M1996.1 5860.9v129.4l5 2.9 5 2.9v-135.2c0-8.3 3.4-16.3 8.6-20.4 3.6-2.8 7.8-3.6 12.6-2.5 16.1 6.3 24.2 22.6 24.2 48.5v135.7l5.1 2.9 5 2.9v-141.5c0-21.1-5.4-48.2-31-58l-.6-.2c-8-2-15.4-.5-21.5 4.3-7.7 6-12.4 16.9-12.4 28.3Z" class="Vector"/>
          <path stroke="#000" stroke-linecap="round" stroke-linejoin="round" stroke-width="2" d="m1996.1 5990.4-10.9-6.3m87.3 50.1-10.9-6.2" class="Vector"/>
          <path fill="#4C5C8F" stroke="#000" stroke-linecap="round" stroke-linejoin="round" stroke-width="2" d="M593.3 5786.7v28.8c-205.4 29.2-212.2 155.4-178.2 196.3 5.5 6.6 10 13.4 13.4 20.1-30.5-41.6-87.2-2.9-78-31.1 9.3-28.5.2-38-19.6-60.9-36.6-42.4 2.6-81.7 2.6-81.7-45.3-31.4-38.4-109.6 14.8-130.3 59.3-23 65.3-55.6 56.5-92.3 8.2 26.2-.9 81.6 12.6 109.6 25.4 52.9 98.7 71.4 176 41.4l-.1.1Z" class="Vector"/>
          <path fill="#F0D0D3" stroke="#000" stroke-linecap="round" stroke-linejoin="round" stroke-width="2" d="M366.3 6127.5c-63.4-8.3-45.4-68.4-85.3-80.5-39.9-12.2-71-41.9-65.6-76.4 5.4-34.5-30.4-71-27.7-104.1 1.3-15.4 10-21.9 18.9-21.8 10.2.2 20.6 9 20.3 23.1-.7 26.4 8.8 56.8 23.7 44.6 12.4-10.1 17.1-37.8-5.8-70-4.6-6.5-10.3-13.2-17.3-19.9-41.7-40.3-32.1-99.1 13.1-119.6 45.1-20.4 39.8-127.4 117-113.5 28.1 5 39.9 23 47.2 46.2 8.8 36.7 2.8 69.2-56.5 92.3-53.2 20.7-60.1 98.9-14.8 130.3 0 0-39.1 39.3-2.6 81.7 19.8 22.9 28.8 32.4 19.6 60.9-9.2 28.2 47.5-10.5 78 31.1 26.6 52-6 102.9-62.2 95.6Z" class="Vector"/>
          <path stroke="#000" stroke-linecap="round" stroke-linejoin="round" stroke-width="2" d="m429.4 6033.1-.9-1.2" class="Vector"/>
          <path fill="#4C5C8F" stroke="#000" stroke-linecap="round" stroke-linejoin="round" stroke-width="2" d="M250.601 5912.5c-14.9 12.2-24.3-18.2-23.7-44.6.4-14.1-10.1-23-20.3-23.1l38.2-2.3c22.9 32.3 18.1 59.9 5.8 70Z" class="Vector"/>
          <path fill="#000" d="M206.7 5845.7c.552 0 1-.45 1-1s-.448-1-1-1-1 .45-1 1 .448 1 1 1Z" class="Vector"/>
          <path stroke="#000" stroke-linecap="round" stroke-linejoin="round" stroke-width="2" d="M248.9 5913.7s43.2-22.6 71.3-34.9m13.3-20.6s77.1 16.2 169.9-19.6" class="Vector"/>
          <path stroke="#000" stroke-linecap="round" stroke-linejoin="round" stroke-width="2" d="M330.9 5939.9s35.8-69.4 100.7-82.2m-98.1-121.8s65.4 89.6 213.7 63.2" class="Vector"/>
          <path stroke="#000" stroke-linecap="round" stroke-linejoin="round" stroke-width="2" d="M307.6 5823s26.7-46 100.5-34.7m-45.7-66.5s-7.6 31.7 9.5 48M354 5984.1c0-47.1 8.1-80.1 24.1-100.6m-171.4-147.6s26.8 26.6 98.9 43.5" class="Vector"/>
          <path stroke="#000" stroke-linecap="round" stroke-linejoin="round" stroke-width="2" d="M212.601 5804s16-31.4 59-34.3m-2.4-99s1.4 45.2 51 77.8m46.1-156.9s-46 50.9-18 136.3" class="Vector"/>
          <path stroke="#000" stroke-linecap="round" stroke-linejoin="round" stroke-width="2" d="M393.2 5610.9s-47.4 11.2-53.5 52m-149.2 225.2 37.2-4.6m21.2 148.4s3.9-46.9 71.3-108.5" class="Vector"/>
          <path stroke="#000" stroke-linecap="round" stroke-linejoin="round" stroke-width="2" d="M214.9 5980.6s28.4 12.1 77.8-29.1m49.6 1.9s-36.3 68.7-22.1 145.9m52.1-87.8s2.1 74.4 36.8 108.7" class="Vector"/>
          <path fill="#F0D0D3" stroke="#000" stroke-linecap="round" stroke-linejoin="round" stroke-width="2" d="M793.7 5130.9c-52 14.2-28.5 51.3-79 71.2-50.5 19.9-54.8-18.5-22.1-24.9 32.8-6.4 17.8-42.7-9.4-33.5-27.2 9.3-34.7 21.4-69.6 14.9-34.9-6.4-44.6 24.2-10 21.4 34.6-2.8 41.3 32.8-4.3 27.8-24.7-2.7-48.8 18.4-72.7 36.3-2.8 1.8-5.4 3.7-7.5 5.5-17.7 12.6-35.4 21.9-53.2 17-45.9-12.7-28.1-80.3 22.4-97.8 0 0-13.2-33.9 28-51.1 35.1-14.6 17.7-41.1 57.4-59.7 41.1-19.3 68.6 10.5 68.6 10.5s12.6-31.4 59.9-23.4c34.9 5.9 28.6 26.2 76.4 27.9 47.8 1.7 67.1 43.8 15.1 58.1v-.2Z" class="Vector"/>
          <path fill="#4C5C8F" stroke="#000" stroke-linecap="round" stroke-linejoin="round" stroke-width="2" d="M679.9 5254.1h-18c-16-56.5-100.1-32.8-135.2-10 23.9-17.9 48-39 72.7-36.3 45.6 5 38.9-30.6 4.3-27.8-34.6 2.8-24.9-27.8 10-21.4 34.9 6.4 42.4-5.7 69.6-14.9 27.2-9.3 42.2 27 9.4 33.5-32.7 6.4-28.5 44.8 22.1 24.9C674.2 5222 680 5254 680 5254l-.1.1Z" class="Vector"/>
          <path stroke="#000" stroke-linecap="round" stroke-linejoin="round" stroke-width="2" d="M671.9 5193.1s-3.2 22.9-2 61m-42.2-67.3c13.5 14.8 24.2 25.5 34.1 67.3m-82.7-198.5s-17.2 14.4-10.4 43.6m-80.4 69.5s36.8-14 94.7-1.5m-135.1 88.7s20.9-39.8 121.6-41.4" class="Vector"/>
          <path fill="#D6A3B0" stroke="#000" stroke-linecap="round" stroke-linejoin="round" stroke-width="2" d="M2015.1 5130.6c52 14.2 28.5 51.3 79 71.2 50.5 19.9 54.8-18.5 22.1-24.9-32.8-6.4-17.8-42.7 9.4-33.5 27.2 9.3 34.7 21.4 69.6 14.9 34.9-6.4 44.6 24.2 10 21.4-34.6-2.8-41.3 32.8 4.3 27.8 24.7-2.7 48.8 18.4 72.7 36.3 2.8 1.8 5.4 3.7 7.5 5.5 17.7 12.6 35.4 21.9 53.2 17 45.9-12.7 28.1-80.3-22.4-97.8 0 0 13.2-33.9-28-51.1-35.1-14.6-17.7-41.1-57.4-59.7-41.1-19.3-68.6 10.5-68.6 10.5s-12.6-31.4-59.9-23.4c-34.9 5.9-28.6 26.2-76.4 27.9-47.8 1.7-67.1 43.8-15.1 58.1v-.2Z" class="Vector"/>
          <path fill="#1E2978" stroke="#000" stroke-linecap="round" stroke-linejoin="round" stroke-width="2" d="M2128.9 5253.7h18c16-56.5 100.1-32.8 135.2-10-23.9-17.9-48-39-72.7-36.3-45.6 5-38.9-30.6-4.3-27.8 34.6 2.8 24.9-27.8-10-21.4-34.9 6.4-42.4-5.7-69.6-14.9-27.2-9.3-42.2 27-9.4 33.5 32.7 6.4 28.5 44.8-22.1 24.9 40.6 19.9 34.8 51.9 34.8 51.9h.1v.1Z" class="Vector"/>
          <path stroke="#000" stroke-linecap="round" stroke-linejoin="round" stroke-width="2" d="M2136.9 5192.7s3.2 22.9 2 61m42.2-67.2c-13.5 14.8-24.2 25.5-34.1 67.3m82.7-198.6s17.2 14.4 10.4 43.6m80.4 69.5s-36.8-14-94.7-1.5m135 88.8s-20.9-39.8-121.6-41.4" class="Vector"/>
          <path fill="#fff" stroke="#000" stroke-linecap="round" stroke-linejoin="round" stroke-width="2" d="M1377.82 5802.2c-35.57 0-55.04-40.61-4.37-81.83a6.927 6.927 0 0 1 8.74 0c50.67 41.22 31.2 81.83-4.37 81.83Z" class="Vector"/>
          <path fill="#fff" stroke="#000" stroke-linecap="round" stroke-linejoin="round" stroke-width="2" d="M1380.58 5843.89c-15.65 18.6-116.46-15.11-82.64-114.37 1.26-3.69 5.32-5.61 8.96-4.22 27.23 10.45 127.57 54.52 73.67 118.58h.01v.01Z" class="Vector"/>
          <path fill="#fff" stroke="#000" stroke-linecap="round" stroke-linejoin="round" stroke-width="2" d="M1375.07 5843.89c15.65 18.6 116.46-15.11 82.64-114.37-1.26-3.69-5.32-5.61-8.96-4.22-27.23 10.45-127.57 54.52-73.67 118.58h-.01v.01Z" class="Vector"/>
          <path fill="#F0D0D3" stroke="#000" stroke-linecap="round" stroke-linejoin="round" stroke-width="2" d="M1377.83 5877.81c43.88 0 79.45-25.35 79.45-56.61 0-31.26-35.57-56.61-79.45-56.61s-79.45 25.34-79.45 56.61 35.57 56.61 79.45 56.61Z" class="Vector"/>
          <path fill="#fff" stroke="#000" stroke-linecap="round" stroke-linejoin="round" stroke-width="2" d="M1370.04 5848.58c39.46-5.97-44.94-99.4-122.81-108.32-4.31-.49-8.02 3.03-7.68 7.36 2.23 27.82 18.09 117.98 130.48 100.96h.01Z" class="Vector"/>
          <path fill="#fff" stroke="#000" stroke-linecap="round" stroke-linejoin="round" stroke-width="2" d="M1385.61 5848.58c-39.46-5.97 44.94-99.4 122.81-108.32 4.31-.49 8.02 3.03 7.68 7.36-2.23 27.82-18.09 117.98-130.48 100.96h-.01Zm-22.25 8.4s-94.43-86.99-178.84-59.73c-3.38 1.09-5.39 4.58-4.6 8.04 3.98 17.56 22.25 67.88 101.4 75.6 70.9 6.92 82.04-23.91 82.04-23.91Z" class="Vector"/>
          <path fill="#fff" stroke="#000" stroke-linecap="round" stroke-linejoin="round" stroke-width="2" d="M1392.27 5856.98s94.43-86.99 178.84-59.73c3.38 1.09 5.39 4.58 4.6 8.04-3.98 17.56-22.25 67.88-101.4 75.6-70.9 6.92-82.04-23.91-82.04-23.91Z" class="Vector"/>
          <path fill="#fff" stroke="#000" stroke-linecap="round" stroke-linejoin="round" stroke-width="2" d="M1377.82 5861.13c-35.57 0-55.04-40.61-4.37-81.83a6.927 6.927 0 0 1 8.74 0c50.67 41.22 31.2 81.83-4.37 81.83Z" class="Vector"/>
          <path fill="#fff" stroke="#000" stroke-linecap="round" stroke-linejoin="round" stroke-width="2" d="M1377.82 5871.69c0-25.09-24.65-65.41-82.1-78.6-3.44-.79-6.92 1.1-8.08 4.43-4.3 12.41-12.3 42.58 2.41 63.61 30.85 44.1 87.77 10.56 87.77 10.56Zm.01 0c0-25.09 24.65-65.41 82.1-78.6 3.44-.79 6.92 1.1 8.08 4.43 4.3 12.41 12.3 42.58-2.41 63.61-30.85 44.1-87.77 10.56-87.77 10.56Z" class="Vector"/>
          <path fill="#fff" stroke="#000" stroke-linecap="round" stroke-linejoin="round" stroke-width="2" d="M1377.83 5870.68c-39.78-11.75-90.54-1.41-116.77 27.95-3.23 3.62-1.67 9.36 2.9 10.99 10.26 3.65 30.54 7.49 64.09.68 52.44-10.65 49.78-39.62 49.78-39.62Z" class="Vector"/>
          <path fill="#fff" stroke="#000" stroke-linecap="round" stroke-linejoin="round" stroke-width="2" d="M1377.87 5870.68c39.78-11.75 90.54-1.41 116.77 27.95 3.23 3.62 1.67 9.36-2.9 10.99-10.26 3.65-30.54 7.49-64.09.68-52.44-10.65-49.78-39.62-49.78-39.62Z" class="Vector"/>
        </g>
      </g>
      <g class="top-mask">
        <mask id="b" width="2755" height="398" x="0" y="926" class="b" maskUnits="userSpaceOnUse" style="mask-type:luminance">
          <g class="clippath">
            <path fill="#fff" d="M593.4 1190.63V1324H0V926h679v68.029h-38.5v.11c-.69.08-1.38.18-2.1.34-16.1 6.401-24.2 22.701-24.2 48.501v135.6l-20.8 12.04v.01ZM2755 1229V926h-684.3v68.029h38.5v.11c.69.08 1.38.18 2.1.34 16.1 6.401 24.2 22.701 24.2 48.501v135.6l20.8 12.04V1324H2755v-95Z" class="Vector"/>
          </g>
        </mask>
        <g class="Group" mask="url(#b)">
          <path fill="#000" d="M2155.6 926h599.399v397.75H2155.6z" class="Rectangle 3"/>
          <path fill="#000" d="M0 926h592.1v398H0z" class="Rectangle 4"/>
          <path fill="#4C5C8F" stroke="#000" stroke-linecap="round" stroke-linejoin="round" stroke-width="2" d="m850.4 1338-84.6 48.5-258.6-148.4V925.5h87.3v265.6L850.4 1338Z" class="Vector"/>
          <path fill="#1E2978" stroke="#000" stroke-linecap="round" stroke-linejoin="round" stroke-width="2" d="M681.7 925.5v215.6l-87.2 50V925.5h87.2Z" class="Vector"/>
          <path fill="#8B7E9C" stroke="#000" stroke-linecap="round" stroke-linejoin="round" stroke-width="2" d="m680.2 1535.7 10.1 5.9-81.5 46.7-4.2 2.4-10.1-5.8-87.3-50 258.6-148.4 84.6-48.5-255.9-146.9 87.2-50 343.2 196.9-344.7 197.7Zm692 1204.7-175.4 100.7-10.1 5.8-85.8-49.2 10.1-5.8 89.7-51.5-173.5-99.5L684 2444l85.7-49.2 602.5 345.6Z" class="Vector"/>
          <path fill="#1E2978" stroke="#000" stroke-linecap="round" stroke-linejoin="round" stroke-width="2" d="M1024.9 1338v103.3L730.8 1610l-10.1-5.8v-11.3l-10.2-5.8v-11.3l-10.1-5.8v-11.3l-10.1-5.8v-11.3l-10.1-5.9 344.7-197.7Zm1217.9-412.5v312.6l-258.6 148.4-84.5-48.5 255.9-146.9V925.5h87.2Z" class="Vector"/>
          <path fill="#4C5C8F" stroke="#000" stroke-linecap="round" stroke-linejoin="round" stroke-width="2" d="M2155.6 925.5v265.6l-87.3-50V925.5h87.3Z" class="Vector"/>
          <path fill="#8B7E9C" stroke="#000" stroke-linecap="round" stroke-linejoin="round" stroke-width="2" d="m1984.2 1386.5 85.6 49.1-176.3 101.2-344.7 197.8 10.1 5.8-81.5 46.7-4.2 2.5-10.1-5.8-87.3-50.1 258.6-148.4 171.5-97.7 90.3-51.5-171-98.1 343.1-196.9 87.3 50-255.9 146.9 84.5 48.5Z" class="Vector"/>
          <path fill="#000" stroke="#000" stroke-linecap="round" stroke-linejoin="round" stroke-width="2" d="M665.801 1017.8v132.3l-5 2.9-45.4 26-5.1 2.9v-138.6c0-27.4 9.1-46.1 27.7-53.3 17.5-4.3 27.7 12.4 27.7 27.7l.1.1Z" class="Vector"/>
          <path fill="#1E2978" stroke="#000" stroke-linecap="round" stroke-linejoin="round" stroke-width="2" d="M658.401 989.6c-6.1-4.8-13.6-6.3-21.5-4.3l-.6.2c-25.6 9.8-31 36.9-31 58V1185l5-2.9 5.1-2.9v-135.7c0-25.8 8.1-42.1 24.2-48.5 4.8-1.1 9-.2 12.6 2.5 5.2 4.1 8.6 12.1 8.6 20.4v135.2l5-2.9 5-2.9v-129.4c0-11.4-4.8-22.3-12.4-28.3Z" class="Vector"/>
          <path stroke="#000" stroke-linecap="round" stroke-linejoin="round" stroke-width="2" d="m681.7 1141.1-10.9 6.2m-65.5 37.6-10.8 6.2" class="Vector"/>
          <path fill="#000" stroke="#000" stroke-linecap="round" stroke-linejoin="round" stroke-width="2" d="M2084.2 1017.8v132.3l5 2.9 45.4 26 5.1 2.9v-138.6c0-27.4-9.1-46.1-27.7-53.3-17.5-4.3-27.7 12.4-27.7 27.7h-.1v.1Z" class="Vector"/>
          <path fill="#4C5C8F" stroke="#000" stroke-linecap="round" stroke-linejoin="round" stroke-width="2" d="M2079.2 1017.8v129.4l5 2.9 5 2.9v-135.2c0-8.3 3.4-16.3 8.6-20.4 3.6-2.8 7.8-3.6 12.6-2.5 16.1 6.3 24.2 22.6 24.2 48.5v135.7l5.1 2.9 5 2.9v-141.5c0-21.1-5.4-48.2-31-58l-.6-.2c-8-2-15.4-.5-21.5 4.3-7.7 6-12.4 16.9-12.4 28.3Z" class="Vector"/>
          <path stroke="#000" stroke-linecap="round" stroke-linejoin="round" stroke-width="2" d="m2155.6 1191.1-10.9-6.2M263.2 931.5c-.5.4-1 .8-1.6 1.2-.3.2-.6.5-.9.7m-31.4-63c-32.9 10.6-62.9 56.9-67.3 101.3m-37.1-106.9s19.1 33.3 65.7 18.4" class="Vector"/>
          <path fill="#4C5C8F" stroke="#000" stroke-linecap="round" stroke-linejoin="round" stroke-width="2" d="M825.7 708.9c-40.7-42.5-116.8-60.7-149.4-7.1-32.6 53.6 5.4 179.4 5.4 223.7h-25.6s2.6-23.2-7.6-65.2c-10.3-42-9.2-108.1-10.4-146.6-1.2-38.5-39.1-80.5-120.4-47.7 35.7-13.7 47.8-73.4 88.3-77.6 40.5-4.2 49.5 18.5 71.9 19.6 22.4 1 34.4-14.9 57.8-3.5 23.5 11.4 15.7 39.9 40.2 47.2 34.7 10.4 35.1 41.6 49.8 57.3v-.1Z" class="Vector"/>
          <path fill="#4C5C8F" stroke="#000" stroke-linecap="round" stroke-linejoin="round" stroke-width="2" d="M1016.3 888.1c-11.1 43.1-75.3 64.5-57.1 106.3-7.4-12-10.9-29.2-8.6-51.6 6.1-60.1 9.1-164.5-124-188.3-133.1-23.8-232 120.3-232 171.1H564c10.7-61.1 53.4-122.7 128.4-172.8 69.9-46.7 113-115.9 107.9-180.9.2.6.3 1.2.5 1.8 0 .4.2.8.3 1.1 0 .5.3 1 .5 1.5 0 .4.3.8.4 1.2.4 1.1.8 2.2 1.2 3.4 0 .4.3.7.4 1.1.3.7.5 1.4.8 2 .3.8.6 1.5 1 2.2.3.6.6 1.3.9 1.9 0 .3.3.7.5 1 .3.6.6 1.3.9 1.9.8 1.5 1.6 3.1 2.5 4.6.2.3.4.6.5 1l2.1 3.6c0 .2.3.4.4.7l1.5 2.4c.5.8 1.1 1.6 1.6 2.4.6.8 1.1 1.6 1.7 2.4l.9 1.2 2.7 3.6c.6.8 1.2 1.5 1.8 2.3.6.9 1.3 1.7 2 2.5.6.8 1.3 1.6 2 2.4l2.1 2.4c.7.9 1.4 1.6 2.1 2.4.7.7 1.3 1.4 2 2.1.6.6 1.2 1.3 1.9 1.9l.9.9c.8.8 1.6 1.6 2.4 2.3.6.6 1.2 1.2 1.9 1.8 4.2 4 8.7 7.9 13.5 11.6.8.6 1.6 1.3 2.4 1.9.7.6 1.5 1.1 2.2 1.7.3.2.5.4.8.6.7.5 1.5 1.1 2.2 1.6.8.6 1.6 1.1 2.4 1.7.5.4 1 .7 1.6 1.1 2.6 1.8 5.2 3.5 7.9 5.1.9.6 1.9 1.2 2.8 1.7l3 1.8c9.4 5.5 18.3 11 26.6 16.5 67.6 45.2 98.2 92.4 84.5 141.2 0 0 36.6 24.3 25.5 67.4v.3h.2Z" class="Vector"/>
          <path fill="#F0D0D3" stroke="#000" stroke-linecap="round" stroke-linejoin="round" stroke-width="2" d="M1146.8 860.3c-47.7 23-30.6 29.2-79.4 104.1-36.1 55.4-87.399 64-108.199 30.1-18.2-41.8 45.999-63.2 57.099-106.3 11.1-43.1-25.499-67.4-25.499-67.4 13.599-48.7-16.9-96-84.5-141.2l77.1-19.5c15-3.7 30.499-26.1 10.4-89.2-6.3-19.6-4.9-33.5.9-41.6v-.2c.3-.3.6-.7.8-1 15.499-18.4 57.199-1.8 78.199 49.1 30 72.6 46.2 51.3 66.2 75.1 30.7 36.5 6.8 64.9 6.8 64.9 52.2 26.3 47.6 120.1 0 143.1h.1Z" class="Vector"/>
          <path stroke="#000" stroke-linecap="round" stroke-linejoin="round" stroke-width="2" d="M976.701 745.1s-20.4 39.7-74 26.3m-18.1-105.5s-42.8 6.6-75.5 41.8m107.1 89.7c32.1 31.6 64.7 101.1 69.5 135.2M1146.8 717.2s-108.6 21.9-190.299 3.1m88.799 90.5c39.1 29.4 44.6 72.6 43.3 118.5m-2.9-91.3c34.1 22.3 71.6 15.5 71.6 15.5m-149.6 53.4s21.4 49 29.8 90.8M850.4 497.2s17.4 71.5-13.9 132.9" class="Vector"/>
          <path fill="#F0D0D3" stroke="#000" stroke-linecap="round" stroke-linejoin="round" stroke-width="2" d="M825.7 856.3c-7.8 31.7-62.7 20.8-108.4-5.6-2.6-1.7-85-54.6-140-66.4-55.9-12-74.5 33.3-74.5 33.3s-49.9-47.9-119-19.3c-67.9 28.1-77.2 97.9-120.5 133.3-.5.4-1.1.8-1.6 1.2-.3.2-.6.5-.9.7-40.2 31.8-68.5 52.3-115.1 33-59.3-24.6-45.1-125.1 50.5-148.9 95.6-23.8 87.7-90.7 155.6-110.7 67.9-20.1 90 15.5 144.5 5.4 54.5-10 98.6-15.3 120.6 22.6 22 37.9 103.1 12.3 125.1 61.7 0 0 94.2 17 83.7 59.9v-.2Z" class="Vector"/>
          <path fill="#4C5C8F" stroke="#000" stroke-linecap="round" stroke-linejoin="round" stroke-width="2" d="M717.2 850.6c-32.6-18.8-94.1-33.6-140-2.8-46 30.8-22.6 77.7-22.6 77.7H508c0-48.1-90.7-96.5-177.6-42.8-27 16.7-48.4 33.9-67.2 48.7 43.3-35.3 52.6-105.2 120.5-133.3 69.1-28.6 119 19.3 119 19.3s18.6-45.3 74.5-33.3c55 11.8 137.4 64.8 140 66.4v.1Z" class="Vector"/>
          <path stroke="#000" stroke-linecap="round" stroke-linejoin="round" stroke-width="2" d="M502.701 817.5s17.5 46.5 25 108m-197.1-86.5s92.4-1.5 151.2 42.5" class="Vector"/>
          <path fill="#1E2978" stroke="#000" stroke-linecap="round" stroke-linejoin="round" stroke-width="2" d="M1924.4 708.9c40.7-42.5 116.8-60.7 149.4-7.1 32.6 53.6-5.4 179.4-5.4 223.7h25.6s-2.6-23.2 7.6-65.2c10.3-42 9.2-108.1 10.4-146.6 1.2-38.5 39.1-80.5 120.4-47.7-35.7-13.7-47.8-73.4-88.3-77.6-40.5-4.2-49.5 18.5-71.9 19.6-22.4 1-34.4-14.9-57.8-3.5-23.5 11.4-15.7 39.9-40.2 47.2-34.7 10.4-35.1 41.6-49.8 57.3v-.1Z" class="Vector"/>
          <path fill="#1E2978" stroke="#000" stroke-linecap="round" stroke-linejoin="round" stroke-width="2" d="M1733.8 888.1c11.1 43.1 75.3 64.5 57.1 106.3 7.4-12 1.2-30.4 8.6-51.6 17.8-50.6-1.1-161.4 124-188.3 132.2-28.5 232 120.3 232 171.1h30.6c-10.7-61.1-53.4-122.7-128.4-172.8-69.9-46.7-113-115.9-107.9-180.9-.2.6-.3 1.2-.5 1.8 0 .4-.2.7-.3 1.1 0 .5-.3 1-.5 1.5 0 .4-.3.8-.4 1.2-.4 1.1-.8 2.2-1.2 3.4 0 .4-.3.7-.4 1.1-.3.7-.5 1.4-.8 2-.3.7-.6 1.5-1 2.2-.3.6-.6 1.3-.9 1.9 0 .3-.3.7-.5 1-.3.6-.6 1.3-.9 1.9-.8 1.5-1.6 3.1-2.5 4.6-.2.3-.4.6-.5 1l-2.1 3.6c0 .2-.3.4-.4.7l-1.5 2.4c-.5.8-1.1 1.6-1.6 2.4-.6.8-1.1 1.6-1.7 2.4l-.9 1.2-2.7 3.6c-.6.8-1.2 1.5-1.8 2.3-.6.9-1.3 1.7-2 2.5-.6.8-1.3 1.6-2 2.4l-2.1 2.4c-.7.9-1.4 1.6-2.1 2.4-.7.7-1.3 1.4-2 2.1l-1.9 1.9-.9.9c-.8.8-1.6 1.6-2.4 2.3-.6.6-1.2 1.2-1.9 1.8-4.2 4-8.7 7.9-13.5 11.6-.8.6-1.6 1.3-2.4 1.9-.7.6-1.5 1.1-2.3 1.7-.3.2-.5.4-.8.6-.7.5-1.5 1.1-2.2 1.6-.8.6-1.6 1.1-2.4 1.7-.5.4-1 .7-1.6 1.1-2.6 1.7-5.2 3.5-7.9 5.1-.9.6-1.9 1.2-2.8 1.7l-3 1.8c-9.4 5.5-18.3 11-26.6 16.5-67.6 45.2-98.2 92.4-84.5 141.2 0 0-36.6 24.3-25.5 67.4v.3h-.1Z" class="Vector"/>
          <path fill="#D6A3B0" stroke="#000" stroke-linecap="round" stroke-linejoin="round" stroke-width="2" d="M1603.3 860.3c47.7 23 30.6 29.2 79.4 104.1 36.1 55.4 87.4 64 108.2 30.1 18.2-41.8-46-63.2-57.1-106.3-11.1-43.1 25.5-67.4 25.5-67.4-13.6-48.7 16.9-96 84.5-141.2l-77.1-19.5c-15-3.7-30.5-26.1-10.4-89.2 6.3-19.6 4.9-33.5-.9-41.6v-.2c-.3-.3-.6-.7-.8-1-15.5-18.4-57.2-1.8-78.2 49.1-30 72.6-46.2 51.3-66.2 75.1-30.7 36.5-6.8 64.9-6.8 64.9-52.2 26.3-47.6 120.1 0 143.1h-.1Z" class="Vector"/>
          <path stroke="#000" stroke-linecap="round" stroke-linejoin="round" stroke-width="2" d="M1773.4 745.1s20.4 39.7 74 26.3m18.1-105.5s42.8 6.6 75.5 41.8m-107.1 89.7c-32.1 31.6-64.7 101.1-69.5 135.2m-161.1-215.4s108.6 21.9 190.3 3.1m-88.8 90.5c-39.1 29.4-44.6 72.6-43.3 118.5m2.9-91.3c-34.1 22.3-71.6 15.5-71.6 15.5m149.6 53.4s-21.4 49-29.8 90.8m187.1-500.5s-17.4 71.5 13.9 132.9" class="Vector"/>
          <path fill="#D6A3B0" stroke="#000" stroke-linecap="round" stroke-linejoin="round" stroke-width="2" d="M1924.4 856.3c7.8 31.7 62.7 20.8 108.4-5.6 2.6-1.7 85-54.6 140-66.4 55.9-12 74.5 33.3 74.5 33.3s49.9-47.9 119-19.3c67.9 28.1 77.2 97.9 120.5 133.3.5.4 1.1.8 1.6 1.2.3.2.6.5.9.7 40.2 31.8 68.5 52.3 115.1 33 59.3-24.6 45.1-125.1-50.5-148.9-95.6-23.8-87.7-90.7-155.6-110.7-67.9-20.1-90 15.5-144.5 5.4-54.5-10-98.6-15.3-120.6 22.6-22 37.9-103.1 12.3-125.1 61.7 0 0-94.2 17-83.7 59.9v-.2Z" class="Vector"/>
          <path fill="#1E2978" stroke="#000" stroke-linecap="round" stroke-linejoin="round" stroke-width="2" d="M2032.9 850.6c32.6-18.8 94.1-33.6 140-2.8 46 30.8 22.6 77.7 22.6 77.7h46.6c0-48.1 90.7-96.5 177.6-42.8 27 16.7 48.4 33.9 67.2 48.7-43.3-35.3-52.6-105.2-120.5-133.3-69.1-28.6-119 19.3-119 19.3s-18.6-45.3-74.5-33.3c-55 11.8-137.4 64.8-140 66.4v.1Z" class="Vector"/>
          <path stroke="#000" stroke-linecap="round" stroke-linejoin="round" stroke-width="2" d="M2247.3 817.5s-17.5 46.5-25 108m197.2-86.5s-92.4-1.5-151.2 42.5" class="Vector"/>
        </g>
      </g>
    </g>
  </g>
</svg>
