<svg width="24" height="24" viewBox="0 0 24 24" fill="none" xmlns="http://www.w3.org/2000/svg">
<g clip-path="url(#clip0_885_3683)">
<path d="M12 0C18.6 0 24 5.4 24 12C24 18.6 18.6 24 12 24C5.4 24 0 18.6 0 12C0 5.4 5.4 0 12 0ZM12.04 4.33594C11.7989 4.336 11.597 4.41819 11.4336 4.58105C11.2707 4.74449 11.1885 4.94635 11.1885 5.1875V6.12402C10.5642 6.19503 9.95429 6.48638 9.3584 6.99707C8.76233 7.50799 8.46387 8.22497 8.46387 9.14746C8.46389 9.91378 8.69138 10.5632 9.14551 11.0957C9.5997 11.6275 10.4369 12.0856 11.6572 12.4688C12.7923 12.8377 13.5159 13.1674 13.8281 13.458C14.1403 13.7492 14.2969 14.1429 14.2969 14.6396C14.2969 15.1931 14.0946 15.6014 13.6904 15.8643C13.2858 16.1264 12.7926 16.2578 12.2109 16.2578C11.6717 16.2578 11.2176 16.1474 10.8486 15.9277C10.4796 15.7075 10.1739 15.3847 9.93262 14.959C9.81912 14.7462 9.65609 14.5939 9.44336 14.502C9.23065 14.4095 9.02472 14.4053 8.82617 14.4902C8.58503 14.5895 8.41776 14.7496 8.3252 14.9697C8.23325 15.1894 8.23664 15.399 8.33594 15.5977C8.63395 16.2363 9.02435 16.7331 9.50684 17.0879C9.9893 17.4426 10.55 17.6911 11.1885 17.833V18.8125C11.1885 19.0536 11.2707 19.2561 11.4336 19.4189C11.5969 19.5821 11.7991 19.664 12.04 19.6641C12.2812 19.6641 12.484 19.5823 12.6475 19.4189C12.8103 19.2561 12.8915 19.0536 12.8916 18.8125V17.876C13.7714 17.7483 14.5095 17.4214 15.1055 16.8965C15.7015 16.3714 16 15.6043 16 14.5967C15.9999 13.788 15.7485 13.0745 15.2451 12.457C14.741 11.84 13.9988 11.3893 13.0195 11.1055C11.9694 10.8074 11.2314 10.5235 10.8057 10.2539C10.38 9.98429 10.167 9.61569 10.167 9.14746C10.167 8.73596 10.3299 8.39167 10.6562 8.11523C10.9827 7.8382 11.4586 7.7002 12.083 7.7002C12.452 7.70021 12.7611 7.75323 13.0098 7.85938C13.2576 7.96609 13.4738 8.11882 13.6582 8.31738C13.8425 8.51585 14.0412 8.65366 14.2539 8.73145C14.4668 8.80979 14.6734 8.80683 14.8721 8.72168C15.1132 8.62232 15.2733 8.45843 15.3516 8.23145C15.4291 8.0046 15.404 7.7986 15.2764 7.61426C15.0209 7.23113 14.6942 6.90872 14.2969 6.64648C13.8995 6.38365 13.4309 6.20918 12.8916 6.12402V5.1875C12.8916 4.94644 12.8102 4.74446 12.6475 4.58105C12.484 4.41813 12.2813 4.33594 12.04 4.33594Z" fill="#4C5C8F"/>
</g>
<defs>
<clipPath id="clip0_885_3683">
<rect width="24" height="24" fill="white"/>
</clipPath>
</defs>
</svg>
